#N canvas 28 83 378 408 10;
#X obj 88 112 t b f;
#X obj 88 77 inlet;
#X obj 168 312 outlet;
#X obj 168 282 -;
#X obj 175 76 inlet;
#X obj 88 237 float \$1;
#X connect 0 0 5 0;
#X connect 0 1 3 1;
#X connect 1 0 0 0;
#X connect 3 0 2 0;
#X connect 4 0 5 1;
#X connect 5 0 3 0;
