#N canvas 0 23 526 519 12;
#X obj 210 109 t f f;
#X obj 242 132 swap 1;
#X obj 242 156 /;
#X obj 84 78 inlet~;
#X obj 84 374 outlet~;
#X obj 84 256 fexpr~ floor($x1[0]);
#X obj 102 205 line~;
#X obj 84 227 *~;
#X obj 102 313 line~;
#X obj 84 335 *~;
#X msg 102 290 \$1 10;
#X msg 102 182 \$1 10;
#X obj 210 78 inlet steps;
#X connect 0 0 11 0;
#X connect 0 1 1 0;
#X connect 1 0 2 0;
#X connect 1 1 2 1;
#X connect 2 0 10 0;
#X connect 3 0 7 0;
#X connect 5 0 9 0;
#X connect 6 0 7 1;
#X connect 7 0 5 0;
#X connect 8 0 9 1;
#X connect 9 0 4 0;
#X connect 10 0 8 0;
#X connect 11 0 6 0;
#X connect 12 0 0 0;
