#N canvas 0 23 423 450 12;
#X obj 91 371 outlet~;
#X obj 91 327 samphold~;
#X obj 151 304 phasor~;
#X obj 194 202 samplerate~;
#X obj 194 224 * 0.5;
#X obj 151 281 *;
#X obj 194 185 bng 15 250 50 0 empty empty empty 17 7 0 10 -262144
-1 -1;
#X floatatom 194 246 5 0 0 0 - - -;
#X floatatom 151 121 5 0 0 0 - - -;
#X obj 151 74 swap 1;
#X obj 151 98 -;
#X obj 151 50 clip 0 1;
#X obj 151 143 t f b;
#X obj 91 27 inlet~;
#X obj 151 27 inlet decimate;
#X connect 1 0 0 0;
#X connect 2 0 1 1;
#X connect 3 0 4 0;
#X connect 4 0 7 0;
#X connect 5 0 2 0;
#X connect 6 0 3 0;
#X connect 7 0 5 1;
#X connect 8 0 12 0;
#X connect 9 0 10 0;
#X connect 9 1 10 1;
#X connect 10 0 8 0;
#X connect 11 0 9 0;
#X connect 12 0 5 0;
#X connect 12 1 6 0;
#X connect 13 0 1 0;
#X connect 14 0 11 0;
