#N canvas 0 23 450 300 10;
#X obj 44 82 loadbang;
#X obj 44 120 array set \$0-pulse;
#X obj 44 144 array define -yrange 0 1 \$0-pulse 2;
#X msg 44 101 1 0;
#X obj 273 144 tabplay~ \$0-pulse;
#X obj 273 104 inlet;
#X obj 273 164 outlet~;
#X obj 273 124 route bang;
#X connect 0 0 3 0;
#X connect 3 0 1 0;
#X connect 4 0 6 0;
#X connect 5 0 7 0;
#X connect 7 0 4 0;
