#N canvas 0 22 750 768 10;
#X obj 157 636 *~;
#X obj 113 636 *~;
#X obj 206 350 t b b b b;
#X obj 253 399 delay;
#X obj 290 399 delay;
#X obj 327 399 delay;
#X obj 235 305 t b b b b;
#X obj 280 351 f;
#X obj 317 352 f;
#X obj 354 352 f;
#X obj 388 286 -;
#X obj 369 190 t f f f;
#X obj 408 225 / 2;
#X obj 408 246 t f f f;
#X obj 280 156 t b f;
#X msg 263 430 0 0 1 1;
#X msg 317 430 0 0 0 1;
#X obj 264 465 unpack f f f f;
#X obj 202 556 line~ 1;
#X obj 274 556 line~ 0;
#X obj 345 556 line~ 0;
#X obj 416 556 line~ 0;
#X obj 268 636 *~;
#X obj 224 636 *~;
#X obj 207 718 outlet~ audio_out;
#X obj 78 24 inlet~ signal;
#X obj 232 26 inlet period_trigs_drill;
#X obj 389 46 clip 1 60000;
#X obj 389 26 inlet nb_of_drills;
#X obj 389 67 sel 1;
#X obj 427 87 t b f;
#X obj 207 686 delwrite~ \$0-tapinout 10000;
#X obj 498 556 line~ 100;
#X obj 232 135 spigot;
#X obj 280 135 spigot;
#X obj 286 109 == 0;
#X obj 286 88 t f f;
#X msg 417 111 1;
#X msg 389 111 0;
#X obj 232 88 t f f;
#X obj 498 578 delread4~ \$0-tapinout;
#X text 431 68 < if #drills == 1 \, we just pass through;
#X msg 150 430 1 0 0 0;
#X msg 374 430 1 0 0 0;
#X obj 534 384 t b f;
#X obj 553 457 f;
#X obj 534 406 delay 2;
#X msg 206 430 1 1 0 0;
#X msg 202 534 \$1 10;
#X msg 274 534 \$1 10;
#X msg 345 534 \$1 10;
#X msg 416 534 \$1 10;
#X msg 498 535 \$1 10;
#X connect 0 0 31 0;
#X connect 1 0 24 0;
#X connect 2 0 47 0;
#X connect 2 1 3 0;
#X connect 2 2 4 0;
#X connect 2 3 5 0;
#X connect 3 0 15 0;
#X connect 4 0 16 0;
#X connect 5 0 43 0;
#X connect 6 0 2 0;
#X connect 6 1 7 0;
#X connect 6 2 8 0;
#X connect 6 3 9 0;
#X connect 7 0 3 1;
#X connect 8 0 4 1;
#X connect 9 0 5 1;
#X connect 10 0 8 1;
#X connect 11 0 9 1;
#X connect 11 1 10 0;
#X connect 11 2 12 0;
#X connect 12 0 13 0;
#X connect 13 0 7 1;
#X connect 13 1 10 1;
#X connect 13 2 52 0;
#X connect 14 0 6 0;
#X connect 14 1 11 0;
#X connect 15 0 17 0;
#X connect 16 0 17 0;
#X connect 17 0 48 0;
#X connect 17 1 49 0;
#X connect 17 2 50 0;
#X connect 17 3 51 0;
#X connect 18 0 1 1;
#X connect 19 0 0 1;
#X connect 20 0 23 1;
#X connect 21 0 22 1;
#X connect 22 0 24 0;
#X connect 23 0 31 0;
#X connect 25 0 1 0;
#X connect 25 0 0 0;
#X connect 26 0 39 0;
#X connect 27 0 29 0;
#X connect 28 0 27 0;
#X connect 29 0 38 0;
#X connect 29 1 30 0;
#X connect 30 0 37 0;
#X connect 30 1 12 1;
#X connect 32 0 40 0;
#X connect 33 0 42 0;
#X connect 34 0 14 0;
#X connect 35 0 33 1;
#X connect 36 0 35 0;
#X connect 36 1 34 1;
#X connect 37 0 36 0;
#X connect 38 0 36 0;
#X connect 39 0 33 0;
#X connect 39 1 34 0;
#X connect 40 0 23 0;
#X connect 40 0 22 0;
#X connect 42 0 17 0;
#X connect 43 0 17 0;
#X connect 44 0 46 0;
#X connect 44 1 45 1;
#X connect 45 0 52 0;
#X connect 46 0 45 0;
#X connect 47 0 17 0;
#X connect 48 0 18 0;
#X connect 49 0 19 0;
#X connect 50 0 20 0;
#X connect 51 0 21 0;
#X connect 52 0 32 0;
