#N canvas 0 23 833 668 10;
#X obj 216 425 delay;
#X msg 327 320 stop;
#X obj 87 362 float;
#X obj 215 456 float;
#X obj 433 433 float;
#X obj 215 557 t l;
#X obj 371 478 pack f f;
#X obj 215 477 pack f f;
#X obj 87 399 pack f f;
#X obj 229 349 t f f;
#X obj 277 148 f \$1;
#X obj 318 148 f \$2;
#X obj 391 148 f \$3;
#X obj 520 147 f \$4;
#X obj 560 147 f \$5;
#X obj 600 147 f \$6;
#X obj 421 96 loadbang;
#X obj 72 288 t b b b;
#X obj 433 389 delay;
#X obj 277 172 t f f;
#X obj 322 212 +;
#X obj 318 172 t f b f;
#X obj 239 66 inlet attack;
#X obj 318 66 inlet decay;
#X obj 391 66 inlet release;
#X obj 493 66 inlet rest;
#X obj 560 66 inlet peak1;
#X obj 633 66 inlet peak2;
#X obj 215 580 outlet;
#X obj 72 66 inlet onoff/trig;
#X obj 87 155 spigot;
#X obj 149 108 t f f;
#X obj 137 155 spigot;
#X obj 72 87 t a a;
#X obj 137 176 sel 1 0;
#X obj 87 200 t b b;
#X obj 149 87 r \$0-sus;
#X msg 363 320 stop;
#X obj 331 296 t b b;
#X obj 137 289 t b b;
#X obj 156 200 t b b;
#X obj 710 147 s \$0-sus;
#X obj 710 66 inlet sus;
#X obj 726 96 loadbang;
#X obj 726 116 f \$7;
#X obj 176 129 > 0;
#X obj 145 129 <= 0;
#X connect 0 0 3 0;
#X connect 1 0 0 0;
#X connect 2 0 8 0;
#X connect 3 0 7 0;
#X connect 4 0 6 0;
#X connect 5 0 28 0;
#X connect 6 0 5 0;
#X connect 7 0 5 0;
#X connect 8 0 5 0;
#X connect 9 0 8 1;
#X connect 9 1 0 1;
#X connect 10 0 19 0;
#X connect 11 0 21 0;
#X connect 12 0 6 1;
#X connect 13 0 4 1;
#X connect 14 0 2 1;
#X connect 15 0 3 1;
#X connect 16 0 15 0;
#X connect 16 0 14 0;
#X connect 16 0 13 0;
#X connect 16 0 12 0;
#X connect 16 0 11 0;
#X connect 16 0 10 0;
#X connect 17 0 2 0;
#X connect 17 1 0 0;
#X connect 17 2 18 0;
#X connect 18 0 4 0;
#X connect 19 0 9 0;
#X connect 19 1 20 0;
#X connect 20 0 18 1;
#X connect 21 0 7 1;
#X connect 21 1 20 0;
#X connect 21 2 20 1;
#X connect 22 0 10 0;
#X connect 23 0 11 0;
#X connect 24 0 12 0;
#X connect 25 0 13 0;
#X connect 26 0 14 0;
#X connect 27 0 15 0;
#X connect 29 0 33 0;
#X connect 30 0 35 0;
#X connect 31 0 46 0;
#X connect 31 1 45 0;
#X connect 32 0 34 0;
#X connect 33 0 30 0;
#X connect 33 1 32 0;
#X connect 34 0 39 0;
#X connect 34 1 40 0;
#X connect 35 0 17 0;
#X connect 35 1 38 0;
#X connect 36 0 31 0;
#X connect 37 0 18 0;
#X connect 38 0 1 0;
#X connect 38 1 37 0;
#X connect 39 0 2 0;
#X connect 39 1 0 0;
#X connect 40 0 4 0;
#X connect 40 1 1 0;
#X connect 42 0 41 0;
#X connect 43 0 44 0;
#X connect 44 0 41 0;
#X connect 45 0 32 1;
#X connect 46 0 30 1;
