#N canvas 0 23 692 530 10;
#X obj 88 139 *~;
#X obj 213 138 *~;
#X obj 179 220 osc~;
#X obj 263 192 *~;
#X obj 212 265 *~;
#X obj 182 342 +~;
#X obj 182 363 osc~;
#X obj 138 465 outlet~;
#X obj 374 455 *~;
#X obj 124 34 inlet~;
#X obj 228 34 inlet~;
#X obj 278 34 inlet~;
#X obj 535 124 inlet~;
#X obj 61 34 inlet~;
#X obj 179 193 +~;
#X obj 346 36 inlet~;
#X text 127 50 c ratio;
#X text 222 50 m ratio;
#X text 280 50 m index;
#X text 531 104 feedback;
#X text 76 50 freq;
#X obj 427 72 inlet~;
#X obj 374 476 delwrite~ \$0-del 1;
#X obj 315 218 delread~ \$0-del 1;
#X obj 346 262 *~;
#X obj 346 193 osc~;
#X obj 212 320 +~;
#X obj 379 193 *~;
#X text 343 20 fixed modulator freq;
#X text 425 53 fixed modulator index;
#X connect 0 0 5 0;
#X connect 1 0 14 0;
#X connect 1 0 3 0;
#X connect 2 0 4 0;
#X connect 3 0 4 1;
#X connect 4 0 26 0;
#X connect 5 0 6 0;
#X connect 6 0 7 0;
#X connect 6 0 8 0;
#X connect 8 0 22 0;
#X connect 9 0 0 1;
#X connect 10 0 1 1;
#X connect 11 0 3 1;
#X connect 12 0 8 1;
#X connect 13 0 0 0;
#X connect 13 0 1 0;
#X connect 14 0 2 0;
#X connect 15 0 25 0;
#X connect 15 0 27 0;
#X connect 21 0 27 1;
#X connect 23 0 4 0;
#X connect 23 0 24 0;
#X connect 24 0 26 1;
#X connect 25 0 24 0;
#X connect 26 0 5 1;
#X connect 27 0 24 1;
