#N canvas 0 23 635 561 10;
#X obj 120 70 inlet~;
#X obj 167 70 inlet;
#X obj 199 430 outlet~ left;
#X obj 297 430 outlet~ right;
#N canvas 0 23 450 300 all-instances-loaded 0;
#X obj 75 51 inlet;
#X obj 75 111 f;
#X obj 100 111 + 1;
#X obj 75 81 t b;
#X obj 100 221 outlet;
#X obj 100 194 sel 1;
#X obj 116 51 loadbang;
#X obj 100 166 expr $f1 == (\$1 * 2 + 1);
#X connect 0 0 3 0;
#X connect 1 0 2 0;
#X connect 2 0 1 1;
#X connect 2 0 7 0;
#X connect 3 0 1 0;
#X connect 5 0 4 0;
#X connect 6 0 3 0;
#X connect 7 0 5 0;
#X restore 87 470 pd all-instances-loaded;
#X obj 87 489 s \$0-loadbang;
#X text 63 70 audio in;
#X obj 167 325 s \$0-drywet;
#X obj 198 306 s \$0-size;
#X obj 260 268 s \$0-speed;
#X obj 291 249 s \$0-mindel;
#X obj 322 230 s \$0-maxdel;
#X obj 353 211 s \$0-feedback;
#X obj 229 287 s \$0-rsize;
#N canvas 104 90 550 391 route-env-parameters 0;
#X obj 90 54 inlet;
#X obj 90 296 s \$0-env-shorten;
#X obj 213 296 s \$0-env-drive;
#X obj 90 79 route shorten drive;
#X obj 90 100 f;
#X obj 145 100 f;
#X obj 175 34 r \$0-loadbang;
#X obj 213 269 jl/map 0 1 1 100 1.5;
#X obj 213 79 outlet;
#X connect 0 0 3 0;
#X connect 3 0 4 0;
#X connect 3 1 5 0;
#X connect 3 2 8 0;
#X connect 4 0 1 0;
#X connect 5 0 7 0;
#X connect 6 0 4 0;
#X connect 6 0 5 0;
#X connect 7 0 2 0;
#X restore 446 146 pd route-env-parameters;
#X obj 384 192 s \$0-pan;
#X obj 415 173 s \$0-width;
#X obj 368 33 r \$0-loadbang;
#X obj 167 91 route drywet size rsize speed mindelay maxdelay feedback
pan width, f 47;
#X obj 167 146 f;
#X obj 198 146 f;
#X obj 229 146 f;
#X obj 260 146 f;
#X obj 291 146 f;
#X obj 322 146 f;
#X obj 353 146 f;
#X obj 384 146 f;
#X obj 415 146 f;
#X obj 430 345 s \$0-voices;
#X obj 430 325 f \$1;
#X obj 430 305 r \$0-loadbang;
#X obj 120 353 clone jl/gdelay-unit~ \$1 \$0 \$2;
#X obj 120 391 clone jl/gpan-unit~ \$1 \$0, f 27;
#X obj 446 211 route clear;
#X obj 446 231 s \$0-clear;
#X connect 0 0 31 0;
#X connect 1 0 18 0;
#X connect 4 0 5 0;
#X connect 14 0 33 0;
#X connect 17 0 19 0;
#X connect 17 0 20 0;
#X connect 17 0 21 0;
#X connect 17 0 22 0;
#X connect 17 0 23 0;
#X connect 17 0 24 0;
#X connect 17 0 25 0;
#X connect 17 0 26 0;
#X connect 17 0 27 0;
#X connect 18 0 19 0;
#X connect 18 1 20 0;
#X connect 18 2 21 0;
#X connect 18 3 22 0;
#X connect 18 4 23 0;
#X connect 18 5 24 0;
#X connect 18 6 25 0;
#X connect 18 7 26 0;
#X connect 18 8 27 0;
#X connect 18 9 14 0;
#X connect 19 0 7 0;
#X connect 20 0 8 0;
#X connect 21 0 13 0;
#X connect 22 0 9 0;
#X connect 23 0 10 0;
#X connect 24 0 11 0;
#X connect 25 0 12 0;
#X connect 26 0 15 0;
#X connect 27 0 16 0;
#X connect 29 0 28 0;
#X connect 30 0 29 0;
#X connect 31 0 4 0;
#X connect 32 0 4 0;
#X connect 32 1 2 0;
#X connect 32 2 3 0;
#X connect 33 0 34 0;
