#N canvas 0 23 805 611 10;
#N canvas 142 30 749 665 process 0;
#X obj 286 591 outlet~;
#X obj 60 40 inlet;
#X obj 97 40 inlet;
#X obj 594 164 phasor~;
#X obj 618 195 +~ 0.5;
#X obj 618 219 wrap~;
#X obj 234 528 hip~ 5;
#X obj 234 501 *~;
#X obj 61 309 samphold~;
#X obj 287 566 *~ 1;
#X obj 398 519 hip~ 5;
#X obj 401 493 *~;
#X obj 442 294 clip~ 0 1;
#X obj 301 290 samphold~;
#X obj 594 144 line~ 0;
#X msg 594 124 \$1 10;
#X obj 97 124 sig~;
#X obj 621 72 swap 1000;
#X obj 621 95 /;
#X obj 594 52 sel 0;
#X obj 60 168 s \$2-\$1-gsize;
#X obj 97 146 s~ \$2-\$1-position;
#X obj 61 205 r~ \$2-\$1-position;
#X obj 203 205 r~ \$2-\$1-phase1;
#X obj 301 205 r~ \$2-\$1-position;
#X obj 442 204 r~ \$2-\$1-phase2;
#X obj 594 32 r \$2-\$1-gsize;
#X obj 618 243 send~ \$2-\$1-phase2;
#X obj 594 267 send~ \$2-\$1-phase1;
#X obj 61 372 delread4~ \$2-\$1-gdelay;
#X obj 301 354 delread4~ \$2-\$1-gdelay;
#X obj 383 110 t b f;
#X obj 352 34 r \$2-env-shorten;
#X msg 352 154 \$1 3;
#X obj 352 174 line~;
#X obj 203 272 *~;
#X obj 442 274 *~;
#X obj 544 366 r \$2-env-drive;
#X msg 544 387 \$1 3;
#X obj 544 407 line~;
#X obj 383 54 r \$2-\$1-gsize;
#X obj 383 75 / 10;
#X obj 352 134 jl/map 0 1 1 1 2;
#X obj 203 292 clip~ 0 1;
#N canvas 0 23 450 300 pow 0;
#X obj 130 200 -~;
#X obj 91 95 sig~ 1;
#X obj 183 79 -~;
#X obj 183 36 sig~ 1;
#X obj 228 36 inlet~;
#X obj 272 36 inlet~;
#X obj 130 222 outlet~;
#X obj 183 100 pow~ 1;
#X connect 0 0 6 0;
#X connect 1 0 0 0;
#X connect 2 0 7 0;
#X connect 3 0 2 0;
#X connect 4 0 2 1;
#X connect 5 0 7 1;
#X connect 7 0 0 1;
#X restore 259 475 pd pow;
#N canvas 0 23 450 300 pow 0;
#X obj 130 200 -~;
#X obj 91 95 sig~ 1;
#X obj 183 79 -~;
#X obj 183 36 sig~ 1;
#X obj 228 36 inlet~;
#X obj 272 36 inlet~;
#X obj 130 222 outlet~;
#X obj 183 100 pow~ 1;
#X connect 0 0 6 0;
#X connect 1 0 0 0;
#X connect 2 0 7 0;
#X connect 3 0 2 0;
#X connect 4 0 2 1;
#X connect 5 0 7 1;
#X connect 7 0 0 1;
#X restore 432 467 pd pow;
#X obj 442 354 cos~;
#X obj 442 374 *~ 0.5;
#X obj 442 394 +~ 0.5;
#X obj 442 334 wrap~;
#X obj 442 314 +~ 0.5;
#X text 491 313 +~:wrap~:cos~:*~:+~ <=> hann;
#X obj 203 352 cos~;
#X obj 203 372 *~ 0.5;
#X obj 203 392 +~ 0.5;
#X obj 203 332 wrap~;
#X obj 203 312 +~ 0.5;
#X obj 218 252 samphold~;
#X obj 457 254 samphold~;
#X obj 17 40 inlet~;
#X connect 1 0 20 0;
#X connect 2 0 16 0;
#X connect 3 0 4 0;
#X connect 3 0 28 0;
#X connect 4 0 5 0;
#X connect 5 0 27 0;
#X connect 6 0 9 0;
#X connect 7 0 6 0;
#X connect 8 0 29 0;
#X connect 9 0 0 0;
#X connect 10 0 9 0;
#X connect 11 0 10 0;
#X connect 12 0 50 0;
#X connect 13 0 30 0;
#X connect 14 0 3 0;
#X connect 15 0 14 0;
#X connect 16 0 21 0;
#X connect 17 0 18 0;
#X connect 17 1 18 1;
#X connect 18 0 15 0;
#X connect 19 1 17 0;
#X connect 22 0 8 0;
#X connect 23 0 8 1;
#X connect 23 0 35 0;
#X connect 23 0 57 1;
#X connect 24 0 13 0;
#X connect 25 0 13 1;
#X connect 25 0 36 0;
#X connect 25 0 58 1;
#X connect 26 0 19 0;
#X connect 29 0 7 0;
#X connect 30 0 11 0;
#X connect 31 0 42 0;
#X connect 31 1 42 4;
#X connect 32 0 42 0;
#X connect 33 0 34 0;
#X connect 34 0 57 0;
#X connect 34 0 58 0;
#X connect 35 0 43 0;
#X connect 36 0 12 0;
#X connect 37 0 38 0;
#X connect 38 0 39 0;
#X connect 39 0 44 1;
#X connect 39 0 45 1;
#X connect 40 0 41 0;
#X connect 41 0 31 0;
#X connect 42 0 33 0;
#X connect 43 0 56 0;
#X connect 44 0 7 1;
#X connect 45 0 11 1;
#X connect 46 0 47 0;
#X connect 47 0 48 0;
#X connect 48 0 45 0;
#X connect 49 0 46 0;
#X connect 50 0 49 0;
#X connect 52 0 53 0;
#X connect 53 0 54 0;
#X connect 54 0 44 0;
#X connect 55 0 52 0;
#X connect 56 0 55 0;
#X connect 57 0 35 1;
#X connect 58 0 36 1;
#X restore 327 397 pd process;
#X obj 327 250 + 0;
#N canvas 0 23 450 300 random 0;
#X obj 30 20 inlet;
#X obj 34 250 outlet;
#X obj 268 132 random 10000;
#X obj 268 154 / 9999;
#X obj 285 85 t b f;
#X obj 267 112 bng 15 250 50 0 empty empty empty 17 7 0 10 -262144
-1 -1;
#X obj 294 188 * 1;
#X connect 0 0 4 0;
#X connect 2 0 3 0;
#X connect 3 0 6 0;
#X connect 4 0 5 0;
#X connect 4 1 6 1;
#X connect 5 0 2 0;
#X connect 6 0 1 0;
#X restore 388 112 pd random;
#X obj 352 223 t b f;
#X obj 400 140 loadbang;
#X obj 400 161 bng 15 250 50 0 empty empty empty 17 7 0 10 -262144
-1 -1;
#X msg 400 180 1;
#X obj 400 201 metro 10;
#X obj 400 222 random 10000;
#X obj 465 139 t f f;
#X obj 435 268 pack f f;
#X obj 435 287 line 0;
#X obj 114 76 inlet~;
#X obj 446 345 -;
#X obj 327 270 t f b f;
#X obj 446 323 swap;
#X obj 384 374 clip 0 1;
#X obj 512 312 loadbang;
#X obj 512 351 bng 15 250 50 0 empty empty empty 17 7 0 10 -262144
-1 -1;
#X obj 512 370 f \$3;
#X obj 435 246 jl/map 0 9999 1 2000;
#X obj 327 418 hip~ 5;
#X obj 243 501 s~ \$2-\$1-grain;
#X obj 544 535 outlet;
#X obj 544 504 loadbang;
#X obj 386 487 *~;
#X obj 386 511 clip~ -1 1;
#X obj 432 455 line~ 0;
#X msg 432 435 \$1 10;
#X obj 114 136 jl/split~;
#X obj 165 117 line~;
#X msg 165 98 \$1 5;
#X obj 327 76 r \$2-size;
#X obj 388 76 r \$2-rsize;
#X obj 165 76 r \$2-drywet;
#X obj 465 76 r \$2-speed;
#X obj 532 76 r \$2-mindel;
#X obj 605 76 r \$2-maxdel;
#X obj 432 415 r \$2-feedback;
#X obj 131 248 receive~ \$2-\$1-gdelay-in;
#X obj 386 535 send~ \$2-\$1-gdelay-in;
#X obj 243 125 /;
#X obj 243 96 swap 1;
#X obj 243 76 r \$2-voices;
#X obj 114 292 *~ 1;
#X obj 165 292 *~ 1;
#X obj 243 144 t f f;
#N canvas 0 23 450 300 delwrite 0;
#X obj 112 133 delwrite~ \$2-\$1-gdelay \$3;
#X obj 112 54 inlet~;
#X obj 76 166 outlet~;
#X obj 172 68 r \$2-clear;
#X obj 172 87 bng 15 250 50 0 empty empty empty 17 7 0 10 -262144 -1
-1;
#X msg 172 105 clear;
#X connect 1 0 0 0;
#X connect 1 0 2 0;
#X connect 3 0 4 0;
#X connect 4 0 5 0;
#X connect 5 0 0 0;
#X restore 165 332 pd delwrite;
#X connect 0 0 21 0;
#X connect 1 0 14 0;
#X connect 2 0 3 0;
#X connect 3 0 1 0;
#X connect 3 1 1 1;
#X connect 4 0 5 0;
#X connect 5 0 6 0;
#X connect 6 0 7 0;
#X connect 7 0 8 0;
#X connect 8 0 20 0;
#X connect 9 0 7 1;
#X connect 9 1 10 1;
#X connect 10 0 11 0;
#X connect 11 0 16 0;
#X connect 12 0 29 0;
#X connect 13 0 16 2;
#X connect 14 0 0 1;
#X connect 14 1 16 0;
#X connect 14 2 15 0;
#X connect 15 0 13 0;
#X connect 15 1 13 1;
#X connect 16 0 0 2;
#X connect 17 0 18 0;
#X connect 18 0 19 0;
#X connect 19 0 15 1;
#X connect 19 0 16 2;
#X connect 20 0 10 0;
#X connect 21 0 22 0;
#X connect 21 0 25 0;
#X connect 24 0 23 0;
#X connect 25 0 26 0;
#X connect 26 0 40 0;
#X connect 27 0 25 1;
#X connect 28 0 27 0;
#X connect 29 0 44 0;
#X connect 29 1 45 0;
#X connect 30 0 29 1;
#X connect 31 0 30 0;
#X connect 32 0 1 0;
#X connect 33 0 2 0;
#X connect 34 0 31 0;
#X connect 35 0 9 0;
#X connect 36 0 20 3;
#X connect 37 0 20 4;
#X connect 38 0 28 0;
#X connect 39 0 47 0;
#X connect 41 0 46 0;
#X connect 42 0 41 0;
#X connect 42 1 41 1;
#X connect 43 0 42 0;
#X connect 44 0 22 0;
#X connect 45 0 47 0;
#X connect 46 0 44 1;
#X connect 46 1 45 1;
#X connect 47 0 0 0;
