#N canvas 0 23 720 526 10;
#N canvas 179 29 1237 794 hardware_hann_grann 0;
#X obj 179 660 hip~ 5;
#X floatatom 251 164 0 0 2 0 - - -;
#X obj 113 506 +~ 1;
#X obj 179 633 *~;
#X obj 53 265 line~;
#X floatatom 53 192 0 0 5.43 0 - - -;
#X obj 113 535 +~;
#X obj 113 481 *~;
#X floatatom 726 66 0 0 0 0 - - -;
#X text 399 202 chunk size;
#X text 399 224 in seconds;
#X obj 737 113 t b f;
#X obj 726 137 /;
#X obj 726 24 loadbang;
#X obj 278 519 -~ 0.5;
#X obj 278 543 *~ 0.5;
#X obj 278 566 cos~;
#X text 306 327 ... and in samples;
#X obj 782 244 +~ 0.5;
#X obj 782 266 wrap~;
#X obj 373 512 +~ 1;
#X obj 455 653 *~;
#X obj 373 541 +~;
#X obj 373 487 *~;
#X text 764 136 loop frequency;
#X obj 179 683 outlet~;
#X obj 491 81 inlet;
#X obj 251 82 inlet;
#X obj 53 88 inlet;
#X msg 726 45 1;
#X obj 644 220 s~ \$0-phase;
#X obj 53 288 s~ \$0-read-pt;
#X obj 515 393 r~ \$0-phase2;
#X obj 294 208 s \$0-chunk-size;
#X obj 790 61 r \$0-chunk-size;
#X obj 294 304 s \$0-chunk-size-samples;
#X obj 94 388 r \$0-chunk-size-samples;
#X obj 347 394 r \$0-chunk-size-samples;
#X obj 169 486 r~ \$0-read-pt;
#X obj 428 492 r~ \$0-read-pt;
#X obj 251 208 * 44.1;
#X obj 53 215 * 44.1;
#X obj 53 240 pack 0 10;
#X text 53 66 begin;
#X text 90 191 <-- read point in ms;
#X obj 963 66 inlet;
#X obj 454 566 r \$0-tab;
#X obj 194 560 r \$0-tab;
#X obj 963 104 s \$0-tab;
#X obj 455 678 hip~ 5;
#X obj 455 701 outlet~;
#X obj 306 256 t b f;
#X obj 726 174 phasor~;
#X obj 278 487 clip~ 0 1;
#X text 485 63 pitch;
#X text 956 46 to tabreads;
#X text 249 62 size;
#X obj 269 379 r~ \$0-phase;
#X text 295 166 <-- chunk size in ms ...;
#X obj 294 281 * 1;
#X obj 790 83 / 1000;
#X obj 113 434 samphold~;
#X obj 169 534 samphold~;
#X obj 373 440 samphold~;
#X obj 428 540 samphold~;
#X obj 278 589 abs~;
#X obj 555 582 abs~;
#X obj 555 511 -~ 0.5;
#X obj 555 535 *~ 0.5;
#X obj 555 558 cos~;
#X obj 555 479 clip~ 0 1;
#X obj 113 560 tabread4~ \$1;
#X obj 373 566 tabread4~ \$1;
#X obj 634 506 +~ 1;
#X obj 716 647 *~;
#X obj 634 535 +~;
#X obj 634 481 *~;
#X obj 608 388 r \$0-chunk-size-samples;
#X obj 689 486 r~ \$0-read-pt;
#X obj 715 560 r \$0-tab;
#X obj 716 672 hip~ 5;
#X obj 716 695 outlet~;
#X obj 634 434 samphold~;
#X obj 689 534 samphold~;
#X obj 816 576 abs~;
#X obj 816 505 -~ 0.5;
#X obj 816 529 *~ 0.5;
#X obj 816 552 cos~;
#X obj 816 473 clip~ 0 1;
#X obj 634 560 tabread4~ \$1;
#X obj 902 510 +~ 1;
#X obj 984 651 *~;
#X obj 902 539 +~;
#X obj 902 485 *~;
#X obj 876 392 r \$0-chunk-size-samples;
#X obj 957 490 r~ \$0-read-pt;
#X obj 983 564 r \$0-tab;
#X obj 984 676 hip~ 5;
#X obj 984 699 outlet~;
#X obj 902 438 samphold~;
#X obj 957 538 samphold~;
#X obj 1084 580 abs~;
#X obj 1084 509 -~ 0.5;
#X obj 1084 533 *~ 0.5;
#X obj 1084 556 cos~;
#X obj 1084 477 clip~ 0 1;
#X obj 902 564 tabread4~ \$1;
#X obj 776 387 r~ \$0-phase3;
#X obj 1044 391 r~ \$0-phase4;
#X obj 726 291 wrap~;
#X obj 730 322 s~ \$0-phase2;
#X obj 832 243 wrap~;
#X obj 726 269 +~ 0.25;
#X obj 832 221 +~ 0.75;
#X obj 786 297 s~ \$0-phase3;
#X obj 836 274 s~ \$0-phase4;
#X obj 491 122 jl/mtosf;
#X connect 0 0 25 0;
#X connect 1 0 40 0;
#X connect 1 0 33 0;
#X connect 2 0 6 0;
#X connect 3 0 0 0;
#X connect 4 0 31 0;
#X connect 5 0 41 0;
#X connect 6 0 71 0;
#X connect 7 0 2 0;
#X connect 8 0 12 0;
#X connect 11 0 12 0;
#X connect 11 1 12 1;
#X connect 12 0 52 0;
#X connect 13 0 29 0;
#X connect 14 0 15 0;
#X connect 15 0 16 0;
#X connect 16 0 65 0;
#X connect 18 0 19 0;
#X connect 19 0 114 0;
#X connect 20 0 22 0;
#X connect 21 0 49 0;
#X connect 22 0 72 0;
#X connect 23 0 20 0;
#X connect 26 0 116 0;
#X connect 27 0 1 0;
#X connect 28 0 5 0;
#X connect 29 0 8 0;
#X connect 32 0 63 1;
#X connect 32 0 70 0;
#X connect 32 0 23 1;
#X connect 32 0 64 1;
#X connect 34 0 60 0;
#X connect 36 0 61 0;
#X connect 37 0 63 0;
#X connect 38 0 62 0;
#X connect 39 0 64 0;
#X connect 40 0 59 0;
#X connect 41 0 42 0;
#X connect 42 0 4 0;
#X connect 45 0 48 0;
#X connect 46 0 72 0;
#X connect 47 0 71 0;
#X connect 49 0 50 0;
#X connect 51 0 59 0;
#X connect 51 1 59 1;
#X connect 52 0 18 0;
#X connect 52 0 30 0;
#X connect 52 0 112 0;
#X connect 52 0 113 0;
#X connect 53 0 14 0;
#X connect 57 0 53 0;
#X connect 57 0 61 1;
#X connect 57 0 7 1;
#X connect 57 0 62 1;
#X connect 59 0 35 0;
#X connect 60 0 11 0;
#X connect 61 0 7 0;
#X connect 62 0 6 1;
#X connect 63 0 23 0;
#X connect 64 0 22 1;
#X connect 65 0 3 1;
#X connect 66 0 21 1;
#X connect 67 0 68 0;
#X connect 68 0 69 0;
#X connect 69 0 66 0;
#X connect 70 0 67 0;
#X connect 71 0 3 0;
#X connect 72 0 21 0;
#X connect 73 0 75 0;
#X connect 74 0 80 0;
#X connect 75 0 89 0;
#X connect 76 0 73 0;
#X connect 77 0 82 0;
#X connect 78 0 83 0;
#X connect 79 0 89 0;
#X connect 80 0 81 0;
#X connect 82 0 76 0;
#X connect 83 0 75 1;
#X connect 84 0 74 1;
#X connect 85 0 86 0;
#X connect 86 0 87 0;
#X connect 87 0 84 0;
#X connect 88 0 85 0;
#X connect 89 0 74 0;
#X connect 90 0 92 0;
#X connect 91 0 97 0;
#X connect 92 0 106 0;
#X connect 93 0 90 0;
#X connect 94 0 99 0;
#X connect 95 0 100 0;
#X connect 96 0 106 0;
#X connect 97 0 98 0;
#X connect 99 0 93 0;
#X connect 100 0 92 1;
#X connect 101 0 91 1;
#X connect 102 0 103 0;
#X connect 103 0 104 0;
#X connect 104 0 101 0;
#X connect 105 0 102 0;
#X connect 106 0 91 0;
#X connect 107 0 82 1;
#X connect 107 0 88 0;
#X connect 107 0 76 1;
#X connect 107 0 83 1;
#X connect 108 0 99 1;
#X connect 108 0 105 0;
#X connect 108 0 93 1;
#X connect 108 0 100 1;
#X connect 109 0 110 0;
#X connect 111 0 115 0;
#X connect 112 0 109 0;
#X connect 113 0 111 0;
#X connect 116 0 51 0;
#X restore 210 325 pd hardware_hann_grann;
#X obj 214 250 t b f;
#N canvas 723 182 568 456 scroller 0;
#X obj 267 77 loadbang;
#X msg 267 97 1;
#X obj 81 40 inlet beg;
#X obj 161 40 inlet len;
#X obj 271 418 outlet scroll;
#X obj 304 162 t b f;
#X obj 298 188 random 1000;
#X obj 271 365 +;
#X obj 304 234 pack f f;
#X obj 271 394 clip 0 1;
#X obj 404 43 inlet speed;
#X obj 271 313 *;
#X obj 304 257 line 0;
#X obj 298 209 / 999;
#X obj 267 129 jl/rmetro 100;
#X connect 0 0 1 0;
#X connect 1 0 14 0;
#X connect 2 0 7 1;
#X connect 3 0 11 1;
#X connect 5 0 6 0;
#X connect 5 1 8 1;
#X connect 6 0 13 0;
#X connect 7 0 9 0;
#X connect 8 0 12 0;
#X connect 9 0 4 0;
#X connect 10 0 14 1;
#X connect 11 0 7 0;
#X connect 12 0 11 0;
#X connect 13 0 8 0;
#X connect 14 1 5 0;
#X restore 144 156 pd scroller;
#X obj 144 177 t f f;
#X obj 207 277 *;
#X obj 207 300 / 44.1;
#X floatatom 109 232 5 0 0 0 - - -, f 5;
#X obj 318 64 inlet gsize;
#X obj 402 64 inlet pitch;
#X obj 483 64 inlet table;
#X obj 111 65 inlet beg;
#X obj 175 65 inlet len;
#X obj 239 65 inlet speed;
#X obj 568 64 inlet tablelen;
#X obj 175 378 outlet~ grain1;
#X obj 220 409 outlet~ grain2;
#X obj 276 440 outlet~ grain3;
#X obj 382 473 outlet~ grain4;
#X obj 498 185 loadbang;
#X obj 498 207 symbol \$1;
#X msg 498 228 set \$1;
#X connect 0 0 14 0;
#X connect 0 1 15 0;
#X connect 0 2 16 0;
#X connect 0 3 17 0;
#X connect 1 0 4 0;
#X connect 1 1 4 1;
#X connect 2 0 3 0;
#X connect 3 0 6 0;
#X connect 3 1 4 0;
#X connect 4 0 5 0;
#X connect 5 0 0 0;
#X connect 7 0 0 1;
#X connect 8 0 0 2;
#X connect 9 0 0 3;
#X connect 10 0 2 0;
#X connect 11 0 2 1;
#X connect 12 0 2 2;
#X connect 13 0 1 0;
#X connect 18 0 19 0;
#X connect 19 0 20 0;
#X connect 20 0 0 3;
