#N canvas 664 114 570 644 10;
#X obj 204 528 hip~ 5;
#X obj 94 337 +~ 1;
#X obj 204 501 *~;
#X obj 138 365 +~;
#X obj 94 312 *~;
#X obj 313 315 clip~ 0 1;
#X obj 94 265 samphold~;
#X obj 236 294 samphold~;
#X obj 138 432 tabread4~ \$3;
#X obj 313 208 +~;
#X obj 313 229 wrap~;
#X obj 404 394 r \$2-env-drive;
#X obj 313 64 inlet~;
#X msg 404 416 \$1 3;
#X obj 404 438 line~;
#X obj 357 113 /;
#X obj 357 84 swap 1;
#X obj 357 64 r \$2-voices;
#X obj 374 186 r \$2-env-shorten;
#X msg 374 207 \$1 3;
#X obj 374 228 line~;
#X obj 236 64 inlet~;
#X text 233 47 read pt;
#X text 314 45 phase;
#X obj 94 202 r \$2-chunksamples;
#X obj 169 365 r \$2-table;
#X obj 204 558 s~ \$2-\$1-grain;
#X obj 357 134 * \$1;
#X obj 313 295 *~;
#X obj 301 558 outlet;
#X obj 301 527 loadbang;
#N canvas 0 23 450 300 pow 0;
#X obj 130 200 -~;
#X obj 91 95 sig~ 1;
#X obj 183 79 -~;
#X obj 183 36 sig~ 1;
#X obj 228 36 inlet~;
#X obj 272 36 inlet~;
#X obj 130 222 outlet~;
#X obj 183 100 pow~ 1;
#X connect 0 0 6 0;
#X connect 1 0 0 0;
#X connect 2 0 7 0;
#X connect 3 0 2 0;
#X connect 4 0 2 1;
#X connect 5 0 7 1;
#X connect 7 0 0 1;
#X restore 313 464 pd pow;
#X obj 313 387 cos~;
#X obj 313 407 *~ 0.5;
#X obj 313 427 +~ 0.5;
#X obj 313 367 wrap~;
#X obj 313 347 +~ 0.5;
#X text 362 346 +~:wrap~:cos~:*~:+~ <=> hann;
#X obj 374 268 samphold~;
#X msg 94 223 \$1 3;
#X obj 94 244 line~;
#X obj 150 389 threshold~ 0.97 0 0.03 0;
#X obj 67 109 list prepend set;
#X obj 67 88 symbol \$3;
#X obj 46 130 list;
#X obj 67 26 loadbang;
#X obj 49 28 bng 15 250 50 0 empty empty empty 17 7 0 10 -262144 -1
-1;
#X obj 85 59 r \$2-table;
#N canvas 0 23 320 296 filter-set-msgs 0;
#X obj 119 142 spigot;
#X obj 168 93 t b a;
#X msg 168 113 1;
#X obj 174 191 list;
#X obj 119 167 t b b;
#X msg 139 113 0;
#X obj 168 47 inlet;
#X obj 119 47 inlet;
#X obj 174 250 outlet;
#X obj 174 212 list trim;
#X connect 0 0 4 0;
#X connect 1 0 2 0;
#X connect 1 1 3 1;
#X connect 2 0 0 1;
#X connect 3 0 9 0;
#X connect 4 0 5 0;
#X connect 4 1 3 0;
#X connect 5 0 0 1;
#X connect 6 0 1 0;
#X connect 7 0 0 0;
#X connect 9 0 8 0;
#X restore 150 408 pd filter-set-msgs;
#X connect 0 0 26 0;
#X connect 1 0 3 0;
#X connect 2 0 0 0;
#X connect 3 0 8 0;
#X connect 4 0 1 0;
#X connect 5 0 36 0;
#X connect 6 0 4 0;
#X connect 7 0 3 1;
#X connect 8 0 2 0;
#X connect 9 0 10 0;
#X connect 10 0 6 1;
#X connect 10 0 4 1;
#X connect 10 0 7 1;
#X connect 10 0 28 0;
#X connect 10 0 38 1;
#X connect 11 0 13 0;
#X connect 12 0 9 0;
#X connect 13 0 14 0;
#X connect 14 0 31 1;
#X connect 15 0 27 0;
#X connect 16 0 15 0;
#X connect 16 1 15 1;
#X connect 17 0 16 0;
#X connect 18 0 19 0;
#X connect 19 0 20 0;
#X connect 20 0 38 0;
#X connect 21 0 7 0;
#X connect 24 0 39 0;
#X connect 25 0 8 0;
#X connect 27 0 9 1;
#X connect 28 0 5 0;
#X connect 30 0 29 0;
#X connect 31 0 2 1;
#X connect 32 0 33 0;
#X connect 33 0 34 0;
#X connect 34 0 31 0;
#X connect 35 0 32 0;
#X connect 36 0 35 0;
#X connect 38 0 28 1;
#X connect 39 0 40 0;
#X connect 40 0 6 0;
#X connect 41 0 48 0;
#X connect 42 0 44 1;
#X connect 43 0 42 0;
#X connect 45 0 43 0;
#X connect 46 0 43 0;
#X connect 47 0 44 1;
