#N canvas 324 102 677 652 10;
#X obj 168 270 t b f;
#N canvas 723 182 568 456 scroller 0;
#X obj 267 77 loadbang;
#X msg 267 97 1;
#X obj 81 40 inlet beg;
#X obj 161 40 inlet len;
#X obj 271 418 outlet scroll;
#X obj 304 162 t b f;
#X obj 298 188 random 1000;
#X obj 271 365 +;
#X obj 304 234 pack f f;
#X obj 271 394 clip 0 1;
#X obj 404 43 inlet speed;
#X obj 271 313 *;
#X obj 304 257 line 0;
#X obj 298 209 / 999;
#X obj 267 129 jl/rmetro 100;
#X connect 0 0 1 0;
#X connect 1 0 14 0;
#X connect 2 0 7 1;
#X connect 3 0 11 1;
#X connect 5 0 6 0;
#X connect 5 1 8 1;
#X connect 6 0 13 0;
#X connect 7 0 9 0;
#X connect 8 0 12 0;
#X connect 9 0 4 0;
#X connect 10 0 14 1;
#X connect 11 0 7 0;
#X connect 12 0 11 0;
#X connect 13 0 8 0;
#X connect 14 1 5 0;
#X restore 108 156 pd scroller;
#X obj 156 300 *;
#X msg 219 305 set \$1;
#X obj 108 84 route beg len speed;
#X obj 51 42 inlet;
#X obj 286 522 outlet~ left;
#X obj 369 522 outlet~ right;
#X obj 156 340 line~;
#X obj 427 366 * 44.1;
#X obj 473 365 t b f;
#X obj 455 409 * 1;
#X obj 473 270 jl/mtosf;
#X msg 156 320 \$1 5;
#X obj 455 429 s \$0-chunksamples;
#X obj 363 340 swap 1;
#X obj 363 367 /;
#X obj 363 434 phasor~;
#X obj 363 320 / 1000;
#X obj 363 414 line~;
#X msg 363 394 \$1 5;
#X obj 219 325 s \$0-table;
#X obj 495 96 s \$0-voices;
#X obj 108 177 t f f;
#X obj 495 76 f \$1;
#N canvas 104 90 550 391 route-env-parameters 0;
#X obj 90 54 inlet;
#X obj 69 296 s \$0-env-shorten;
#X obj 213 296 s \$0-env-drive;
#X obj 90 79 route shorten drive;
#X obj 100 207 r \$0-chunkms;
#X obj 100 227 t b f;
#X obj 90 100 f;
#X obj 145 100 f;
#X obj 175 34 r \$0-loadbang;
#X obj 69 269 jl/map 0 1 1 1 2;
#X obj 213 269 jl/map 0 1 1 100 1.5;
#X connect 0 0 3 0;
#X connect 3 0 6 0;
#X connect 3 1 7 0;
#X connect 4 0 5 0;
#X connect 5 0 9 0;
#X connect 5 1 9 4;
#X connect 6 0 9 0;
#X connect 7 0 10 0;
#X connect 8 0 6 0;
#X connect 8 0 7 0;
#X connect 9 0 1 0;
#X connect 10 0 2 0;
#X restore 513 148 pd route-env-parameters;
#X obj 482 227 s \$0-pan;
#X obj 501 188 s \$0-width;
#X obj 408 270 t f f f;
#X obj 488 323 s \$0-chunkms;
#N canvas 0 23 450 300 all-instances-loaded 0;
#X obj 75 51 inlet;
#X obj 75 111 f;
#X obj 100 111 + 1;
#X obj 75 81 t b;
#X obj 100 221 outlet;
#X obj 100 194 sel 1;
#X obj 116 51 loadbang;
#X obj 100 166 expr $f1 == (\$1 * 2 + 1);
#X connect 0 0 3 0;
#X connect 1 0 2 0;
#X connect 2 0 1 1;
#X connect 2 0 7 0;
#X connect 3 0 1 0;
#X connect 5 0 4 0;
#X connect 6 0 3 0;
#X connect 7 0 5 0;
#X restore 141 522 pd all-instances-loaded;
#X obj 141 541 s \$0-loadbang;
#X obj 495 56 r \$0-loadbang;
#X obj 108 105 f;
#X obj 145 105 f;
#X obj 182 105 f;
#X obj 254 126 f;
#X obj 289 126 f;
#X obj 325 126 f;
#X obj 360 126 f;
#X obj 241 47 r \$0-loadbang;
#X obj 168 248 expr size("$s1");
#X obj 219 285 route symbol;
#X obj 219 202 symbol \$2;
#X obj 51 63 route bang;
#X obj 51 293 s \$0-loadbang;
#X obj 219 104 route set size pitch pan width;
#X obj 219 181 unpack s f;
#X obj 439 323 * 0.001;
#X obj 439 343 t b f;
#X obj 354 269 moses 1;
#X obj 192 466 clone jl/gflow-unit~ \$1 \$0 \$2;
#X obj 210 488 clone jl/gpan-unit~ \$1 \$0, f 26;
#X obj 135 197 s \$0-scroll;
#X obj 474 480 r \$0-scroll;
#X obj 474 521 outlet scroll;
#X connect 0 0 2 0;
#X connect 0 1 2 1;
#X connect 1 0 23 0;
#X connect 2 0 13 0;
#X connect 3 0 21 0;
#X connect 4 0 33 0;
#X connect 4 1 34 0;
#X connect 4 2 35 0;
#X connect 4 3 46 0;
#X connect 5 0 44 0;
#X connect 8 0 51 0;
#X connect 9 0 11 0;
#X connect 10 0 11 0;
#X connect 10 1 11 1;
#X connect 11 0 14 0;
#X connect 12 0 10 0;
#X connect 13 0 8 0;
#X connect 15 0 16 0;
#X connect 15 1 16 1;
#X connect 16 0 20 0;
#X connect 17 0 51 1;
#X connect 18 0 15 0;
#X connect 19 0 17 0;
#X connect 20 0 19 0;
#X connect 23 0 2 0;
#X connect 23 1 53 0;
#X connect 24 0 22 0;
#X connect 28 0 18 0;
#X connect 28 1 9 0;
#X connect 28 2 29 0;
#X connect 30 0 31 0;
#X connect 32 0 24 0;
#X connect 33 0 1 0;
#X connect 34 0 1 1;
#X connect 35 0 1 2;
#X connect 36 0 28 0;
#X connect 37 0 12 0;
#X connect 38 0 26 0;
#X connect 39 0 27 0;
#X connect 40 0 33 0;
#X connect 40 0 34 0;
#X connect 40 0 35 0;
#X connect 40 0 36 0;
#X connect 40 0 37 0;
#X connect 40 0 38 0;
#X connect 40 0 39 0;
#X connect 40 0 43 0;
#X connect 41 0 0 0;
#X connect 42 0 3 0;
#X connect 43 0 41 0;
#X connect 43 0 42 0;
#X connect 44 0 45 0;
#X connect 44 1 4 0;
#X connect 46 0 47 0;
#X connect 46 1 36 0;
#X connect 46 2 37 0;
#X connect 46 3 38 0;
#X connect 46 4 39 0;
#X connect 46 5 25 0;
#X connect 47 0 43 0;
#X connect 47 1 50 0;
#X connect 48 0 49 0;
#X connect 49 0 9 0;
#X connect 49 1 9 1;
#X connect 50 1 48 0;
#X connect 51 0 30 0;
#X connect 52 0 30 0;
#X connect 52 1 6 0;
#X connect 52 2 7 0;
#X connect 54 0 55 0;
