#N canvas 794 497 450 300 10;
#X obj 180 86 r~ \$2-\$1-grain;
#X obj 180 232 outlet~;
#X obj 263 138 r \$2-pan;
#X obj 332 138 r \$2-width;
#X obj 180 200 jl/split~;
#X obj 231 232 outlet~;
#N canvas 0 23 648 686 repanning 0;
#X obj 104 69 inlet;
#X obj 229 65 inlet;
#X obj 104 91 clip 0 1;
#X obj 229 87 clip 0 1;
#X obj 104 122 t f f;
#X obj 104 233 t f f;
#X obj 229 324 * 1;
#X obj 103 383 t f b;
#X obj 241 474 * 1;
#X obj 241 376 + 0;
#X obj 255 324 f;
#X obj 265 351 * 0;
#X obj 229 230 t b b f f;
#X obj 515 234 / 1;
#X obj 492 205 % 2;
#X obj 582 199 - 1;
#X obj 555 174 t f f;
#X obj 555 130 loadbang;
#X msg 555 152 2;
#X text 492 45 voice #;
#X text 105 45 pan;
#X text 231 44 width;
#X obj 241 398 t b f;
#N canvas 235 95 170 307 triangulize 0;
#X obj 37 37 inlet;
#X obj 37 243 outlet;
#X obj 37 58 moses 0.5;
#X obj 37 109 * 2;
#X obj 88 108 - 0.5;
#X obj 88 130 * 2;
#X obj 88 159 swap 1;
#X obj 95 184 -;
#X connect 0 0 2 0;
#X connect 2 0 3 0;
#X connect 2 1 4 0;
#X connect 3 0 1 0;
#X connect 4 0 5 0;
#X connect 5 0 6 0;
#X connect 6 0 7 0;
#X connect 6 1 7 1;
#X connect 7 0 1 0;
#X restore 374 207 pd triangulize;
#X obj 374 376 t f f;
#X obj 270 509 + 0;
#X obj 327 473 * 0;
#X obj 329 376 swap 1;
#X obj 336 401 -;
#X obj 291 261 swap 1;
#X obj 298 286 -;
#X obj 492 66 loadbang;
#X obj 492 87 f \$1;
#X obj 270 583 outlet~;
#X obj 270 562 line~;
#X msg 270 541 \$1 5;
#X connect 0 0 2 0;
#X connect 1 0 3 0;
#X connect 2 0 4 0;
#X connect 3 0 12 0;
#X connect 4 0 5 0;
#X connect 4 1 23 0;
#X connect 5 0 7 0;
#X connect 5 1 6 0;
#X connect 6 0 9 0;
#X connect 7 0 8 0;
#X connect 7 1 26 0;
#X connect 8 0 25 0;
#X connect 9 0 22 0;
#X connect 10 0 11 0;
#X connect 11 0 9 1;
#X connect 12 0 6 0;
#X connect 12 1 10 0;
#X connect 12 2 29 0;
#X connect 12 3 11 1;
#X connect 13 0 10 0;
#X connect 14 0 13 0;
#X connect 15 0 13 1;
#X connect 16 0 14 1;
#X connect 16 1 15 0;
#X connect 17 0 18 0;
#X connect 18 0 16 0;
#X connect 22 0 8 0;
#X connect 22 1 26 0;
#X connect 23 0 24 0;
#X connect 24 0 27 0;
#X connect 24 1 26 1;
#X connect 25 0 35 0;
#X connect 26 0 25 1;
#X connect 27 0 28 0;
#X connect 27 1 28 1;
#X connect 28 0 8 1;
#X connect 29 0 30 0;
#X connect 29 1 30 1;
#X connect 30 0 6 1;
#X connect 31 0 32 0;
#X connect 32 0 14 0;
#X connect 34 0 33 0;
#X connect 35 0 34 0;
#X restore 263 161 pd repanning;
#X obj 86 209 loadbang;
#X obj 86 232 outlet;
#X connect 0 0 4 0;
#X connect 2 0 6 0;
#X connect 3 0 6 1;
#X connect 4 0 1 0;
#X connect 4 1 5 0;
#X connect 6 0 4 1;
#X connect 7 0 8 0;
