#N canvas 0 23 611 507 12;
#X obj 195 214 jl/gbend~ \$3;
#X obj 195 246 *~ 1;
#X obj 195 271 hip~ 5;
#X obj 195 296 s~ \$2-\$1-grain;
#X obj 303 296 outlet;
#X obj 303 271 loadbang;
#X obj 227 184 r \$2-to-gbend;
#X connect 0 0 1 0;
#X connect 1 0 2 0;
#X connect 2 0 3 0;
#X connect 5 0 4 0;
#X connect 6 0 0 0;
