#N canvas 738 74 611 507 10;
#X obj 195 214 jl/gbend~ \$3;
#X obj 195 240 hip~ 5;
#X obj 195 265 s~ \$2-\$1-grain;
#X obj 303 265 outlet;
#X obj 303 240 loadbang;
#X obj 246 168 r \$2-to-guzi-unit;
#X obj 195 168 inlet;
#X connect 0 0 1 0;
#X connect 1 0 2 0;
#X connect 4 0 3 0;
#X connect 5 0 0 0;
#X connect 6 0 0 0;
