#N canvas 292 136 600 401 10;
#N canvas 755 105 568 527 control 0;
#X obj 201 137 route speed rspeed;
#N canvas 0 25 538 404 pitch-computer 0;
#X obj 95 281 +;
#X obj 192 144 list store;
#X obj 280 99 t a a;
#X obj 312 122 list length;
#X obj 273 145 random;
#X obj 192 170 list split;
#X obj 125 243 +;
#X obj 100 167 random;
#X obj 140 144 * 1000;
#X obj 100 191 / 1000;
#X obj 69 167 f;
#X obj 69 63 t b b b b;
#X obj 225 193 list split 1;
#X msg 95 305 pitch \$1;
#X obj 183 52 route pitch rpitch chord;
#X obj 95 330 outlet;
#X obj 415 286 outlet;
#X obj 69 23 inlet trig;
#X obj 183 21 inlet msgs;
#X connect 0 0 13 0;
#X connect 1 0 5 0;
#X connect 2 0 1 1;
#X connect 2 1 3 0;
#X connect 3 0 4 1;
#X connect 4 0 5 1;
#X connect 5 1 12 0;
#X connect 6 0 0 1;
#X connect 7 0 9 0;
#X connect 8 0 7 1;
#X connect 9 0 6 0;
#X connect 10 0 0 0;
#X connect 11 0 10 0;
#X connect 11 1 7 0;
#X connect 11 2 1 0;
#X connect 11 3 4 0;
#X connect 12 0 6 1;
#X connect 13 0 15 0;
#X connect 14 0 10 1;
#X connect 14 1 8 0;
#X connect 14 2 2 0;
#X connect 14 3 16 0;
#X connect 17 0 11 0;
#X connect 18 0 14 0;
#X restore 221 253 pd pitch-computer;
#N canvas 0 25 442 347 rvs-computer 0;
#X obj 178 70 route rvs rrvs;
#X obj 256 219 random 2;
#X obj 200 221 f;
#X obj 256 196 spigot;
#X obj 225 116 == 0;
#X obj 225 92 t f f;
#X obj 36 89 t b b;
#X msg 211 252 rvs \$1;
#X obj 211 276 outlet;
#X obj 37 26 inlet trig;
#X obj 178 27 inlet msgs;
#X obj 361 262 outlet;
#X obj 200 196 spigot 1;
#X connect 0 0 2 1;
#X connect 0 1 5 0;
#X connect 0 2 11 0;
#X connect 1 0 7 0;
#X connect 2 0 7 0;
#X connect 3 0 1 0;
#X connect 4 0 12 1;
#X connect 5 0 4 0;
#X connect 5 1 3 1;
#X connect 6 0 12 0;
#X connect 6 1 3 0;
#X connect 7 0 8 0;
#X connect 9 0 6 0;
#X connect 10 0 0 0;
#X connect 12 0 2 0;
#X restore 195 306 pd rvs-computer;
#X obj 63 319 f;
#X obj 104 340 + 1;
#X obj 63 342 % 4;
#X obj 63 365 t f f;
#N canvas 0 25 557 528 beg-end-computer 0;
#X msg 113 337 beg \$1;
#X msg 163 337 end \$1;
#X obj 113 79 route beg len;
#X obj 113 377 outlet;
#X obj 398 377 outlet;
#X obj 113 48 inlet msgs;
#X obj 113 154 *;
#X obj 177 154 *;
#X obj 113 182 t f f;
#X obj 154 225 +;
#X obj 177 182 t b f;
#X obj 162 254 min;
#X obj 259 100 t b f f f;
#X obj 257 42 inlet;
#X connect 0 0 3 0;
#X connect 1 0 3 0;
#X connect 2 0 6 0;
#X connect 2 1 7 0;
#X connect 2 2 4 0;
#X connect 5 0 2 0;
#X connect 6 0 8 0;
#X connect 7 0 10 0;
#X connect 8 0 0 0;
#X connect 8 1 9 0;
#X connect 9 0 11 0;
#X connect 10 0 9 0;
#X connect 10 1 9 1;
#X connect 11 0 1 0;
#X connect 12 0 6 0;
#X connect 12 0 7 0;
#X connect 12 1 6 1;
#X connect 12 2 7 1;
#X connect 12 3 11 1;
#X connect 13 0 12 0;
#X restore 252 352 pd beg-end-computer;
#X obj 161 228 t b b b b;
#X msg 54 165 stop;
#X obj 161 204 spigot;
#X obj 161 137 t f f;
#X obj 54 145 delay 5;
#X obj 161 181 jl/rmetro 25 25;
#X obj 77 24 inlet;
#X obj 195 475 outlet;
#X obj 363 25 inlet buffer-duration;
#X msg 63 387 \$1 bang;
#X obj 195 435 list prepend all;
#X obj 195 455 list trim;
#X obj 77 44 route float;
#X obj 140 65 route voices;
#X obj 77 65 t f f;
#X obj 54 125 sel 0;
#X obj 363 373 route pan width;
#X obj 358 450 s \$0-pan;
#X obj 415 450 s \$0-width;
#X connect 0 0 13 1;
#X connect 0 1 13 2;
#X connect 0 2 1 1;
#X connect 1 0 18 0;
#X connect 1 1 2 1;
#X connect 2 0 18 0;
#X connect 2 1 7 0;
#X connect 3 0 5 0;
#X connect 4 0 3 1;
#X connect 5 0 6 0;
#X connect 6 0 17 0;
#X connect 6 1 4 0;
#X connect 7 0 18 0;
#X connect 7 1 24 0;
#X connect 8 0 3 0;
#X connect 8 2 2 0;
#X connect 8 3 1 0;
#X connect 9 0 18 0;
#X connect 10 0 8 0;
#X connect 11 0 13 0;
#X connect 11 1 10 1;
#X connect 12 0 9 0;
#X connect 13 0 10 0;
#X connect 14 0 20 0;
#X connect 16 0 7 1;
#X connect 17 0 15 0;
#X connect 18 0 19 0;
#X connect 19 0 15 0;
#X connect 20 0 22 0;
#X connect 20 1 21 0;
#X connect 21 0 5 1;
#X connect 21 1 0 0;
#X connect 22 0 23 0;
#X connect 22 1 11 0;
#X connect 23 0 12 0;
#X connect 24 0 25 0;
#X connect 24 1 26 0;
#X connect 24 2 18 0;
#X restore 116 124 pd control;
#X obj 44 57 inlet;
#X obj 44 79 route set;
#N canvas 500 225 512 417 translate-durations 0;
#X obj 185 250 expr size("$s1");
#X obj 158 315 route symbol;
#X obj 158 66 symbol \$2;
#X obj 158 43 unpack s f;
#X obj 281 287 t b f;
#X obj 294 111 moses 1;
#X obj 191 111 list fromsymbol;
#X obj 158 85 t a a;
#X msg 191 149 0;
#X obj 248 149 t b;
#X msg 248 168 1;
#X obj 158 210 spigot;
#X obj 191 130 route bang;
#X obj 158 22 inlet;
#X obj 259 315 / 44.1;
#X obj 259 336 * 1000;
#X obj 158 230 t a a;
#X obj 259 359 outlet duration;
#X obj 158 359 outlet;
#X msg 158 336 all set \$1;
#X obj 71 22 r \$0-loadbang;
#X connect 0 0 14 0;
#X connect 1 0 19 0;
#X connect 2 0 7 0;
#X connect 3 0 2 0;
#X connect 3 1 5 0;
#X connect 4 0 14 0;
#X connect 4 1 14 1;
#X connect 5 1 4 0;
#X connect 6 0 12 0;
#X connect 7 0 11 0;
#X connect 7 1 6 0;
#X connect 8 0 11 1;
#X connect 9 0 10 0;
#X connect 10 0 11 1;
#X connect 11 0 16 0;
#X connect 12 0 8 0;
#X connect 12 1 9 0;
#X connect 13 0 3 0;
#X connect 14 0 15 0;
#X connect 15 0 17 0;
#X connect 16 0 1 0;
#X connect 16 1 0 0;
#X connect 19 0 18 0;
#X connect 20 0 2 0;
#X restore 44 101 pd translate-durations;
#X text 181 33 messages : set (arrayname \, arraysr) \, 1 (play) \,
0 (stop) \, beg (norm) \, len (norm) \, speed \, rspeed \, pitch \,
rpitch \, fadi \, fado \, rvs \, rrvs \, chord;
#N canvas 0 25 450 300 all-instances-loaded 0;
#X obj 75 51 inlet;
#X obj 75 111 f;
#X obj 100 111 + 1;
#X obj 75 81 t b;
#X obj 100 221 outlet;
#X obj 100 194 sel 1;
#X obj 116 51 loadbang;
#X obj 100 166 expr $f1 == (\$1 * 2 + 1);
#X connect 0 0 3 0;
#X connect 1 0 2 0;
#X connect 2 0 1 1;
#X connect 2 0 7 0;
#X connect 3 0 1 0;
#X connect 5 0 4 0;
#X connect 6 0 3 0;
#X connect 7 0 5 0;
#X restore 71 334 pd all-instances-loaded;
#X obj 71 353 s \$0-loadbang;
#X obj 116 260 clone guzi-unit~ \$1 \$0 \$2;
#X obj 135 282 clone gpan-unit~ \$1 \$0;
#X obj 199 308 outlet~;
#X obj 264 308 outlet~;
#X obj 44 146 s \$0-to-guzi-unit;
#X connect 0 0 7 0;
#X connect 1 0 2 0;
#X connect 2 0 3 0;
#X connect 2 1 0 0;
#X connect 3 0 7 0;
#X connect 3 1 0 1;
#X connect 5 0 6 0;
#X connect 7 0 5 0;
#X connect 8 0 5 0;
#X connect 8 1 9 0;
#X connect 8 2 10 0;
