#N canvas 0 23 920 596 10;
#X obj 67 114 jl/gbend~;
#X obj 67 304 jl/sidechain~;
#X obj 67 335 jl/flatten~;
#X obj 493 316 jl/map, f 8;
#X obj 493 83 jl/magnetize;
#X obj 67 403 jl/split~;
#X obj 67 434 jl/merge~;
#X obj 67 465 jl/lr2ms~;
#X obj 67 496 jl/ms2lr~;
#X obj 67 83 jl/feedfm~;
#X obj 493 145 jl/mtosf;
#X obj 493 211 jl/rmetro;
#X text 158 83 FM synthesis unit;
#X text 158 112 pitch bendable sample player;
#X text 158 144 synchronous granular synthesizer;
#X text 158 241 synchronous granular delay;
#X text 158 273 stutter effect;
#X text 158 303 sidechain unit for dynamic range compression;
#X text 158 334 sidechain unit with external threshold input;
#X text 578 316 interval mapper;
#X text 158 433 equal gain mixer;
#X text 158 403 equal gain splitter (aka panner);
#X text 578 145 compute speed rate from relative semitone value;
#X obj 67 273 jl/stut~;
#X obj 493 114 jl/tonnetz;
#X obj 493 242 jl/pulse;
#X text 64 59 audio generators;
#X text 64 187 audio effects;
#X obj 67 211 jl/bibi~;
#X text 158 210 biquad filter with intuitive parameters;
#X text 64 379 audio utilities;
#X obj 493 347 jl/envgen, f 12;
#X obj 493 378 jl/keynote;
#X obj 456 33 bng 15 250 50 0 empty empty empty 17 7 0 10 -262144 -1
-1;
#X obj 456 528 bng 15 250 50 0 empty empty empty 17 7 0 10 -262144
-1 -1;
#X text 578 378 turn a computer keyboard key into a MIDI key;
#X text 489 59 tonal utilities;
#X text 489 187 rythm generators;
#X text 578 83 pattern / scale mapper;
#X text 578 114 tonnetz navigator / scale generator;
#X text 489 292 other control utilities;
#X text 719 527 joseph larralde \, 2019;
#X text 578 211 [metro] wrapped with randomization parameters;
#X text 578 242 alternative to [metro] acting like an oscillator;
#X text 158 465 stereo to MS encoder;
#X text 159 496 MS to stereo decoder;
#X text 578 347 envelope messages generator for [line(~)] objects;
#X obj 493 409 jl/keyboard;
#X text 578 409 turn a computer keyboard into a MIDI keyboard;
#X obj 67 145 jl/gflow~ 1;
#X obj 67 242 jl/gdelay~ 1;
#X connect 33 0 34 0;
