#N canvas 79 230 450 300 10;
#X obj 178 101 jl.!- 1;
#X obj 181 80 hsl 128 15 0 1 0 0 empty empty empty -2 -8 0 10 -262144
-1 -1 0 0;
#X floatatom 143 80 5 0 0 0 - - -, f 5;
#X obj 181 122 hsl 128 15 0 1 0 0 empty empty empty -2 -8 0 10 -262144
-1 -1 0 0;
#X floatatom 143 122 5 0 0 0 - - -, f 5;
#X connect 0 0 3 0;
#X connect 1 0 0 0;
#X connect 1 0 2 0;
#X connect 3 0 4 0;
