#N canvas 477 45 753 701 10;
#X obj 235 370 delay;
#X msg 235 187 stop;
#X obj 118 111 sel 1 0;
#X obj 118 348 float;
#X obj 118 283 t b b;
#X obj 246 442 float;
#X obj 170 151 t b b;
#X obj 368 375 float;
#X obj 246 604 line;
#X obj 246 630 outlet;
#X obj 246 570 t l;
#X obj 394 417 pack f f;
#X obj 246 463 pack f f;
#X obj 118 373 pack f f;
#X obj 250 310 t f f;
#X obj 358 143 f \$1;
#X obj 398 143 f \$2;
#X obj 439 143 f \$3;
#X obj 493 143 f \$4;
#X obj 533 143 f \$5;
#X obj 573 143 f \$6;
#X obj 462 96 loadbang;
#X obj 118 64 inlet onoff;
#X obj 239 63 inlet attack;
#X obj 318 63 inlet decay;
#X obj 391 63 inlet release;
#X obj 493 63 inlet rest;
#X obj 560 63 inlet peak;
#X obj 627 63 inlet sustain;
#X connect 0 0 5 0;
#X connect 1 0 0 0;
#X connect 2 0 4 0;
#X connect 2 1 6 0;
#X connect 3 0 13 0;
#X connect 4 0 3 0;
#X connect 4 1 0 0;
#X connect 5 0 12 0;
#X connect 6 0 7 0;
#X connect 6 1 1 0;
#X connect 7 0 11 0;
#X connect 8 0 9 0;
#X connect 10 0 8 0;
#X connect 11 0 10 0;
#X connect 12 0 10 0;
#X connect 13 0 10 0;
#X connect 14 0 13 1;
#X connect 14 1 0 1;
#X connect 15 0 14 0;
#X connect 16 0 12 1;
#X connect 17 0 11 1;
#X connect 18 0 7 1;
#X connect 19 0 3 1;
#X connect 20 0 5 1;
#X connect 21 0 20 0;
#X connect 21 0 19 0;
#X connect 21 0 18 0;
#X connect 21 0 17 0;
#X connect 21 0 16 0;
#X connect 21 0 15 0;
#X connect 22 0 2 0;
#X connect 23 0 15 0;
#X connect 24 0 16 0;
#X connect 25 0 17 0;
#X connect 26 0 18 0;
#X connect 27 0 19 0;
#X connect 28 0 20 0;
