#N canvas 434 196 643 492 10;
#X obj 88 139 *~;
#X obj 213 138 *~;
#X obj 179 220 osc~;
#X obj 249 193 *~;
#X obj 234 271 *~;
#X obj 150 358 +~;
#X obj 150 379 osc~;
#X obj 107 432 outlet~;
#X obj 247 426 *~;
#X obj 124 34 inlet~;
#X obj 228 34 inlet~;
#X obj 278 34 inlet~;
#X obj 559 160 inlet~;
#X obj 61 34 inlet~;
#X obj 179 193 +~;
#X obj 346 36 inlet~;
#X text 127 50 c ratio;
#X text 222 50 m ratio;
#X text 347 52 fix m +;
#X text 280 50 m index;
#X text 560 180 feedback;
#X text 76 50 freq;
#X obj 249 219 +~;
#X obj 404 36 inlet~;
#X text 405 52 fix amp +;
#X obj 247 447 delwrite~ \$0-del 1;
#X obj 346 223 delread~ \$0-del 1;
#X obj 299 270 *~;
#X obj 323 148 osc~;
#X obj 260 302 +~;
#X connect 0 0 5 0;
#X connect 1 0 14 0;
#X connect 1 0 3 0;
#X connect 2 0 4 0;
#X connect 3 0 22 0;
#X connect 4 0 29 0;
#X connect 5 0 6 0;
#X connect 6 0 7 0;
#X connect 6 0 8 0;
#X connect 8 0 25 0;
#X connect 9 0 0 1;
#X connect 10 0 1 1;
#X connect 11 0 3 1;
#X connect 12 0 8 1;
#X connect 13 0 0 0;
#X connect 13 0 1 0;
#X connect 14 0 2 0;
#X connect 15 0 28 0;
#X connect 22 0 4 1;
#X connect 23 0 27 1;
#X connect 26 0 4 0;
#X connect 26 0 27 0;
#X connect 27 0 29 1;
#X connect 28 0 27 0;
#X connect 29 0 5 1;
