#N canvas 658 106 510 568 10;
#X obj 47 211 metro 100;
#X obj 150 329 *;
#X obj 103 379 +;
#X obj 47 41 inlet;
#X obj 199 40 inlet;
#X obj 162 40 inlet;
#X obj 162 142 f \$1;
#X obj 199 142 f \$2;
#X obj 234 482 outlet;
#X obj 291 65 loadbang;
#X obj 303 482 outlet;
#X obj 64 284 pow 1;
#X obj 236 40 inlet;
#X obj 236 142 f \$3;
#X obj 236 163 sel 0;
#X obj 322 342 f;
#X obj 47 232 random 100000;
#X obj 47 253 / 100000;
#X obj 289 308 t f b f b f;
#X obj 370 483 outlet;
#X connect 0 0 16 0;
#X connect 1 0 2 0;
#X connect 2 0 18 0;
#X connect 3 0 0 0;
#X connect 4 0 7 0;
#X connect 5 0 6 0;
#X connect 6 0 2 1;
#X connect 7 0 1 1;
#X connect 9 0 6 0;
#X connect 9 0 7 0;
#X connect 9 0 13 0;
#X connect 11 0 1 0;
#X connect 12 0 13 0;
#X connect 13 0 14 0;
#X connect 14 1 11 1;
#X connect 15 0 10 0;
#X connect 16 0 17 0;
#X connect 17 0 11 0;
#X connect 18 0 0 1;
#X connect 18 1 8 0;
#X connect 18 2 15 1;
#X connect 18 3 15 0;
#X connect 18 4 19 0;
