#N canvas 418 78 819 637 10;
#X obj 82 74 inlet;
#X obj 202 74 inlet min_in;
#X obj 282 74 inlet max_in;
#X obj 385 74 inlet min_out;
#X obj 471 74 inlet max_out;
#X obj 202 112 f \$1;
#X obj 238 166 -;
#X obj 428 182 -;
#X obj 202 133 t b f;
#X obj 385 133 t b f;
#X obj 327 251 / 1;
#X obj 238 186 sel 0;
#X obj 153 391 *;
#X obj 327 272 t f f;
#X obj 170 361 t b f;
#X obj 171 571 outlet;
#X obj 282 133 t f f;
#X obj 471 133 t f f;
#X obj 265 207 t b b f;
#X msg 265 239 1, f 2;
#X msg 238 239 0, f 2;
#X obj 403 379 -;
#X obj 373 317 *;
#X text 446 350 < calcul de la valeur au point 0 (coeff b) b = y -
ax;
#X text 369 242 < calcul de la pente (coeff a) a = (y2 - y1) / (x2
- x1);
#X obj 373 338 t b f;
#X obj 299 469 +;
#X obj 311 445 t b f;
#X obj 171 549 spigot;
#X obj 282 112 f \$2;
#X obj 385 112 f \$3;
#X obj 471 112 f \$4;
#X obj 361 37 loadbang;
#X connect 0 0 12 0;
#X connect 1 0 5 0;
#X connect 2 0 29 0;
#X connect 3 0 30 0;
#X connect 4 0 31 0;
#X connect 5 0 8 0;
#X connect 6 0 11 0;
#X connect 7 0 10 0;
#X connect 8 0 6 0;
#X connect 8 1 6 1;
#X connect 9 0 7 0;
#X connect 9 1 7 1;
#X connect 10 0 13 0;
#X connect 11 0 20 0;
#X connect 11 1 18 0;
#X connect 12 0 26 0;
#X connect 13 0 14 0;
#X connect 13 1 22 0;
#X connect 14 0 12 0;
#X connect 14 1 12 1;
#X connect 16 0 6 0;
#X connect 16 1 22 1;
#X connect 17 0 7 0;
#X connect 17 1 21 0;
#X connect 18 0 19 0;
#X connect 18 1 10 0;
#X connect 18 2 10 1;
#X connect 19 0 28 1;
#X connect 20 0 28 1;
#X connect 21 0 27 0;
#X connect 22 0 25 0;
#X connect 25 0 21 0;
#X connect 25 1 21 1;
#X connect 26 0 28 0;
#X connect 27 0 26 0;
#X connect 27 1 26 1;
#X connect 28 0 15 0;
#X connect 29 0 16 0;
#X connect 30 0 9 0;
#X connect 31 0 17 0;
#X connect 32 0 5 0;
#X connect 32 0 29 0;
#X connect 32 0 30 0;
#X connect 32 0 31 0;
