#N canvas 0 23 1164 697 10;
#X obj 603 554 unpack f f;
#X obj 660 576 != 0;
#X obj 603 601 spigot;
#X obj 540 530 spigot;
#X obj 603 530 spigot;
#X obj 603 637 outlet;
#X obj 245 243 t a;
#X text 173 140 S;
#X text 284 140 D;
#X text 377 139 F;
#X text 492 139 G;
#X text 603 139 H;
#X text 688 140 J;
#X text 809 140 K;
#X text 908 138 L;
#X text 236 79 E;
#X text 418 78 T;
#X text 533 78 Y;
#X text 644 78 U;
#X text 835 78 O;
#X text 957 77 P;
#X obj 489 276 t a;
#X obj 805 243 t a;
#X obj 604 451 loadbang;
#X obj 604 503 == 0;
#X obj 636 503 != 0;
#X obj 518 389 unpack f f;
#X obj 518 431 pack f f;
#X obj 518 353 t l;
#X obj 518 452 t l l;
#X text 64 140 A / Q;
#X text 121 80 W / Z;
#X obj 880 348 loadbang;
#X obj 880 389 sel 0 1;
#X msg 899 409 113 122 109;
#X msg 880 429 97 119 59;
#X obj 880 455 s \$0-varying-keys;
#X obj 33 23 r \$0-varying-keys;
#X obj 33 63 unpack f f;
#X msg 33 43 \$1 \$2;
#X obj 1028 182 r \$0-varying-keys;
#X msg 1028 201 \$3;
#X obj 755 358 inlet;
#X text 717 553 \$1 : note offset (default 0);
#X text 719 614 \$4 : filter noteoffs if != 0 (default 0);
#X obj 518 410 + \$1;
#X obj 575 410 *;
#X obj 695 339 loadbang;
#X obj 695 380 sel 0;
#X msg 695 400 127;
#X obj 722 431 t f;
#X obj 561 360 inlet;
#X obj 834 354 inlet;
#X obj 695 360 f \$2;
#X obj 604 472 f \$4;
#X obj 880 369 f \$3;
#X obj 90 98 jl/keynote 119 1;
#X obj 192 98 jl/keynote 101 3;
#X obj 33 158 jl/keynote 97 0;
#X obj 129 158 jl/keynote 115 2;
#X obj 231 158 jl/keynote 100 4;
#X obj 333 158 jl/keynote 102 5;
#X obj 387 96 jl/keynote 116 6;
#X obj 435 158 jl/keynote 103 7;
#X obj 489 96 jl/keynote 121 8;
#X obj 591 96 jl/keynote 117 10;
#X obj 537 158 jl/keynote 104 9;
#X obj 639 158 jl/keynote 106 11;
#X obj 747 158 jl/keynote 107 12;
#X obj 805 96 jl/keynote 111 13;
#X obj 855 158 jl/keynote 108 14;
#X obj 913 96 jl/keynote 112 15;
#X obj 963 158 jl/keynote 59 16;
#X text 717 574 \$2 : global velocity value (default 127);
#X text 718 594 \$3 : qwerty / azerty mode (0 / 1) (default 0);
#X text 995 138 \;;
#X text 1007 138 / M;
#X connect 0 0 2 0;
#X connect 0 1 1 0;
#X connect 1 0 2 1;
#X connect 2 0 5 0;
#X connect 3 0 5 0;
#X connect 4 0 0 0;
#X connect 6 0 28 0;
#X connect 21 0 28 0;
#X connect 22 0 28 0;
#X connect 23 0 54 0;
#X connect 24 0 3 1;
#X connect 25 0 4 1;
#X connect 26 0 45 0;
#X connect 26 1 46 0;
#X connect 27 0 29 0;
#X connect 28 0 26 0;
#X connect 29 0 3 0;
#X connect 29 1 4 0;
#X connect 32 0 55 0;
#X connect 33 0 35 0;
#X connect 33 1 34 0;
#X connect 34 0 36 0;
#X connect 35 0 36 0;
#X connect 37 0 39 0;
#X connect 38 0 58 0;
#X connect 38 1 56 0;
#X connect 39 0 38 0;
#X connect 40 0 41 0;
#X connect 41 0 72 0;
#X connect 42 0 50 0;
#X connect 45 0 27 0;
#X connect 46 0 27 1;
#X connect 47 0 53 0;
#X connect 48 0 49 0;
#X connect 48 1 50 0;
#X connect 49 0 50 0;
#X connect 50 0 46 1;
#X connect 51 0 45 1;
#X connect 52 0 33 0;
#X connect 53 0 48 0;
#X connect 54 0 24 0;
#X connect 54 0 25 0;
#X connect 55 0 33 0;
#X connect 56 0 6 0;
#X connect 57 0 6 0;
#X connect 58 0 6 0;
#X connect 59 0 6 0;
#X connect 60 0 6 0;
#X connect 61 0 21 0;
#X connect 62 0 21 0;
#X connect 63 0 21 0;
#X connect 64 0 21 0;
#X connect 65 0 21 0;
#X connect 66 0 21 0;
#X connect 67 0 21 0;
#X connect 68 0 22 0;
#X connect 69 0 22 0;
#X connect 70 0 22 0;
#X connect 71 0 22 0;
#X connect 72 0 22 0;
