#N canvas 0 23 486 409 10;
#X obj 94 54 key;
#X obj 167 54 keyup;
#X obj 107 172 f;
#X obj 237 28 loadbang;
#X obj 237 87 sel 0;
#X msg 255 116 1;
#X msg 167 172 0;
#X obj 167 358 outlet;
#X obj 94 107 sel \$1;
#X obj 167 107 sel \$1;
#X obj 237 66 f \$3;
#X obj 167 295 f \$2;
#X obj 167 251 t b f;
#X obj 167 316 pack f f;
#X obj 336 28 inlet;
#X obj 373 28 inlet;
#X obj 127 80 t f f;
#X obj 127 28 inlet;
#X connect 0 0 8 0;
#X connect 1 0 9 0;
#X connect 2 0 12 0;
#X connect 3 0 10 0;
#X connect 4 0 5 0;
#X connect 4 1 2 1;
#X connect 5 0 2 1;
#X connect 6 0 12 0;
#X connect 8 0 2 0;
#X connect 9 0 6 0;
#X connect 10 0 4 0;
#X connect 11 0 13 0;
#X connect 12 0 11 0;
#X connect 12 1 13 1;
#X connect 13 0 7 0;
#X connect 14 0 11 1;
#X connect 15 0 10 0;
#X connect 16 0 8 1;
#X connect 16 1 9 1;
#X connect 17 0 16 0;
