#N canvas 327 126 994 635 10;
#X obj 133 538 outlet~;
#X obj 133 511 jl/merge~;
#X obj 487 568 s \$0-envelope;
#X obj 559 550 s \$0-first;
#X obj 638 550 s \$0-factor;
#X obj 134 20 inlet~;
#X obj 295 410 hsl 128 15 0 1 0 0 empty empty empty -2 -8 0 10 #fcfcfc
#000000 #000000 0 0;
#X floatatom 488 510 5 0 0 0 - - - 0;
#X floatatom 562 507 5 0 0 0 - - - 0;
#X floatatom 648 521 5 0 0 0 - - - 0;
#X obj 574 461 bng 15 250 50 0 empty empty empty 17 7 0 10 #fcfcfc
#000000 #000000;
#X obj 292 365 loadbang;
#X msg 292 389 0.5;
#X obj 548 361 loadbang;
#X msg 503 454 1;
#X msg 547 454 100;
#X msg 615 455 1.2;
#X obj 502 429 delay 100;
#X obj 548 384 t b b b b;
#X obj 683 183 s \$0-width;
#X obj 751 183 s \$0-pan-curve;
#X obj 843 183 s \$0-voices;
#X floatatom 840 121 5 0 0 0 - - - 0;
#X obj 613 147 hsl 128 15 0 1 0 0 empty empty empty -2 -8 0 10 #fcfcfc
#000000 #000000 0 0;
#X obj 688 129 hsl 128 15 0 1 0 0 empty empty empty -2 -8 0 10 #fcfcfc
#000000 #000000 0 0;
#X obj 762 95 hsl 128 15 0 1 0 0 empty empty empty -2 -8 0 10 #fcfcfc
#000000 #000000 0 0;
#X obj 726 60 bng 15 250 50 0 empty empty empty 17 7 0 10 #fcfcfc #000000
#000000;
#X msg 575 136 0.5;
#X obj 133 240 jl/split~;
#X obj 660 258 r \$0-voices;
#X msg 660 280 points \$1;
#X obj 734 354 s \$0-pan;
#X msg 734 280 center \$1;
#X obj 808 258 r \$0-width;
#X msg 808 280 width \$1;
#X obj 876 258 r \$0-pan-curve;
#X msg 876 280 env \$1;
#X obj 197 511 jl/merge~;
#X obj 197 538 outlet~;
#X obj 133 460 *~ 1;
#X obj 589 185 s \$0-center;
#X obj 734 258 r \$0-center;
#X obj 200 20 inlet;
#X obj 389 87 route amplitude width;
#X obj 200 41 route drywet voices firstdelay factor pan width envelope
, f 31;
#X obj 200 87 f;
#X obj 252 87 f;
#X obj 278 87 f;
#X obj 304 87 f;
#X obj 330 87 f;
#X msg 184 127 \$1 5;
#X obj 184 147 line~;
#N canvas 159 140 355 418 zigzag 0;
#N canvas 633 191 568 570 repanning 0;
#X obj 355 358 % 2;
#X obj 278 61 clip 0 1;
#X obj 358 61 clip 0 1;
#X obj 432 61 clip 0 1;
#X obj 149 268 /;
#X obj 149 185 t f f;
#X obj 208 414 *;
#X obj 149 335 jl/map 0 1 0 1;
#N canvas 150 175 394 320 bounds 0;
#X obj 98 73 moses 0.5;
#X obj 71 119 * 2;
#X obj 71 140 t f b;
#X msg 106 163 1;
#X obj 98 41 inlet;
#X obj 108 250 outlet;
#X obj 155 250 outlet;
#X msg 174 150 1;
#X obj 194 127 t b f;
#X obj 194 104 expr 1 - ($f1 - 0.5) * 2;
#X connect 0 0 1 0;
#X connect 0 1 9 0;
#X connect 1 0 2 0;
#X connect 2 0 5 0;
#X connect 2 1 3 0;
#X connect 3 0 6 0;
#X connect 4 0 0 0;
#X connect 7 0 5 0;
#X connect 8 0 7 0;
#X connect 8 1 6 0;
#X connect 9 0 8 0;
#X restore 198 304 pd bounds;
#X obj 208 437 jl/map 0 1 0.5 0;
#X obj 102 149 t f f;
#X obj 102 481 pack f f;
#X obj 102 507 outlet;
#X obj 197 83 t f f;
#N canvas 423 380 194 269 uzi 0;
#X obj 78 137 until;
#X obj 78 170 f;
#X obj 106 170 + 1;
#X msg 119 137 0;
#X obj 78 90 t f b;
#X obj 78 58 inlet;
#X obj 78 206 outlet;
#X connect 0 0 1 0;
#X connect 1 0 2 0;
#X connect 1 0 6 0;
#X connect 2 0 1 1;
#X connect 3 0 1 1;
#X connect 4 0 0 0;
#X connect 4 1 3 0;
#X connect 5 0 4 0;
#X restore 102 124 pd uzi;
#X obj 355 336 +;
#X text 381 337 add 1 to invert peaks;
#X text 141 149 point index (starting from 0);
#X obj 149 207 + 0;
#X obj 180 233 - 1;
#X obj 197 61 max 2;
#X obj 197 39 inlet points;
#X obj 278 39 inlet center;
#X obj 358 39 inlet width;
#X obj 432 39 inlet env;
#X connect 0 0 9 4;
#X connect 1 0 9 3;
#X connect 2 0 6 1;
#X connect 3 0 8 0;
#X connect 4 0 7 0;
#X connect 5 0 18 0;
#X connect 5 1 15 0;
#X connect 6 0 9 0;
#X connect 7 0 6 0;
#X connect 8 0 7 3;
#X connect 8 1 7 4;
#X connect 9 0 11 1;
#X connect 10 0 11 0;
#X connect 10 1 5 0;
#X connect 11 0 12 0;
#X connect 13 0 14 0;
#X connect 13 1 19 0;
#X connect 14 0 10 0;
#X connect 15 0 0 0;
#X connect 18 0 4 0;
#X connect 19 0 4 1;
#X connect 20 0 13 0;
#X connect 21 0 20 0;
#X connect 22 0 1 0;
#X connect 23 0 2 0;
#X connect 24 0 3 0;
#X restore 135 253 pd repanning;
#X obj 94 194 f;
#X obj 136 137 t b f;
#X obj 179 137 t b f;
#X obj 222 137 t b f;
#X obj 153 361 outlet;
#X obj 80 26 inlet;
#X obj 94 112 route points center width env;
#X connect 0 0 5 0;
#X connect 1 0 0 0;
#X connect 2 0 1 0;
#X connect 2 1 0 1;
#X connect 3 0 1 0;
#X connect 3 1 0 2;
#X connect 4 0 1 0;
#X connect 4 1 0 3;
#X connect 6 0 7 0;
#X connect 7 0 1 0;
#X connect 7 1 2 0;
#X connect 7 2 3 0;
#X connect 7 3 4 0;
#X restore 734 323 pd zigzag;
#X obj 226 147 s \$0-voices;
#X obj 255 127 s \$0-first;
#X obj 278 107 s \$0-factor;
#X obj 312 147 s \$0-center;
#X obj 338 127 s \$0-width;
#X obj 389 107 f;
#X obj 450 107 f;
#X obj 389 147 s \$0-envelope;
#X obj 450 127 s \$0-pan-curve;
#X obj 166 298 clone jl/logdelay-unit~ \$1 \$0 \$0-del, f 18;
#X obj 222 107 f \$1;
#N canvas 0 25 450 300 all-instances-loaded 0;
#X obj 75 51 inlet;
#X obj 75 111 f;
#X obj 100 111 + 1;
#X obj 75 81 t b;
#X obj 100 221 outlet;
#X obj 100 194 sel 1;
#X obj 116 51 loadbang;
#X obj 100 166 expr $f1 == \$1 + 1;
#X connect 0 0 3 0;
#X connect 1 0 2 0;
#X connect 2 0 1 1;
#X connect 2 0 7 0;
#X connect 3 0 1 0;
#X connect 5 0 4 0;
#X connect 6 0 3 0;
#X connect 7 0 5 0;
#X restore 166 341 pd all-instances-loaded;
#X obj 166 362 s \$0-loadbang;
#X obj 236 185 r \$0-loadbang;
#X msg 425 38 1;
#X msg 262 8 100;
#X msg 291 8 1.2;
#X msg 320 8 0.5;
#X msg 349 8 0;
#X msg 459 38 0.25;
#X obj 184 268 delwrite~ \$0-del \$2;
#X connect 1 0 0 0;
#X connect 5 0 28 0;
#X connect 6 0 1 2;
#X connect 6 0 37 2;
#X connect 7 0 2 0;
#X connect 8 0 3 0;
#X connect 9 0 4 0;
#X connect 10 0 7 0;
#X connect 10 0 8 0;
#X connect 10 0 9 0;
#X connect 11 0 12 0;
#X connect 12 0 6 0;
#X connect 13 0 18 0;
#X connect 14 0 7 0;
#X connect 15 0 8 0;
#X connect 16 0 9 0;
#X connect 17 0 14 0;
#X connect 18 0 14 0;
#X connect 18 1 15 0;
#X connect 18 2 16 0;
#X connect 22 0 21 0;
#X connect 23 0 40 0;
#X connect 24 0 19 0;
#X connect 25 0 20 0;
#X connect 26 0 22 0;
#X connect 26 0 25 0;
#X connect 26 0 24 0;
#X connect 26 0 23 0;
#X connect 27 0 23 0;
#X connect 28 0 39 0;
#X connect 28 1 73 0;
#X connect 29 0 30 0;
#X connect 30 0 52 0;
#X connect 32 0 52 0;
#X connect 33 0 34 0;
#X connect 34 0 52 0;
#X connect 35 0 36 0;
#X connect 36 0 52 0;
#X connect 37 0 38 0;
#X connect 39 0 1 0;
#X connect 39 0 37 0;
#X connect 41 0 32 0;
#X connect 42 0 44 0;
#X connect 43 0 58 0;
#X connect 43 1 59 0;
#X connect 44 0 45 0;
#X connect 44 1 63 0;
#X connect 44 2 46 0;
#X connect 44 3 47 0;
#X connect 44 4 48 0;
#X connect 44 5 49 0;
#X connect 44 6 43 0;
#X connect 45 0 50 0;
#X connect 46 0 54 0;
#X connect 47 0 55 0;
#X connect 48 0 56 0;
#X connect 49 0 57 0;
#X connect 50 0 51 0;
#X connect 51 0 28 1;
#X connect 52 0 31 0;
#X connect 58 0 60 0;
#X connect 59 0 61 0;
#X connect 62 0 64 0;
#X connect 62 1 1 1;
#X connect 62 2 37 1;
#X connect 63 0 53 0;
#X connect 64 0 65 0;
#X connect 66 0 45 0;
#X connect 66 0 63 0;
#X connect 66 0 46 0;
#X connect 66 0 47 0;
#X connect 66 0 48 0;
#X connect 66 0 49 0;
#X connect 66 0 58 0;
#X connect 66 0 59 0;
#X connect 67 0 58 0;
#X connect 68 0 46 0;
#X connect 69 0 47 0;
#X connect 70 0 48 0;
#X connect 71 0 49 0;
#X connect 72 0 59 0;
