#N canvas 568 50 688 798 10;
#X obj 297 639 *~;
#X obj 409 60 r \$2-first;
#X obj 403 515 delread4~ \$3;
#X obj 43 35 r \$2-envelope;
#X obj 221 731 outlet;
#X obj 221 700 loadbang;
#X obj 487 60 r \$2-factor;
#X obj 403 491 line~;
#X msg 403 467 \$1 10;
#X obj 230 575 line~;
#X msg 230 551 \$1 10;
#X obj 43 94 clip -1 1;
#X obj 452 203 until;
#X obj 452 159 f \$1;
#X obj 512 235 f;
#X obj 409 83 t b f;
#X obj 547 235 *;
#X obj 472 359 f;
#X floatatom 479 389 5 0 0 0 - - - 0;
#X obj 527 209 f;
#X obj 452 181 + 1;
#X obj 487 83 t b b f;
#X obj 43 121 moses 0;
#X obj 43 144 abs;
#X obj 66 202 bng 15 250 50 0 empty empty empty 17 7 0 10 #fcfcfc #000000
#000000;
#X floatatom 135 261 5 0 0 0 - - - 0;
#X floatatom 176 261 5 0 0 0 - - - 0;
#X obj 135 284 expr 1 - $f1;
#X obj 43 272 f;
#X obj 66 335 f;
#X obj 43 363 jl/map 0 1 0 1;
#X obj 43 167 t b b f;
#X obj 102 167 t b b f;
#X obj 66 387 jl/map 0 1 1 0;
#X obj 176 308 expr 1 - $f1;
#X obj 65 421 jl/map 0 1 0 1;
#X obj 541 296 +;
#X obj 512 296 f;
#X obj 512 259 t b f;
#X msg 614 196 0;
#X obj 408 111 t b b b;
#N canvas 548 214 344 362 normalized-voice-nb 0;
#X obj 204 134 swap 1;
#X obj 204 158 /;
#X obj 130 129 \$1;
#X obj 136 221 *;
#X floatatom 147 42 5 0 0 0 - - - 0;
#X floatatom 193 42 5 0 0 0 - - - 0;
#X obj 130 152 + 0;
#X floatatom 170 246 5 0 0 0 - - - 0;
#X obj 204 110 - 1;
#X obj 104 13 inlet;
#X obj 104 70 bng 15 250 50 0 empty empty empty 17 7 0 10 #fcfcfc #000000
#000000;
#X obj 127 273 outlet;
#X obj 228 15 inlet voices;
#X connect 0 0 1 0;
#X connect 0 1 1 1;
#X connect 1 0 3 1;
#X connect 2 0 6 0;
#X connect 3 0 7 0;
#X connect 3 0 11 0;
#X connect 4 0 2 1;
#X connect 5 0 8 0;
#X connect 6 0 3 0;
#X connect 8 0 0 0;
#X connect 9 0 10 0;
#X connect 10 0 2 0;
#X connect 12 0 8 0;
#X restore 66 230 pd normalized-voice-nb;
#X obj 147 35 r \$2-voices;
#X obj 248 466 - 1;
#X obj 277 466 \$1;
#X obj 248 497 >=;
#X obj 230 526 *;
#X obj 277 442 loadbang;
#X obj 147 60 t b f;
#X obj 276 185 t f f;
#X obj 363 699 throw~ \$2-logdel;
#X obj 297 699 jl/split~;
#X obj 297 730 outlet~;
#X obj 348 730 outlet~;
#X obj 378 619 route \$1;
#X obj 378 597 r \$2-pan;
#X msg 378 640 \$1 10;
#X obj 378 660 line~;
#X connect 0 0 50 0;
#X connect 0 0 51 0;
#X connect 1 0 15 0;
#X connect 2 0 0 1;
#X connect 3 0 11 0;
#X connect 5 0 4 0;
#X connect 6 0 21 0;
#X connect 7 0 2 0;
#X connect 8 0 7 0;
#X connect 9 0 0 0;
#X connect 10 0 9 0;
#X connect 11 0 22 0;
#X connect 12 0 14 0;
#X connect 13 0 20 0;
#X connect 14 0 16 0;
#X connect 14 0 38 0;
#X connect 15 0 40 0;
#X connect 15 1 19 0;
#X connect 16 0 14 1;
#X connect 17 0 18 0;
#X connect 17 0 8 0;
#X connect 19 0 14 1;
#X connect 20 0 12 0;
#X connect 21 0 40 0;
#X connect 21 1 19 0;
#X connect 21 2 16 1;
#X connect 22 0 23 0;
#X connect 22 1 32 0;
#X connect 23 0 31 0;
#X connect 24 0 41 0;
#X connect 25 0 27 0;
#X connect 26 0 34 0;
#X connect 27 0 30 3;
#X connect 28 0 30 0;
#X connect 29 0 33 0;
#X connect 30 0 35 0;
#X connect 31 0 28 0;
#X connect 31 1 24 0;
#X connect 31 2 25 0;
#X connect 32 0 29 0;
#X connect 32 1 24 0;
#X connect 32 2 26 0;
#X connect 33 0 35 0;
#X connect 34 0 33 4;
#X connect 35 0 46 0;
#X connect 36 0 37 1;
#X connect 36 0 17 1;
#X connect 37 0 36 0;
#X connect 38 0 37 0;
#X connect 38 1 36 1;
#X connect 39 0 37 1;
#X connect 40 0 17 0;
#X connect 40 1 13 0;
#X connect 40 2 39 0;
#X connect 41 0 28 1;
#X connect 41 0 29 1;
#X connect 42 0 48 0;
#X connect 43 0 45 0;
#X connect 44 0 45 1;
#X connect 45 0 46 1;
#X connect 46 0 10 0;
#X connect 47 0 44 0;
#X connect 48 0 11 0;
#X connect 48 1 49 0;
#X connect 49 0 41 1;
#X connect 49 1 43 0;
#X connect 51 0 52 0;
#X connect 51 1 53 0;
#X connect 54 0 56 0;
#X connect 55 0 54 0;
#X connect 56 0 57 0;
#X connect 57 0 51 1;
