#N canvas 20 23 671 745 12;
#X obj 297 639 *~;
#X obj 409 60 r \$2-first;
#X obj 367 573 delread4~ \$3;
#X obj 43 35 r \$2-envelope;
#X obj 418 672 outlet;
#X obj 418 641 loadbang;
#X obj 487 60 r \$2-factor;
#X obj 367 549 line~;
#X msg 367 525 \$1 10;
#X obj 230 575 line~;
#X msg 230 551 \$1 10;
#X obj 43 94 clip -1 1;
#X floatatom 59 65 5 0 0 0 - - -;
#X obj 454 187 until;
#X obj 454 143 f \$1;
#X obj 512 193 f;
#X obj 409 83 t b f;
#X obj 552 193 *;
#X obj 473 294 f;
#X floatatom 480 324 5 0 0 0 - - -;
#X floatatom 384 33 5 0 0 0 - - -;
#X floatatom 502 33 5 0 0 0 - - -;
#X floatatom 564 105 5 0 0 0 - - -;
#X obj 530 167 f;
#X obj 454 165 + 1;
#X obj 487 83 t b b f;
#X obj 43 121 moses 0;
#X obj 43 144 abs;
#X obj 66 202 bng 15 250 50 0 empty empty empty 17 7 0 10 -262144 -1
-1;
#X floatatom 135 261 5 0 0 0 - - -;
#X floatatom 176 261 5 0 0 0 - - -;
#X obj 135 284 expr 1 - $f1;
#X obj 43 272 f;
#X obj 66 335 f;
#X obj 43 363 jl/map 0 1 0 1;
#X obj 43 167 t b b f;
#X obj 102 167 t b b f;
#X obj 66 387 jl/map 0 1 1 0;
#X obj 176 308 expr 1 - $f1;
#X obj 297 672 throw~ \$2-logdel;
#X obj 65 421 jl/map 0 1 0 1;
#X obj 541 254 +;
#X obj 512 254 f;
#X obj 512 217 t b f;
#X msg 477 222 0;
#X obj 408 111 t b b b;
#N canvas 548 214 344 362 normalized-voice-nb 0;
#X obj 204 134 swap 1;
#X obj 204 158 /;
#X obj 130 129 \$1;
#X obj 136 221 *;
#X floatatom 147 42 5 0 0 0 - - -;
#X floatatom 193 42 5 0 0 0 - - -;
#X obj 130 152 + 0;
#X floatatom 170 246 5 0 0 0 - - -;
#X obj 204 110 - 1;
#X obj 104 13 inlet;
#X obj 104 70 bng 15 250 50 0 empty empty empty 17 7 0 10 -262144 -1
-1;
#X obj 127 273 outlet;
#X obj 228 15 inlet voices;
#X connect 0 0 1 0;
#X connect 0 1 1 1;
#X connect 1 0 3 1;
#X connect 2 0 6 0;
#X connect 3 0 7 0;
#X connect 3 0 11 0;
#X connect 4 0 2 1;
#X connect 5 0 8 0;
#X connect 6 0 3 0;
#X connect 8 0 0 0;
#X connect 9 0 10 0;
#X connect 10 0 2 0;
#X connect 12 0 8 0;
#X restore 66 230 pd normalized-voice-nb;
#X obj 147 35 r \$2-voices;
#X obj 248 466 - 1;
#X obj 277 466 \$1;
#X obj 248 497 >=;
#X obj 230 526 *;
#X obj 277 442 loadbang;
#X obj 147 60 t b f;
#X obj 276 185 t f f;
#X connect 0 0 39 0;
#X connect 1 0 16 0;
#X connect 2 0 0 1;
#X connect 3 0 11 0;
#X connect 5 0 4 0;
#X connect 6 0 25 0;
#X connect 7 0 2 0;
#X connect 8 0 7 0;
#X connect 9 0 0 0;
#X connect 10 0 9 0;
#X connect 11 0 26 0;
#X connect 12 0 11 0;
#X connect 13 0 15 0;
#X connect 14 0 24 0;
#X connect 15 0 17 0;
#X connect 15 0 43 0;
#X connect 16 0 45 0;
#X connect 16 1 23 0;
#X connect 17 0 15 1;
#X connect 18 0 19 0;
#X connect 18 0 8 0;
#X connect 20 0 16 0;
#X connect 21 0 25 0;
#X connect 22 0 14 1;
#X connect 23 0 15 1;
#X connect 24 0 13 0;
#X connect 25 0 45 0;
#X connect 25 1 23 0;
#X connect 25 2 17 1;
#X connect 26 0 27 0;
#X connect 26 1 36 0;
#X connect 27 0 35 0;
#X connect 28 0 46 0;
#X connect 29 0 31 0;
#X connect 30 0 38 0;
#X connect 31 0 34 3;
#X connect 32 0 34 0;
#X connect 33 0 37 0;
#X connect 34 0 40 0;
#X connect 35 0 32 0;
#X connect 35 1 28 0;
#X connect 35 2 29 0;
#X connect 36 0 33 0;
#X connect 36 1 28 0;
#X connect 36 2 30 0;
#X connect 37 0 40 0;
#X connect 38 0 37 4;
#X connect 40 0 51 0;
#X connect 41 0 42 1;
#X connect 41 0 18 1;
#X connect 42 0 41 0;
#X connect 43 0 42 0;
#X connect 43 1 41 1;
#X connect 44 0 42 1;
#X connect 45 0 18 0;
#X connect 45 1 14 0;
#X connect 45 2 44 0;
#X connect 46 0 32 1;
#X connect 46 0 33 1;
#X connect 47 0 53 0;
#X connect 48 0 50 0;
#X connect 49 0 50 1;
#X connect 50 0 51 1;
#X connect 51 0 10 0;
#X connect 52 0 49 0;
#X connect 53 0 11 0;
#X connect 53 1 54 0;
#X connect 54 0 46 1;
#X connect 54 1 48 0;
