#N canvas 0 23 415 402 10;
#X obj 106 37 inlet~;
#X obj 172 343 outlet~;
#X obj 222 281 *~;
#X obj 172 281 *~;
#X obj 231 199 expr~ 1 - $v1;
#X obj 231 172 clip~ 0 1;
#X obj 260 37 inlet~;
#X obj 231 228 sqrt~;
#X obj 287 228 sqrt~;
#X obj 150 37 inlet~;
#X connect 0 0 3 0;
#X connect 2 0 1 0;
#X connect 3 0 1 0;
#X connect 4 0 7 0;
#X connect 5 0 4 0;
#X connect 5 0 8 0;
#X connect 6 0 5 0;
#X connect 7 0 3 1;
#X connect 8 0 2 1;
#X connect 9 0 2 0;
