#N canvas 0 23 701 603 10;
#X obj 375 307 timer;
#X obj 177 371 spigot;
#X msg 210 218 1;
#X floatatom 327 91 5 0 0 0 - - -;
#X obj 122 192 t b b;
#X msg 180 218 0;
#X msg 90 246 stop;
#X obj 429 329 f;
#X obj 402 287 t b f;
#X obj 429 307 t f b f;
#X obj 414 349 /;
#X obj 414 369 swap 1;
#X obj 414 391 -;
#X obj 453 417 *;
#X msg 480 459 stop \, \$1;
#X obj 260 241 t b b;
#X obj 142 77 inlet;
#X obj 327 71 inlet;
#X obj 327 125 clip 1 1e+09;
#X obj 169 174 bng 15 250 50 0 empty empty empty 17 7 0 10 -262144
-1 -1;
#X obj 142 98 sel 0;
#X obj 241 163 r \$0-to-del;
#X obj 169 481 s \$0-to-del;
#X obj 480 479 s \$0-to-del;
#X obj 90 266 s \$0-to-del;
#X obj 260 221 delay 1;
#X obj 365 91 f \$1;
#X obj 365 71 loadbang;
#X obj 169 192 t b b;
#X obj 210 248 t f;
#X obj 331 479 outlet;
#X obj 327 145 t f f f;
#X obj 453 437 t f f;
#X obj 331 451 f;
#X obj 380 479 outlet;
#X obj 169 393 t b b;
#X connect 0 0 10 0;
#X connect 1 0 35 0;
#X connect 2 0 29 0;
#X connect 3 0 18 0;
#X connect 4 0 6 0;
#X connect 4 1 5 0;
#X connect 5 0 29 0;
#X connect 6 0 24 0;
#X connect 7 0 10 1;
#X connect 8 0 0 1;
#X connect 8 1 9 0;
#X connect 9 0 7 1;
#X connect 9 1 7 0;
#X connect 9 2 13 1;
#X connect 10 0 11 0;
#X connect 11 0 12 0;
#X connect 11 1 12 1;
#X connect 12 0 13 0;
#X connect 13 0 32 0;
#X connect 14 0 23 0;
#X connect 15 0 1 0;
#X connect 15 1 0 0;
#X connect 16 0 20 0;
#X connect 17 0 3 0;
#X connect 18 0 31 0;
#X connect 19 0 28 0;
#X connect 20 0 4 0;
#X connect 20 1 19 0;
#X connect 21 0 25 0;
#X connect 25 0 15 0;
#X connect 26 0 18 0;
#X connect 27 0 26 0;
#X connect 28 0 35 0;
#X connect 28 1 2 0;
#X connect 29 0 1 1;
#X connect 31 0 25 1;
#X connect 31 1 33 1;
#X connect 31 2 8 0;
#X connect 32 0 34 0;
#X connect 32 1 14 0;
#X connect 33 0 30 0;
#X connect 35 0 22 0;
#X connect 35 1 33 0;
