#N canvas 104 78 1284 692 10;
#X obj 843 498 keyup;
#X floatatom 843 518 5 0 0 0 - - -, f 5;
#X obj 581 534 unpack f f;
#X obj 638 556 != 0;
#X obj 581 581 spigot;
#X obj 518 510 spigot;
#X obj 581 510 spigot;
#X obj 581 617 outlet;
#X obj 177 273 t a;
#X text 58 85 Q;
#X text 191 85 S;
#X text 320 85 D;
#X text 431 84 F;
#X text 564 84 G;
#X text 693 84 H;
#X text 796 85 J;
#X text 935 85 K;
#X text 1052 83 L;
#X text 1161 84 M;
#X text 118 150 Z;
#X text 251 149 E;
#X text 469 148 T;
#X text 602 148 Y;
#X text 731 148 U;
#X text 958 148 O;
#X text 1098 147 P;
#X obj 545 277 t a;
#X obj 1013 264 t a;
#X obj 618 388 loadbang;
#X obj 618 440 == 0;
#X obj 650 440 != 0;
#X obj 27 103 jl.keynote 113 0 \$1;
#X obj 87 168 jl.keynote 122 1 \$1;
#X obj 147 103 jl.keynote 115 2 \$1;
#X obj 207 168 jl.keynote 101 3 \$1;
#X obj 267 103 jl.keynote 100 4 \$1;
#X obj 387 103 jl.keynote 102 5 \$1;
#X obj 438 166 jl.keynote 116 6 \$1;
#X obj 507 103 jl.keynote 103 7 \$1;
#X obj 558 166 jl.keynote 121 8 \$1;
#X obj 627 103 jl.keynote 104 9 \$1;
#X obj 678 166 jl.keynote 117 10 \$1;
#X obj 747 103 jl.keynote 106 11 \$1;
#X obj 873 103 jl.keynote 107 12 \$1;
#X obj 928 166 jl.keynote 111 13 \$1;
#X obj 999 103 jl.keynote 108 14 \$1;
#X obj 1054 166 jl.keynote 112 15 \$1;
#X obj 1125 103 jl.keynote 109 16 \$1;
#X obj 518 389 unpack f f;
#X obj 518 431 pack f f;
#X obj 518 353 t l;
#X obj 518 452 t l l;
#X obj 518 410 + \$2;
#X obj 618 409 f \$3;
#X text 743 417 \$1 : default velocity value (default 1);
#X text 743 438 \$2 : note offset (default 0);
#X text 744 458 \$3 : filter noteoffs if != 0 (default 0);
#X connect 0 0 1 0;
#X connect 2 0 4 0;
#X connect 2 1 3 0;
#X connect 3 0 4 1;
#X connect 4 0 7 0;
#X connect 5 0 7 0;
#X connect 6 0 2 0;
#X connect 8 0 50 0;
#X connect 26 0 50 0;
#X connect 27 0 50 0;
#X connect 28 0 53 0;
#X connect 29 0 5 1;
#X connect 30 0 6 1;
#X connect 31 0 8 0;
#X connect 32 0 8 0;
#X connect 33 0 8 0;
#X connect 34 0 8 0;
#X connect 35 0 8 0;
#X connect 36 0 26 0;
#X connect 37 0 26 0;
#X connect 38 0 26 0;
#X connect 39 0 26 0;
#X connect 40 0 26 0;
#X connect 41 0 26 0;
#X connect 42 0 26 0;
#X connect 43 0 27 0;
#X connect 44 0 27 0;
#X connect 45 0 27 0;
#X connect 46 0 27 0;
#X connect 47 0 27 0;
#X connect 48 0 52 0;
#X connect 48 1 49 1;
#X connect 49 0 51 0;
#X connect 50 0 48 0;
#X connect 51 0 5 0;
#X connect 51 1 6 0;
#X connect 52 0 49 0;
#X connect 53 0 29 0;
#X connect 53 0 30 0;
