#N canvas 322 160 600 581 10;
#N canvas 87 224 450 300 \$0-mix 0;
#X obj 12 12 cnv 12 120 120    0 0 0 12 #404040 #404040 0;
#X obj 13 13 cnv 12 118 118    0 0 0 12 #fcfcfc #fcfcfc 0;
#X obj 14 14 cnv 12 106 106    0 0 0 12 #404040 #404040 0;
#X obj 15 15 cnv 12 104 104    0 0 0 12 #fcfcfc #fcfcfc 0;
#X obj 16 16 cnv 12 92 92    0 0 0 12 #404040 #404040 0;
#X obj 17 17 cnv 12 90 90    0 0 0 12 #fcfcfc #fcfcfc 0;
#X obj 18 18 cnv 12 78 78    0 0 0 12 #404040 #404040 0;
#X obj 19 19 cnv 12 76 76    0 0 0 12 #fcfcfc #fcfcfc 0;
#X obj 20 20 cnv 12 64 64    0 0 0 12 #404040 #404040 0;
#X obj 21 21 cnv 12 62 62    0 0 0 12 #fcfcfc #fcfcfc 0;
#X obj 22 22 cnv 12 50 50    0 0 0 12 #404040 #404040 0;
#X obj 23 23 cnv 12 48 48    0 0 0 12 #fcfcfc #fcfcfc 0;
#X obj 24 24 cnv 12 36 36    0 0 0 12 #404040 #404040 0;
#X obj 25 25 cnv 12 34 34    0 0 0 12 #fcfcfc #fcfcfc 0;
#X obj 26 26 cnv 12 22 22    0 0 0 12 #404040 #404040 0;
#X obj 27 27 cnv 12 20 20    0 0 0 12 #fcfcfc #fcfcfc 0;
#X obj 28 138 cnv 12 12 12   1 1 6 0 8 #202020 #e0e0e0 0;
#X obj 28 150 cnv 12 12 12   2 1 6 0 8 #202020 #e0e0e0 0;
#X obj 42 28 cnv 12 12 12   1 1 6 0 8 #202020 #e0e0e0 0;
#X obj 54 28 cnv 12 12 12   2 1 6 0 8 #202020 #e0e0e0 0;
#X obj 66 28 cnv 12 12 12   3 1 6 0 8 #202020 #e0e0e0 0;
#X obj 78 28 cnv 12 12 12   4 1 6 0 8 #202020 #e0e0e0 0;
#X obj 90 28 cnv 12 12 12   5 1 6 0 8 #202020 #e0e0e0 0;
#X obj 102 28 cnv 12 12 12   6 1 6 0 8 #202020 #e0e0e0 0;
#X obj 114 28 cnv 12 12 12   7 1 6 0 8 #202020 #e0e0e0 0;
#X obj 126 28 cnv 12 12 12   8 1 6 0 8 #202020 #e0e0e0 0;
#X obj 138 28 cnv 12 12 12   1 1 6 0 8 #202020 #e0e0e0 0;
#X obj 150 28 cnv 12 12 12   2 1 6 0 8 #202020 #e0e0e0 0;
#X obj 42 42 tgl 12 0 15341-0-0-o 15341-0-0-i  0 0 0 9 #fcfcfc #404040
#fcfcfc 0 1;
#X obj 54 42 tgl 12 0 15341-1-0-o 15341-1-0-i  0 0 0 9 #fcfcfc #404040
#fcfcfc 0 1;
#X obj 66 42 tgl 12 0 15341-2-0-o 15341-2-0-i  0 0 0 9 #fcfcfc #404040
#fcfcfc 0 1;
#X obj 78 42 tgl 12 0 15341-3-0-o 15341-3-0-i  0 0 0 9 #fcfcfc #404040
#fcfcfc 0 1;
#X obj 90 42 tgl 12 0 15341-4-0-o 15341-4-0-i  0 0 0 9 #fcfcfc #404040
#fcfcfc 0 1;
#X obj 102 42 tgl 12 0 15341-5-0-o 15341-5-0-i  0 0 0 9 #fcfcfc #404040
#fcfcfc 0 1;
#X obj 114 42 tgl 12 0 15341-6-0-o 15341-6-0-i  0 0 0 9 #fcfcfc #404040
#fcfcfc 0 1;
#X obj 126 42 tgl 12 0 15341-7-0-o 15341-7-0-i  0 0 0 9 #fcfcfc #404040
#fcfcfc 0 1;
#X obj 138 42 tgl 12 0 15341-8-0-o 15341-8-0-i  0 0 0 9 #a0a0a0 #fcfcfc
#fcfcfc 0 1;
#X obj 150 42 tgl 12 0 15341-9-0-o 15341-9-0-i  0 0 0 9 #a0a0a0 #fcfcfc
#fcfcfc 0 1;
#X obj 42 54 tgl 12 0 15341-0-1-o 15341-0-1-i  0 0 0 9 #fcfcfc #404040
#fcfcfc 0 1;
#X obj 54 54 tgl 12 0 15341-1-1-o 15341-1-1-i  0 0 0 9 #fcfcfc #404040
#fcfcfc 0 1;
#X obj 66 54 tgl 12 0 15341-2-1-o 15341-2-1-i  0 0 0 9 #fcfcfc #404040
#fcfcfc 0 1;
#X obj 78 54 tgl 12 0 15341-3-1-o 15341-3-1-i  0 0 0 9 #fcfcfc #404040
#fcfcfc 0 1;
#X obj 90 54 tgl 12 0 15341-4-1-o 15341-4-1-i  0 0 0 9 #fcfcfc #404040
#fcfcfc 0 1;
#X obj 102 54 tgl 12 0 15341-5-1-o 15341-5-1-i  0 0 0 9 #fcfcfc #404040
#fcfcfc 0 1;
#X obj 114 54 tgl 12 0 15341-6-1-o 15341-6-1-i  0 0 0 9 #fcfcfc #404040
#fcfcfc 0 1;
#X obj 126 54 tgl 12 0 15341-7-1-o 15341-7-1-i  0 0 0 9 #fcfcfc #404040
#fcfcfc 0 1;
#X obj 138 54 tgl 12 0 15341-8-1-o 15341-8-1-i  0 0 0 9 #a0a0a0 #fcfcfc
#fcfcfc 0 1;
#X obj 150 54 tgl 12 0 15341-9-1-o 15341-9-1-i  0 0 0 9 #a0a0a0 #fcfcfc
#fcfcfc 0 1;
#X obj 42 66 tgl 12 0 15341-0-2-o 15341-0-2-i  0 0 0 9 #fcfcfc #404040
#fcfcfc 0 1;
#X obj 54 66 tgl 12 0 15341-1-2-o 15341-1-2-i  0 0 0 9 #fcfcfc #404040
#fcfcfc 0 1;
#X obj 66 66 tgl 12 0 15341-2-2-o 15341-2-2-i  0 0 0 9 #fcfcfc #404040
#fcfcfc 0 1;
#X obj 78 66 tgl 12 0 15341-3-2-o 15341-3-2-i  0 0 0 9 #fcfcfc #404040
#fcfcfc 0 1;
#X obj 90 66 tgl 12 0 15341-4-2-o 15341-4-2-i  0 0 0 9 #fcfcfc #404040
#fcfcfc 0 1;
#X obj 102 66 tgl 12 0 15341-5-2-o 15341-5-2-i  0 0 0 9 #fcfcfc #404040
#fcfcfc 0 1;
#X obj 114 66 tgl 12 0 15341-6-2-o 15341-6-2-i  0 0 0 9 #fcfcfc #404040
#fcfcfc 0 1;
#X obj 126 66 tgl 12 0 15341-7-2-o 15341-7-2-i  0 0 0 9 #fcfcfc #404040
#fcfcfc 0 1;
#X obj 138 66 tgl 12 0 15341-8-2-o 15341-8-2-i  0 0 0 9 #a0a0a0 #fcfcfc
#fcfcfc 0 1;
#X obj 150 66 tgl 12 0 15341-9-2-o 15341-9-2-i  0 0 0 9 #a0a0a0 #fcfcfc
#fcfcfc 0 1;
#X obj 42 78 tgl 12 0 15341-0-3-o 15341-0-3-i  0 0 0 9 #fcfcfc #404040
#fcfcfc 0 1;
#X obj 54 78 tgl 12 0 15341-1-3-o 15341-1-3-i  0 0 0 9 #fcfcfc #404040
#fcfcfc 0 1;
#X obj 66 78 tgl 12 0 15341-2-3-o 15341-2-3-i  0 0 0 9 #fcfcfc #404040
#fcfcfc 0 1;
#X obj 78 78 tgl 12 0 15341-3-3-o 15341-3-3-i  0 0 0 9 #fcfcfc #404040
#fcfcfc 0 1;
#X obj 90 78 tgl 12 0 15341-4-3-o 15341-4-3-i  0 0 0 9 #fcfcfc #404040
#fcfcfc 0 1;
#X obj 102 78 tgl 12 0 15341-5-3-o 15341-5-3-i  0 0 0 9 #fcfcfc #404040
#fcfcfc 0 1;
#X obj 114 78 tgl 12 0 15341-6-3-o 15341-6-3-i  0 0 0 9 #fcfcfc #404040
#fcfcfc 0 1;
#X obj 126 78 tgl 12 0 15341-7-3-o 15341-7-3-i  0 0 0 9 #fcfcfc #404040
#fcfcfc 0 1;
#X obj 138 78 tgl 12 0 15341-8-3-o 15341-8-3-i  0 0 0 9 #a0a0a0 #fcfcfc
#fcfcfc 0 1;
#X obj 150 78 tgl 12 0 15341-9-3-o 15341-9-3-i  0 0 0 9 #a0a0a0 #fcfcfc
#fcfcfc 0 1;
#X obj 42 90 tgl 12 0 15341-0-4-o 15341-0-4-i  0 0 0 9 #fcfcfc #404040
#fcfcfc 0 1;
#X obj 54 90 tgl 12 0 15341-1-4-o 15341-1-4-i  0 0 0 9 #fcfcfc #404040
#fcfcfc 0 1;
#X obj 66 90 tgl 12 0 15341-2-4-o 15341-2-4-i  0 0 0 9 #fcfcfc #404040
#fcfcfc 0 1;
#X obj 78 90 tgl 12 0 15341-3-4-o 15341-3-4-i  0 0 0 9 #fcfcfc #404040
#fcfcfc 0 1;
#X obj 90 90 tgl 12 0 15341-4-4-o 15341-4-4-i  0 0 0 9 #fcfcfc #404040
#fcfcfc 0 1;
#X obj 102 90 tgl 12 0 15341-5-4-o 15341-5-4-i  0 0 0 9 #fcfcfc #404040
#fcfcfc 0 1;
#X obj 114 90 tgl 12 0 15341-6-4-o 15341-6-4-i  0 0 0 9 #fcfcfc #404040
#fcfcfc 0 1;
#X obj 126 90 tgl 12 0 15341-7-4-o 15341-7-4-i  0 0 0 9 #fcfcfc #404040
#fcfcfc 0 1;
#X obj 138 90 tgl 12 0 15341-8-4-o 15341-8-4-i  0 0 0 9 #a0a0a0 #fcfcfc
#fcfcfc 0 1;
#X obj 150 90 tgl 12 0 15341-9-4-o 15341-9-4-i  0 0 0 9 #a0a0a0 #fcfcfc
#fcfcfc 0 1;
#X obj 42 102 tgl 12 0 15341-0-5-o 15341-0-5-i  0 0 0 9 #fcfcfc #404040
#fcfcfc 0 1;
#X obj 54 102 tgl 12 0 15341-1-5-o 15341-1-5-i  0 0 0 9 #fcfcfc #404040
#fcfcfc 0 1;
#X obj 66 102 tgl 12 0 15341-2-5-o 15341-2-5-i  0 0 0 9 #fcfcfc #404040
#fcfcfc 0 1;
#X obj 78 102 tgl 12 0 15341-3-5-o 15341-3-5-i  0 0 0 9 #fcfcfc #404040
#fcfcfc 0 1;
#X obj 90 102 tgl 12 0 15341-4-5-o 15341-4-5-i  0 0 0 9 #fcfcfc #404040
#fcfcfc 0 1;
#X obj 102 102 tgl 12 0 15341-5-5-o 15341-5-5-i  0 0 0 9 #fcfcfc #404040
#fcfcfc 0 1;
#X obj 114 102 tgl 12 0 15341-6-5-o 15341-6-5-i  0 0 0 9 #fcfcfc #404040
#fcfcfc 0 1;
#X obj 126 102 tgl 12 0 15341-7-5-o 15341-7-5-i  0 0 0 9 #fcfcfc #404040
#fcfcfc 0 1;
#X obj 138 102 tgl 12 0 15341-8-5-o 15341-8-5-i  0 0 0 9 #a0a0a0 #fcfcfc
#fcfcfc 0 1;
#X obj 150 102 tgl 12 0 15341-9-5-o 15341-9-5-i  0 0 0 9 #a0a0a0 #fcfcfc
#fcfcfc 0 1;
#X obj 42 114 tgl 12 0 15341-0-6-o 15341-0-6-i  0 0 0 9 #fcfcfc #404040
#fcfcfc 0 1;
#X obj 54 114 tgl 12 0 15341-1-6-o 15341-1-6-i  0 0 0 9 #fcfcfc #404040
#fcfcfc 0 1;
#X obj 66 114 tgl 12 0 15341-2-6-o 15341-2-6-i  0 0 0 9 #fcfcfc #404040
#fcfcfc 0 1;
#X obj 78 114 tgl 12 0 15341-3-6-o 15341-3-6-i  0 0 0 9 #fcfcfc #404040
#fcfcfc 0 1;
#X obj 90 114 tgl 12 0 15341-4-6-o 15341-4-6-i  0 0 0 9 #fcfcfc #404040
#fcfcfc 0 1;
#X obj 102 114 tgl 12 0 15341-5-6-o 15341-5-6-i  0 0 0 9 #fcfcfc #404040
#fcfcfc 0 1;
#X obj 114 114 tgl 12 0 15341-6-6-o 15341-6-6-i  0 0 0 9 #fcfcfc #404040
#fcfcfc 0 1;
#X obj 126 114 tgl 12 0 15341-7-6-o 15341-7-6-i  0 0 0 9 #fcfcfc #404040
#fcfcfc 0 1;
#X obj 138 114 tgl 12 0 15341-8-6-o 15341-8-6-i  0 0 0 9 #a0a0a0 #fcfcfc
#fcfcfc 0 1;
#X obj 150 114 tgl 12 0 15341-9-6-o 15341-9-6-i  0 0 0 9 #a0a0a0 #fcfcfc
#fcfcfc 0 1;
#X obj 42 126 tgl 12 0 15341-0-7-o 15341-0-7-i  0 0 0 9 #fcfcfc #404040
#fcfcfc 0 1;
#X obj 54 126 tgl 12 0 15341-1-7-o 15341-1-7-i  0 0 0 9 #fcfcfc #404040
#fcfcfc 0 1;
#X obj 66 126 tgl 12 0 15341-2-7-o 15341-2-7-i  0 0 0 9 #fcfcfc #404040
#fcfcfc 0 1;
#X obj 78 126 tgl 12 0 15341-3-7-o 15341-3-7-i  0 0 0 9 #fcfcfc #404040
#fcfcfc 0 1;
#X obj 90 126 tgl 12 0 15341-4-7-o 15341-4-7-i  0 0 0 9 #fcfcfc #404040
#fcfcfc 0 1;
#X obj 102 126 tgl 12 0 15341-5-7-o 15341-5-7-i  0 0 0 9 #fcfcfc #404040
#fcfcfc 0 1;
#X obj 114 126 tgl 12 0 15341-6-7-o 15341-6-7-i  0 0 0 9 #fcfcfc #404040
#fcfcfc 0 1;
#X obj 126 126 tgl 12 0 15341-7-7-o 15341-7-7-i  0 0 0 9 #fcfcfc #404040
#fcfcfc 0 1;
#X obj 138 126 tgl 12 0 15341-8-7-o 15341-8-7-i  0 0 0 9 #a0a0a0 #fcfcfc
#fcfcfc 0 1;
#X obj 150 126 tgl 12 0 15341-9-7-o 15341-9-7-i  0 0 0 9 #a0a0a0 #fcfcfc
#fcfcfc 0 1;
#X obj 42 138 tgl 12 0 15341-0-8-o 15341-0-8-i  0 0 0 9 #404040 #fcfcfc
#fcfcfc 0 1;
#X obj 54 138 tgl 12 0 15341-1-8-o 15341-1-8-i  0 0 0 9 #404040 #fcfcfc
#fcfcfc 0 1;
#X obj 66 138 tgl 12 0 15341-2-8-o 15341-2-8-i  0 0 0 9 #404040 #fcfcfc
#fcfcfc 0 1;
#X obj 78 138 tgl 12 0 15341-3-8-o 15341-3-8-i  0 0 0 9 #404040 #fcfcfc
#fcfcfc 0 1;
#X obj 90 138 tgl 12 0 15341-4-8-o 15341-4-8-i  0 0 0 9 #404040 #fcfcfc
#fcfcfc 0 1;
#X obj 102 138 tgl 12 0 15341-5-8-o 15341-5-8-i  0 0 0 9 #404040 #fcfcfc
#fcfcfc 0 1;
#X obj 114 138 tgl 12 0 15341-6-8-o 15341-6-8-i  0 0 0 9 #404040 #fcfcfc
#fcfcfc 0 1;
#X obj 126 138 tgl 12 0 15341-7-8-o 15341-7-8-i  0 0 0 9 #404040 #fcfcfc
#fcfcfc 0 1;
#X obj 138 138 tgl 12 0 15341-8-8-o 15341-8-8-i  0 0 0 9 #404040 #fcfcfc
#fcfcfc 0 1;
#X obj 150 138 tgl 12 0 15341-9-8-o 15341-9-8-i  0 0 0 9 #404040 #fcfcfc
#fcfcfc 0 1;
#X obj 42 150 tgl 12 0 15341-0-9-o 15341-0-9-i  0 0 0 9 #404040 #fcfcfc
#fcfcfc 0 1;
#X obj 54 150 tgl 12 0 15341-1-9-o 15341-1-9-i  0 0 0 9 #404040 #fcfcfc
#fcfcfc 0 1;
#X obj 66 150 tgl 12 0 15341-2-9-o 15341-2-9-i  0 0 0 9 #404040 #fcfcfc
#fcfcfc 0 1;
#X obj 78 150 tgl 12 0 15341-3-9-o 15341-3-9-i  0 0 0 9 #404040 #fcfcfc
#fcfcfc 0 1;
#X obj 90 150 tgl 12 0 15341-4-9-o 15341-4-9-i  0 0 0 9 #404040 #fcfcfc
#fcfcfc 0 1;
#X obj 102 150 tgl 12 0 15341-5-9-o 15341-5-9-i  0 0 0 9 #404040 #fcfcfc
#fcfcfc 0 1;
#X obj 114 150 tgl 12 0 15341-6-9-o 15341-6-9-i  0 0 0 9 #404040 #fcfcfc
#fcfcfc 0 1;
#X obj 126 150 tgl 12 0 15341-7-9-o 15341-7-9-i  0 0 0 9 #404040 #fcfcfc
#fcfcfc 0 1;
#X obj 138 150 tgl 12 0 15341-8-9-o 15341-8-9-i  0 0 0 9 #404040 #fcfcfc
#fcfcfc 0 1;
#X obj 150 150 tgl 12 0 15341-9-9-o 15341-9-9-i  0 0 0 9 #404040 #fcfcfc
#fcfcfc 0 1;
#X coords 0 -1 1 1 154 154 2 10 10;
#X restore 50 300 pd \$0-mix;
#N canvas 174 311 450 300 \$0-sends-receives 0;
#X obj 10 10 receive 15341-0-0-o;
#X obj 10 35 t b f;
#X obj 10 60 pack 0 0 f;
#X obj 10 85 send 15341-o;
#X obj 140 10 receive 15341-1-0-o;
#X obj 140 35 t b f;
#X obj 140 60 pack 1 0 f;
#X obj 140 85 send 15341-o;
#X obj 270 10 receive 15341-2-0-o;
#X obj 270 35 t b f;
#X obj 270 60 pack 2 0 f;
#X obj 270 85 send 15341-o;
#X obj 400 10 receive 15341-3-0-o;
#X obj 400 35 t b f;
#X obj 400 60 pack 3 0 f;
#X obj 400 85 send 15341-o;
#X obj 530 10 receive 15341-4-0-o;
#X obj 530 35 t b f;
#X obj 530 60 pack 4 0 f;
#X obj 530 85 send 15341-o;
#X obj 660 10 receive 15341-5-0-o;
#X obj 660 35 t b f;
#X obj 660 60 pack 5 0 f;
#X obj 660 85 send 15341-o;
#X obj 790 10 receive 15341-6-0-o;
#X obj 790 35 t b f;
#X obj 790 60 pack 6 0 f;
#X obj 790 85 send 15341-o;
#X obj 920 10 receive 15341-7-0-o;
#X obj 920 35 t b f;
#X obj 920 60 pack 7 0 f;
#X obj 920 85 send 15341-o;
#X obj 1050 10 receive 15341-8-0-o;
#X obj 1050 35 t b f;
#X obj 1050 60 pack 8 0 f;
#X obj 1050 85 send 15341-o;
#X obj 1180 10 receive 15341-9-0-o;
#X obj 1180 35 t b f;
#X obj 1180 60 pack 9 0 f;
#X obj 1180 85 send 15341-o;
#X obj 10 110 receive 15341-0-1-o;
#X obj 10 135 t b f;
#X obj 10 160 pack 0 1 f;
#X obj 10 185 send 15341-o;
#X obj 140 110 receive 15341-1-1-o;
#X obj 140 135 t b f;
#X obj 140 160 pack 1 1 f;
#X obj 140 185 send 15341-o;
#X obj 270 110 receive 15341-2-1-o;
#X obj 270 135 t b f;
#X obj 270 160 pack 2 1 f;
#X obj 270 185 send 15341-o;
#X obj 400 110 receive 15341-3-1-o;
#X obj 400 135 t b f;
#X obj 400 160 pack 3 1 f;
#X obj 400 185 send 15341-o;
#X obj 530 110 receive 15341-4-1-o;
#X obj 530 135 t b f;
#X obj 530 160 pack 4 1 f;
#X obj 530 185 send 15341-o;
#X obj 660 110 receive 15341-5-1-o;
#X obj 660 135 t b f;
#X obj 660 160 pack 5 1 f;
#X obj 660 185 send 15341-o;
#X obj 790 110 receive 15341-6-1-o;
#X obj 790 135 t b f;
#X obj 790 160 pack 6 1 f;
#X obj 790 185 send 15341-o;
#X obj 920 110 receive 15341-7-1-o;
#X obj 920 135 t b f;
#X obj 920 160 pack 7 1 f;
#X obj 920 185 send 15341-o;
#X obj 1050 110 receive 15341-8-1-o;
#X obj 1050 135 t b f;
#X obj 1050 160 pack 8 1 f;
#X obj 1050 185 send 15341-o;
#X obj 1180 110 receive 15341-9-1-o;
#X obj 1180 135 t b f;
#X obj 1180 160 pack 9 1 f;
#X obj 1180 185 send 15341-o;
#X obj 10 210 receive 15341-0-2-o;
#X obj 10 235 t b f;
#X obj 10 260 pack 0 2 f;
#X obj 10 285 send 15341-o;
#X obj 140 210 receive 15341-1-2-o;
#X obj 140 235 t b f;
#X obj 140 260 pack 1 2 f;
#X obj 140 285 send 15341-o;
#X obj 270 210 receive 15341-2-2-o;
#X obj 270 235 t b f;
#X obj 270 260 pack 2 2 f;
#X obj 270 285 send 15341-o;
#X obj 400 210 receive 15341-3-2-o;
#X obj 400 235 t b f;
#X obj 400 260 pack 3 2 f;
#X obj 400 285 send 15341-o;
#X obj 530 210 receive 15341-4-2-o;
#X obj 530 235 t b f;
#X obj 530 260 pack 4 2 f;
#X obj 530 285 send 15341-o;
#X obj 660 210 receive 15341-5-2-o;
#X obj 660 235 t b f;
#X obj 660 260 pack 5 2 f;
#X obj 660 285 send 15341-o;
#X obj 790 210 receive 15341-6-2-o;
#X obj 790 235 t b f;
#X obj 790 260 pack 6 2 f;
#X obj 790 285 send 15341-o;
#X obj 920 210 receive 15341-7-2-o;
#X obj 920 235 t b f;
#X obj 920 260 pack 7 2 f;
#X obj 920 285 send 15341-o;
#X obj 1050 210 receive 15341-8-2-o;
#X obj 1050 235 t b f;
#X obj 1050 260 pack 8 2 f;
#X obj 1050 285 send 15341-o;
#X obj 1180 210 receive 15341-9-2-o;
#X obj 1180 235 t b f;
#X obj 1180 260 pack 9 2 f;
#X obj 1180 285 send 15341-o;
#X obj 10 310 receive 15341-0-3-o;
#X obj 10 335 t b f;
#X obj 10 360 pack 0 3 f;
#X obj 10 385 send 15341-o;
#X obj 140 310 receive 15341-1-3-o;
#X obj 140 335 t b f;
#X obj 140 360 pack 1 3 f;
#X obj 140 385 send 15341-o;
#X obj 270 310 receive 15341-2-3-o;
#X obj 270 335 t b f;
#X obj 270 360 pack 2 3 f;
#X obj 270 385 send 15341-o;
#X obj 400 310 receive 15341-3-3-o;
#X obj 400 335 t b f;
#X obj 400 360 pack 3 3 f;
#X obj 400 385 send 15341-o;
#X obj 530 310 receive 15341-4-3-o;
#X obj 530 335 t b f;
#X obj 530 360 pack 4 3 f;
#X obj 530 385 send 15341-o;
#X obj 660 310 receive 15341-5-3-o;
#X obj 660 335 t b f;
#X obj 660 360 pack 5 3 f;
#X obj 660 385 send 15341-o;
#X obj 790 310 receive 15341-6-3-o;
#X obj 790 335 t b f;
#X obj 790 360 pack 6 3 f;
#X obj 790 385 send 15341-o;
#X obj 920 310 receive 15341-7-3-o;
#X obj 920 335 t b f;
#X obj 920 360 pack 7 3 f;
#X obj 920 385 send 15341-o;
#X obj 1050 310 receive 15341-8-3-o;
#X obj 1050 335 t b f;
#X obj 1050 360 pack 8 3 f;
#X obj 1050 385 send 15341-o;
#X obj 1180 310 receive 15341-9-3-o;
#X obj 1180 335 t b f;
#X obj 1180 360 pack 9 3 f;
#X obj 1180 385 send 15341-o;
#X obj 10 410 receive 15341-0-4-o;
#X obj 10 435 t b f;
#X obj 10 460 pack 0 4 f;
#X obj 10 485 send 15341-o;
#X obj 140 410 receive 15341-1-4-o;
#X obj 140 435 t b f;
#X obj 140 460 pack 1 4 f;
#X obj 140 485 send 15341-o;
#X obj 270 410 receive 15341-2-4-o;
#X obj 270 435 t b f;
#X obj 270 460 pack 2 4 f;
#X obj 270 485 send 15341-o;
#X obj 400 410 receive 15341-3-4-o;
#X obj 400 435 t b f;
#X obj 400 460 pack 3 4 f;
#X obj 400 485 send 15341-o;
#X obj 530 410 receive 15341-4-4-o;
#X obj 530 435 t b f;
#X obj 530 460 pack 4 4 f;
#X obj 530 485 send 15341-o;
#X obj 660 410 receive 15341-5-4-o;
#X obj 660 435 t b f;
#X obj 660 460 pack 5 4 f;
#X obj 660 485 send 15341-o;
#X obj 790 410 receive 15341-6-4-o;
#X obj 790 435 t b f;
#X obj 790 460 pack 6 4 f;
#X obj 790 485 send 15341-o;
#X obj 920 410 receive 15341-7-4-o;
#X obj 920 435 t b f;
#X obj 920 460 pack 7 4 f;
#X obj 920 485 send 15341-o;
#X obj 1050 410 receive 15341-8-4-o;
#X obj 1050 435 t b f;
#X obj 1050 460 pack 8 4 f;
#X obj 1050 485 send 15341-o;
#X obj 1180 410 receive 15341-9-4-o;
#X obj 1180 435 t b f;
#X obj 1180 460 pack 9 4 f;
#X obj 1180 485 send 15341-o;
#X obj 10 510 receive 15341-0-5-o;
#X obj 10 535 t b f;
#X obj 10 560 pack 0 5 f;
#X obj 10 585 send 15341-o;
#X obj 140 510 receive 15341-1-5-o;
#X obj 140 535 t b f;
#X obj 140 560 pack 1 5 f;
#X obj 140 585 send 15341-o;
#X obj 270 510 receive 15341-2-5-o;
#X obj 270 535 t b f;
#X obj 270 560 pack 2 5 f;
#X obj 270 585 send 15341-o;
#X obj 400 510 receive 15341-3-5-o;
#X obj 400 535 t b f;
#X obj 400 560 pack 3 5 f;
#X obj 400 585 send 15341-o;
#X obj 530 510 receive 15341-4-5-o;
#X obj 530 535 t b f;
#X obj 530 560 pack 4 5 f;
#X obj 530 585 send 15341-o;
#X obj 660 510 receive 15341-5-5-o;
#X obj 660 535 t b f;
#X obj 660 560 pack 5 5 f;
#X obj 660 585 send 15341-o;
#X obj 790 510 receive 15341-6-5-o;
#X obj 790 535 t b f;
#X obj 790 560 pack 6 5 f;
#X obj 790 585 send 15341-o;
#X obj 920 510 receive 15341-7-5-o;
#X obj 920 535 t b f;
#X obj 920 560 pack 7 5 f;
#X obj 920 585 send 15341-o;
#X obj 1050 510 receive 15341-8-5-o;
#X obj 1050 535 t b f;
#X obj 1050 560 pack 8 5 f;
#X obj 1050 585 send 15341-o;
#X obj 1180 510 receive 15341-9-5-o;
#X obj 1180 535 t b f;
#X obj 1180 560 pack 9 5 f;
#X obj 1180 585 send 15341-o;
#X obj 10 610 receive 15341-0-6-o;
#X obj 10 635 t b f;
#X obj 10 660 pack 0 6 f;
#X obj 10 685 send 15341-o;
#X obj 140 610 receive 15341-1-6-o;
#X obj 140 635 t b f;
#X obj 140 660 pack 1 6 f;
#X obj 140 685 send 15341-o;
#X obj 270 610 receive 15341-2-6-o;
#X obj 270 635 t b f;
#X obj 270 660 pack 2 6 f;
#X obj 270 685 send 15341-o;
#X obj 400 610 receive 15341-3-6-o;
#X obj 400 635 t b f;
#X obj 400 660 pack 3 6 f;
#X obj 400 685 send 15341-o;
#X obj 530 610 receive 15341-4-6-o;
#X obj 530 635 t b f;
#X obj 530 660 pack 4 6 f;
#X obj 530 685 send 15341-o;
#X obj 660 610 receive 15341-5-6-o;
#X obj 660 635 t b f;
#X obj 660 660 pack 5 6 f;
#X obj 660 685 send 15341-o;
#X obj 790 610 receive 15341-6-6-o;
#X obj 790 635 t b f;
#X obj 790 660 pack 6 6 f;
#X obj 790 685 send 15341-o;
#X obj 920 610 receive 15341-7-6-o;
#X obj 920 635 t b f;
#X obj 920 660 pack 7 6 f;
#X obj 920 685 send 15341-o;
#X obj 1050 610 receive 15341-8-6-o;
#X obj 1050 635 t b f;
#X obj 1050 660 pack 8 6 f;
#X obj 1050 685 send 15341-o;
#X obj 1180 610 receive 15341-9-6-o;
#X obj 1180 635 t b f;
#X obj 1180 660 pack 9 6 f;
#X obj 1180 685 send 15341-o;
#X obj 10 710 receive 15341-0-7-o;
#X obj 10 735 t b f;
#X obj 10 760 pack 0 7 f;
#X obj 10 785 send 15341-o;
#X obj 140 710 receive 15341-1-7-o;
#X obj 140 735 t b f;
#X obj 140 760 pack 1 7 f;
#X obj 140 785 send 15341-o;
#X obj 270 710 receive 15341-2-7-o;
#X obj 270 735 t b f;
#X obj 270 760 pack 2 7 f;
#X obj 270 785 send 15341-o;
#X obj 400 710 receive 15341-3-7-o;
#X obj 400 735 t b f;
#X obj 400 760 pack 3 7 f;
#X obj 400 785 send 15341-o;
#X obj 530 710 receive 15341-4-7-o;
#X obj 530 735 t b f;
#X obj 530 760 pack 4 7 f;
#X obj 530 785 send 15341-o;
#X obj 660 710 receive 15341-5-7-o;
#X obj 660 735 t b f;
#X obj 660 760 pack 5 7 f;
#X obj 660 785 send 15341-o;
#X obj 790 710 receive 15341-6-7-o;
#X obj 790 735 t b f;
#X obj 790 760 pack 6 7 f;
#X obj 790 785 send 15341-o;
#X obj 920 710 receive 15341-7-7-o;
#X obj 920 735 t b f;
#X obj 920 760 pack 7 7 f;
#X obj 920 785 send 15341-o;
#X obj 1050 710 receive 15341-8-7-o;
#X obj 1050 735 t b f;
#X obj 1050 760 pack 8 7 f;
#X obj 1050 785 send 15341-o;
#X obj 1180 710 receive 15341-9-7-o;
#X obj 1180 735 t b f;
#X obj 1180 760 pack 9 7 f;
#X obj 1180 785 send 15341-o;
#X obj 10 810 receive 15341-0-8-o;
#X obj 10 835 t b f;
#X obj 10 860 pack 0 8 f;
#X obj 10 885 send 15341-o;
#X obj 140 810 receive 15341-1-8-o;
#X obj 140 835 t b f;
#X obj 140 860 pack 1 8 f;
#X obj 140 885 send 15341-o;
#X obj 270 810 receive 15341-2-8-o;
#X obj 270 835 t b f;
#X obj 270 860 pack 2 8 f;
#X obj 270 885 send 15341-o;
#X obj 400 810 receive 15341-3-8-o;
#X obj 400 835 t b f;
#X obj 400 860 pack 3 8 f;
#X obj 400 885 send 15341-o;
#X obj 530 810 receive 15341-4-8-o;
#X obj 530 835 t b f;
#X obj 530 860 pack 4 8 f;
#X obj 530 885 send 15341-o;
#X obj 660 810 receive 15341-5-8-o;
#X obj 660 835 t b f;
#X obj 660 860 pack 5 8 f;
#X obj 660 885 send 15341-o;
#X obj 790 810 receive 15341-6-8-o;
#X obj 790 835 t b f;
#X obj 790 860 pack 6 8 f;
#X obj 790 885 send 15341-o;
#X obj 920 810 receive 15341-7-8-o;
#X obj 920 835 t b f;
#X obj 920 860 pack 7 8 f;
#X obj 920 885 send 15341-o;
#X obj 1050 810 receive 15341-8-8-o;
#X obj 1050 835 t b f;
#X obj 1050 860 pack 8 8 f;
#X obj 1050 885 send 15341-o;
#X obj 1180 810 receive 15341-9-8-o;
#X obj 1180 835 t b f;
#X obj 1180 860 pack 9 8 f;
#X obj 1180 885 send 15341-o;
#X obj 10 910 receive 15341-0-9-o;
#X obj 10 935 t b f;
#X obj 10 960 pack 0 9 f;
#X obj 10 985 send 15341-o;
#X obj 140 910 receive 15341-1-9-o;
#X obj 140 935 t b f;
#X obj 140 960 pack 1 9 f;
#X obj 140 985 send 15341-o;
#X obj 270 910 receive 15341-2-9-o;
#X obj 270 935 t b f;
#X obj 270 960 pack 2 9 f;
#X obj 270 985 send 15341-o;
#X obj 400 910 receive 15341-3-9-o;
#X obj 400 935 t b f;
#X obj 400 960 pack 3 9 f;
#X obj 400 985 send 15341-o;
#X obj 530 910 receive 15341-4-9-o;
#X obj 530 935 t b f;
#X obj 530 960 pack 4 9 f;
#X obj 530 985 send 15341-o;
#X obj 660 910 receive 15341-5-9-o;
#X obj 660 935 t b f;
#X obj 660 960 pack 5 9 f;
#X obj 660 985 send 15341-o;
#X obj 790 910 receive 15341-6-9-o;
#X obj 790 935 t b f;
#X obj 790 960 pack 6 9 f;
#X obj 790 985 send 15341-o;
#X obj 920 910 receive 15341-7-9-o;
#X obj 920 935 t b f;
#X obj 920 960 pack 7 9 f;
#X obj 920 985 send 15341-o;
#X obj 1050 910 receive 15341-8-9-o;
#X obj 1050 935 t b f;
#X obj 1050 960 pack 8 9 f;
#X obj 1050 985 send 15341-o;
#X obj 1180 910 receive 15341-9-9-o;
#X obj 1180 935 t b f;
#X obj 1180 960 pack 9 9 f;
#X obj 1180 985 send 15341-o;
#X connect 0 0 1 0;
#X connect 1 0 2 0;
#X connect 1 1 2 2;
#X connect 2 0 3 0;
#X connect 4 0 5 0;
#X connect 5 0 6 0;
#X connect 5 1 6 2;
#X connect 6 0 7 0;
#X connect 8 0 9 0;
#X connect 9 0 10 0;
#X connect 9 1 10 2;
#X connect 10 0 11 0;
#X connect 12 0 13 0;
#X connect 13 0 14 0;
#X connect 13 1 14 2;
#X connect 14 0 15 0;
#X connect 16 0 17 0;
#X connect 17 0 18 0;
#X connect 17 1 18 2;
#X connect 18 0 19 0;
#X connect 20 0 21 0;
#X connect 21 0 22 0;
#X connect 21 1 22 2;
#X connect 22 0 23 0;
#X connect 24 0 25 0;
#X connect 25 0 26 0;
#X connect 25 1 26 2;
#X connect 26 0 27 0;
#X connect 28 0 29 0;
#X connect 29 0 30 0;
#X connect 29 1 30 2;
#X connect 30 0 31 0;
#X connect 32 0 33 0;
#X connect 33 0 34 0;
#X connect 33 1 34 2;
#X connect 34 0 35 0;
#X connect 36 0 37 0;
#X connect 37 0 38 0;
#X connect 37 1 38 2;
#X connect 38 0 39 0;
#X connect 40 0 41 0;
#X connect 41 0 42 0;
#X connect 41 1 42 2;
#X connect 42 0 43 0;
#X connect 44 0 45 0;
#X connect 45 0 46 0;
#X connect 45 1 46 2;
#X connect 46 0 47 0;
#X connect 48 0 49 0;
#X connect 49 0 50 0;
#X connect 49 1 50 2;
#X connect 50 0 51 0;
#X connect 52 0 53 0;
#X connect 53 0 54 0;
#X connect 53 1 54 2;
#X connect 54 0 55 0;
#X connect 56 0 57 0;
#X connect 57 0 58 0;
#X connect 57 1 58 2;
#X connect 58 0 59 0;
#X connect 60 0 61 0;
#X connect 61 0 62 0;
#X connect 61 1 62 2;
#X connect 62 0 63 0;
#X connect 64 0 65 0;
#X connect 65 0 66 0;
#X connect 65 1 66 2;
#X connect 66 0 67 0;
#X connect 68 0 69 0;
#X connect 69 0 70 0;
#X connect 69 1 70 2;
#X connect 70 0 71 0;
#X connect 72 0 73 0;
#X connect 73 0 74 0;
#X connect 73 1 74 2;
#X connect 74 0 75 0;
#X connect 76 0 77 0;
#X connect 77 0 78 0;
#X connect 77 1 78 2;
#X connect 78 0 79 0;
#X connect 80 0 81 0;
#X connect 81 0 82 0;
#X connect 81 1 82 2;
#X connect 82 0 83 0;
#X connect 84 0 85 0;
#X connect 85 0 86 0;
#X connect 85 1 86 2;
#X connect 86 0 87 0;
#X connect 88 0 89 0;
#X connect 89 0 90 0;
#X connect 89 1 90 2;
#X connect 90 0 91 0;
#X connect 92 0 93 0;
#X connect 93 0 94 0;
#X connect 93 1 94 2;
#X connect 94 0 95 0;
#X connect 96 0 97 0;
#X connect 97 0 98 0;
#X connect 97 1 98 2;
#X connect 98 0 99 0;
#X connect 100 0 101 0;
#X connect 101 0 102 0;
#X connect 101 1 102 2;
#X connect 102 0 103 0;
#X connect 104 0 105 0;
#X connect 105 0 106 0;
#X connect 105 1 106 2;
#X connect 106 0 107 0;
#X connect 108 0 109 0;
#X connect 109 0 110 0;
#X connect 109 1 110 2;
#X connect 110 0 111 0;
#X connect 112 0 113 0;
#X connect 113 0 114 0;
#X connect 113 1 114 2;
#X connect 114 0 115 0;
#X connect 116 0 117 0;
#X connect 117 0 118 0;
#X connect 117 1 118 2;
#X connect 118 0 119 0;
#X connect 120 0 121 0;
#X connect 121 0 122 0;
#X connect 121 1 122 2;
#X connect 122 0 123 0;
#X connect 124 0 125 0;
#X connect 125 0 126 0;
#X connect 125 1 126 2;
#X connect 126 0 127 0;
#X connect 128 0 129 0;
#X connect 129 0 130 0;
#X connect 129 1 130 2;
#X connect 130 0 131 0;
#X connect 132 0 133 0;
#X connect 133 0 134 0;
#X connect 133 1 134 2;
#X connect 134 0 135 0;
#X connect 136 0 137 0;
#X connect 137 0 138 0;
#X connect 137 1 138 2;
#X connect 138 0 139 0;
#X connect 140 0 141 0;
#X connect 141 0 142 0;
#X connect 141 1 142 2;
#X connect 142 0 143 0;
#X connect 144 0 145 0;
#X connect 145 0 146 0;
#X connect 145 1 146 2;
#X connect 146 0 147 0;
#X connect 148 0 149 0;
#X connect 149 0 150 0;
#X connect 149 1 150 2;
#X connect 150 0 151 0;
#X connect 152 0 153 0;
#X connect 153 0 154 0;
#X connect 153 1 154 2;
#X connect 154 0 155 0;
#X connect 156 0 157 0;
#X connect 157 0 158 0;
#X connect 157 1 158 2;
#X connect 158 0 159 0;
#X connect 160 0 161 0;
#X connect 161 0 162 0;
#X connect 161 1 162 2;
#X connect 162 0 163 0;
#X connect 164 0 165 0;
#X connect 165 0 166 0;
#X connect 165 1 166 2;
#X connect 166 0 167 0;
#X connect 168 0 169 0;
#X connect 169 0 170 0;
#X connect 169 1 170 2;
#X connect 170 0 171 0;
#X connect 172 0 173 0;
#X connect 173 0 174 0;
#X connect 173 1 174 2;
#X connect 174 0 175 0;
#X connect 176 0 177 0;
#X connect 177 0 178 0;
#X connect 177 1 178 2;
#X connect 178 0 179 0;
#X connect 180 0 181 0;
#X connect 181 0 182 0;
#X connect 181 1 182 2;
#X connect 182 0 183 0;
#X connect 184 0 185 0;
#X connect 185 0 186 0;
#X connect 185 1 186 2;
#X connect 186 0 187 0;
#X connect 188 0 189 0;
#X connect 189 0 190 0;
#X connect 189 1 190 2;
#X connect 190 0 191 0;
#X connect 192 0 193 0;
#X connect 193 0 194 0;
#X connect 193 1 194 2;
#X connect 194 0 195 0;
#X connect 196 0 197 0;
#X connect 197 0 198 0;
#X connect 197 1 198 2;
#X connect 198 0 199 0;
#X connect 200 0 201 0;
#X connect 201 0 202 0;
#X connect 201 1 202 2;
#X connect 202 0 203 0;
#X connect 204 0 205 0;
#X connect 205 0 206 0;
#X connect 205 1 206 2;
#X connect 206 0 207 0;
#X connect 208 0 209 0;
#X connect 209 0 210 0;
#X connect 209 1 210 2;
#X connect 210 0 211 0;
#X connect 212 0 213 0;
#X connect 213 0 214 0;
#X connect 213 1 214 2;
#X connect 214 0 215 0;
#X connect 216 0 217 0;
#X connect 217 0 218 0;
#X connect 217 1 218 2;
#X connect 218 0 219 0;
#X connect 220 0 221 0;
#X connect 221 0 222 0;
#X connect 221 1 222 2;
#X connect 222 0 223 0;
#X connect 224 0 225 0;
#X connect 225 0 226 0;
#X connect 225 1 226 2;
#X connect 226 0 227 0;
#X connect 228 0 229 0;
#X connect 229 0 230 0;
#X connect 229 1 230 2;
#X connect 230 0 231 0;
#X connect 232 0 233 0;
#X connect 233 0 234 0;
#X connect 233 1 234 2;
#X connect 234 0 235 0;
#X connect 236 0 237 0;
#X connect 237 0 238 0;
#X connect 237 1 238 2;
#X connect 238 0 239 0;
#X connect 240 0 241 0;
#X connect 241 0 242 0;
#X connect 241 1 242 2;
#X connect 242 0 243 0;
#X connect 244 0 245 0;
#X connect 245 0 246 0;
#X connect 245 1 246 2;
#X connect 246 0 247 0;
#X connect 248 0 249 0;
#X connect 249 0 250 0;
#X connect 249 1 250 2;
#X connect 250 0 251 0;
#X connect 252 0 253 0;
#X connect 253 0 254 0;
#X connect 253 1 254 2;
#X connect 254 0 255 0;
#X connect 256 0 257 0;
#X connect 257 0 258 0;
#X connect 257 1 258 2;
#X connect 258 0 259 0;
#X connect 260 0 261 0;
#X connect 261 0 262 0;
#X connect 261 1 262 2;
#X connect 262 0 263 0;
#X connect 264 0 265 0;
#X connect 265 0 266 0;
#X connect 265 1 266 2;
#X connect 266 0 267 0;
#X connect 268 0 269 0;
#X connect 269 0 270 0;
#X connect 269 1 270 2;
#X connect 270 0 271 0;
#X connect 272 0 273 0;
#X connect 273 0 274 0;
#X connect 273 1 274 2;
#X connect 274 0 275 0;
#X connect 276 0 277 0;
#X connect 277 0 278 0;
#X connect 277 1 278 2;
#X connect 278 0 279 0;
#X connect 280 0 281 0;
#X connect 281 0 282 0;
#X connect 281 1 282 2;
#X connect 282 0 283 0;
#X connect 284 0 285 0;
#X connect 285 0 286 0;
#X connect 285 1 286 2;
#X connect 286 0 287 0;
#X connect 288 0 289 0;
#X connect 289 0 290 0;
#X connect 289 1 290 2;
#X connect 290 0 291 0;
#X connect 292 0 293 0;
#X connect 293 0 294 0;
#X connect 293 1 294 2;
#X connect 294 0 295 0;
#X connect 296 0 297 0;
#X connect 297 0 298 0;
#X connect 297 1 298 2;
#X connect 298 0 299 0;
#X connect 300 0 301 0;
#X connect 301 0 302 0;
#X connect 301 1 302 2;
#X connect 302 0 303 0;
#X connect 304 0 305 0;
#X connect 305 0 306 0;
#X connect 305 1 306 2;
#X connect 306 0 307 0;
#X connect 308 0 309 0;
#X connect 309 0 310 0;
#X connect 309 1 310 2;
#X connect 310 0 311 0;
#X connect 312 0 313 0;
#X connect 313 0 314 0;
#X connect 313 1 314 2;
#X connect 314 0 315 0;
#X connect 316 0 317 0;
#X connect 317 0 318 0;
#X connect 317 1 318 2;
#X connect 318 0 319 0;
#X connect 320 0 321 0;
#X connect 321 0 322 0;
#X connect 321 1 322 2;
#X connect 322 0 323 0;
#X connect 324 0 325 0;
#X connect 325 0 326 0;
#X connect 325 1 326 2;
#X connect 326 0 327 0;
#X connect 328 0 329 0;
#X connect 329 0 330 0;
#X connect 329 1 330 2;
#X connect 330 0 331 0;
#X connect 332 0 333 0;
#X connect 333 0 334 0;
#X connect 333 1 334 2;
#X connect 334 0 335 0;
#X connect 336 0 337 0;
#X connect 337 0 338 0;
#X connect 337 1 338 2;
#X connect 338 0 339 0;
#X connect 340 0 341 0;
#X connect 341 0 342 0;
#X connect 341 1 342 2;
#X connect 342 0 343 0;
#X connect 344 0 345 0;
#X connect 345 0 346 0;
#X connect 345 1 346 2;
#X connect 346 0 347 0;
#X connect 348 0 349 0;
#X connect 349 0 350 0;
#X connect 349 1 350 2;
#X connect 350 0 351 0;
#X connect 352 0 353 0;
#X connect 353 0 354 0;
#X connect 353 1 354 2;
#X connect 354 0 355 0;
#X connect 356 0 357 0;
#X connect 357 0 358 0;
#X connect 357 1 358 2;
#X connect 358 0 359 0;
#X connect 360 0 361 0;
#X connect 361 0 362 0;
#X connect 361 1 362 2;
#X connect 362 0 363 0;
#X connect 364 0 365 0;
#X connect 365 0 366 0;
#X connect 365 1 366 2;
#X connect 366 0 367 0;
#X connect 368 0 369 0;
#X connect 369 0 370 0;
#X connect 369 1 370 2;
#X connect 370 0 371 0;
#X connect 372 0 373 0;
#X connect 373 0 374 0;
#X connect 373 1 374 2;
#X connect 374 0 375 0;
#X connect 376 0 377 0;
#X connect 377 0 378 0;
#X connect 377 1 378 2;
#X connect 378 0 379 0;
#X connect 380 0 381 0;
#X connect 381 0 382 0;
#X connect 381 1 382 2;
#X connect 382 0 383 0;
#X connect 384 0 385 0;
#X connect 385 0 386 0;
#X connect 385 1 386 2;
#X connect 386 0 387 0;
#X connect 388 0 389 0;
#X connect 389 0 390 0;
#X connect 389 1 390 2;
#X connect 390 0 391 0;
#X connect 392 0 393 0;
#X connect 393 0 394 0;
#X connect 393 1 394 2;
#X connect 394 0 395 0;
#X connect 396 0 397 0;
#X connect 397 0 398 0;
#X connect 397 1 398 2;
#X connect 398 0 399 0;
#X restore 26 246 pd \$0-sends-receives;
#X obj 26 223 namecanvas \$0-canvas;
#X text 24 203 (see namecanvas-help.pd and;
#X obj 29 13 loadbang;
#X text 194 203 Help > Browser > Pure Data > 5.reference > pd-messages.pd)
;
#X msg 364 35 dump;
#X msg 322 35 clear;
#X obj 278 109 t a a;
#X obj 322 15 r \$0-clear;
#X obj 278 15 r \$0-o;
#X text 25 189 This patch initializes its own GOP parameters thanks
to;
#X text 360 189 [namecanvas];
#X obj 278 88 route list;
#N canvas 377 514 450 300 send-to-toggles 0;
#X obj 73 160 send;
#X msg 73 76 \$3 \$1 \$2;
#X obj 73 97 list split 1;
#X msg 73 117 set \$1;
#N canvas 615 414 450 300 make-tgl-input-name 0;
#X obj 104 165 makefilename;
#X msg 136 139 set \$1;
#X obj 98 95 unpack f f;
#X obj 94 70 inlet;
#X obj 113 245 outlet;
#X obj 136 118 makefilename \$0-%%d-%d-i;
#X connect 0 0 4 0;
#X connect 1 0 0 0;
#X connect 2 0 0 0;
#X connect 2 1 5 0;
#X connect 3 0 2 0;
#X connect 5 0 1 0;
#X restore 107 137 pd make-tgl-input-name;
#X obj 73 34 inlet;
#X connect 1 0 2 0;
#X connect 2 0 3 0;
#X connect 2 1 4 0;
#X connect 3 0 0 0;
#X connect 4 0 0 1;
#X connect 5 0 1 0;
#X restore 278 153 pd send-to-toggles;
#X obj 29 42 t b b;
#X floatatom 128 19 5 1 1e+06 2 inlets - - 0;
#X floatatom 167 19 5 1 1e+06 2 outlets - - 0;
#X floatatom 89 19 5 1 1e+06 2 sends - - 0;
#N canvas 348 485 389 193 pak3 0;
#X obj 175 110 pack f f f;
#X obj 192 80 t b f;
#X obj 231 80 t b f;
#X obj 151 44 inlet;
#X obj 192 44 inlet;
#X obj 231 44 inlet;
#X obj 175 141 outlet;
#X connect 0 0 6 0;
#X connect 1 0 0 0;
#X connect 1 1 0 1;
#X connect 2 0 0 0;
#X connect 2 1 0 2;
#X connect 3 0 0 0;
#X connect 4 0 1 0;
#X connect 5 0 2 0;
#X restore 109 42 pd pak3;
#X obj 29 65 pack \$2 \$3 \$4;
#X obj 278 67 jl/routerctrl \$2 \$3 \$4;
#N canvas 411 45 882 699 make-ui 0;
#X floatatom 343 253 5 1 1e+06 2 - - - 0;
#X obj 365 339 s \$0-cellsize;
#X floatatom 379 253 5 1 1e+06 2 - - - 0;
#X obj 401 319 s \$0-spacer;
#X floatatom 415 253 5 1 1e+06 2 - - - 0;
#X obj 437 299 s \$0-number-height;
#X floatatom 451 253 5 1 1e+06 2 - - - 0;
#X obj 462 279 s \$0-number-bottom;
#X obj 663 471 r \$0-number-bottom;
#X obj 641 450 r \$0-number-height;
#X obj 624 429 r \$0-spacer;
#X obj 603 408 r \$0-cellsize;
#X obj 603 547 pack f f f f;
#X obj 624 471 t b f;
#X obj 641 493 t b f;
#X obj 650 519 t b f;
#X obj 575 574 list;
#N canvas 719 245 499 432 make-1pix-black-border-square 0;
#X obj 133 97 t l l;
#X msg 112 343 obj \$1 \$2 cnv 12 \$3 \$3 \\\\ \\\\ \\\\ 0 0 0 12 2
2;
#X obj 93 136 unpack f f f;
#X obj 93 156 + 1;
#X obj 127 156 + 1;
#X obj 162 156 - 2;
#X obj 93 217 pack f f f;
#X obj 79 382 outlet;
#X obj 131 37 inlet;
#X text 177 33 x \, y \, size;
#X msg 58 294 obj \$1 \$2 cnv 12 \$3 \$3 \\\\ \\\\ \\\\ 0 0 0 12 90
90;
#X connect 0 0 2 0;
#X connect 0 1 1 0;
#X connect 1 0 7 0;
#X connect 2 0 3 0;
#X connect 2 1 4 0;
#X connect 2 2 5 0;
#X connect 3 0 6 0;
#X connect 4 0 6 1;
#X connect 5 0 6 2;
#X connect 6 0 10 0;
#X connect 8 0 0 0;
#X connect 10 0 7 0;
#X restore 238 449 pd make-1pix-black-border-square;
#N canvas 630 182 467 615 compute-square-positions-and-sizes 0;
#X obj 61 182 until;
#X obj 72 227 f;
#X obj 97 227 + 1;
#X msg 99 199 0;
#X obj 157 288 t f f;
#X obj 94 95 unpack f f f;
#X obj 167 120 t f f;
#X obj 232 397 r \$0-matrix-x;
#X obj 255 416 r \$0-matrix-y;
#X obj 150 410 t f f;
#X obj 153 544 pack f f f;
#X obj 189 322 *;
#X obj 215 322 *;
#X obj 183 376 +;
#X obj 211 377 +;
#X obj 242 322 r \$0-smallest-line;
#X obj 233 353 r \$0-smallest-square-side;
#X obj 150 142 +;
#X obj 95 30 inlet;
#X obj 153 574 outlet;
#X msg 95 51 \$3;
#X obj 94 73 pack f f f;
#X obj 205 27 r \$0-cellsize;
#X obj 218 47 r \$0-spacer;
#X obj 82 157 t f b f;
#X obj 60 254 expr $f2 - $f1 - 1;
#X obj 293 440 r \$0-offset;
#X obj 165 484 expr $f2 + $f3 + $f4 - $f1;
#X obj 194 504 expr $f2 + $f3 + $f4 - $f1;
#X obj 332 459 r \$0-padding;
#X text 136 30 sends;
#X connect 0 0 1 0;
#X connect 1 0 2 0;
#X connect 1 0 25 0;
#X connect 2 0 1 1;
#X connect 3 0 1 1;
#X connect 4 0 11 0;
#X connect 4 1 12 0;
#X connect 5 0 24 0;
#X connect 5 1 17 0;
#X connect 5 2 6 0;
#X connect 6 0 17 1;
#X connect 6 1 11 1;
#X connect 7 0 27 1;
#X connect 8 0 28 1;
#X connect 9 0 27 0;
#X connect 9 1 28 0;
#X connect 10 0 19 0;
#X connect 11 0 13 0;
#X connect 12 0 14 0;
#X connect 13 0 9 0;
#X connect 14 0 10 2;
#X connect 15 0 13 1;
#X connect 16 0 14 1;
#X connect 17 0 12 1;
#X connect 18 0 20 0;
#X connect 20 0 21 0;
#X connect 21 0 5 0;
#X connect 22 0 21 1;
#X connect 23 0 21 2;
#X connect 24 0 0 0;
#X connect 24 1 3 0;
#X connect 24 2 25 1;
#X connect 25 0 4 0;
#X connect 26 0 27 2;
#X connect 26 0 28 2;
#X connect 27 0 10 0;
#X connect 28 0 10 1;
#X connect 29 0 27 3;
#X connect 29 0 28 3;
#X restore 238 428 pd compute-square-positions-and-sizes;
#X obj 142 449 t l l;
#X obj 176 300 t l l l b;
#X msg 298 356 clear;
#X obj 582 279 s \$0-offset;
#X msg 582 220 10;
#X floatatom 582 240 5 0 0 0 - - - 0;
#X floatatom 619 239 5 0 0 0 - - - 0;
#X obj 619 259 s \$0-padding;
#N canvas 240 182 963 598 compute-label-positions-and-sizes 0;
#X obj 294 6 inlet;
#X obj 378 525 outlet;
#X obj 320 211 r \$0-matrix-y;
#X obj 244 121 r \$0-matrix-x;
#X obj 255 292 +;
#X obj 274 141 r \$0-cellsize;
#X obj 296 161 r \$0-number-height;
#X obj 273 212 -;
#X obj 273 233 * 0.5;
#X obj 274 254 t b f;
#X obj 325 350 -;
#X obj 341 231 r \$0-number-height;
#X obj 365 252 r \$0-number-bottom;
#X obj 343 301 +;
#X obj 99 229 until;
#X msg 137 230 0;
#X obj 123 260 f;
#X obj 153 262 + 1;
#X obj 110 355 *;
#X obj 110 376 +;
#X obj 159 294 r \$0-cellsize;
#X obj 342 321 t b f;
#X obj 357 277 t b f;
#X obj 296 184 t b f;
#X obj 112 294 t f f;
#X obj 330 373 +;
#X obj 259 326 +;
#X obj 421 288 r \$0-padding;
#X obj 202 369 r \$0-number-height;
#X obj 438 309 r \$0-offset;
#X obj 431 354 +;
#X obj 435 329 t b f;
#X obj 128 431 pack f f f f;
#X obj 62 141 unpack f f f;
#X obj 55 232 until;
#X obj 598 159 -;
#X obj 614 40 r \$0-number-height;
#X obj 638 61 r \$0-number-bottom;
#X obj 616 110 +;
#X obj 615 130 t b f;
#X obj 630 86 t b f;
#X obj 593 20 r \$0-matrix-x;
#X obj 765 194 +;
#X obj 784 43 r \$0-cellsize;
#X obj 806 63 r \$0-number-height;
#X obj 783 114 -;
#X obj 783 135 * 0.5;
#X obj 784 156 t b f;
#X obj 806 86 t b f;
#X obj 754 23 r \$0-matrix-y;
#X obj 513 227 until;
#X msg 553 228 0;
#X obj 526 258 f;
#X obj 556 260 + 1;
#X obj 526 202 t f b;
#X obj 724 304 +;
#X obj 744 276 t b f;
#X obj 115 195 t f b f f;
#X obj 592 419 pack f f f f;
#X obj 681 391 r \$0-number-height;
#X obj 762 249 *;
#X obj 789 217 r \$0-cellsize;
#X obj 720 359 +;
#X obj 578 371 +;
#X obj 799 261 r \$0-padding;
#X obj 816 282 r \$0-offset;
#X obj 809 327 +;
#X obj 813 302 t b f;
#X obj 616 394 +;
#X obj 579 308 t f f;
#X obj 593 339 *;
#X obj 620 307 r \$0-cellsize;
#X obj 652 366 + 1;
#X obj 296 34 t l l;
#X obj 501 167 unpack f f f;
#X obj 560 393 f;
#X obj 537 285 t b f;
#X obj 149 343 moses;
#X obj 175 367 -;
#X obj 176 323 t f f;
#X obj 168 389 + 1;
#X connect 0 0 73 0;
#X connect 2 0 10 0;
#X connect 3 0 4 0;
#X connect 4 0 26 0;
#X connect 5 0 7 0;
#X connect 6 0 23 0;
#X connect 7 0 8 0;
#X connect 8 0 9 0;
#X connect 9 0 4 0;
#X connect 9 1 4 1;
#X connect 10 0 25 0;
#X connect 11 0 13 0;
#X connect 12 0 22 0;
#X connect 13 0 21 0;
#X connect 14 0 16 0;
#X connect 15 0 16 1;
#X connect 16 0 17 0;
#X connect 16 0 24 0;
#X connect 17 0 16 1;
#X connect 18 0 19 0;
#X connect 19 0 32 0;
#X connect 20 0 18 1;
#X connect 21 0 10 0;
#X connect 21 1 10 1;
#X connect 22 0 13 0;
#X connect 22 1 13 1;
#X connect 23 0 7 0;
#X connect 23 1 7 1;
#X connect 24 0 18 0;
#X connect 24 1 77 0;
#X connect 25 0 32 1;
#X connect 26 0 19 1;
#X connect 27 0 30 0;
#X connect 28 0 32 2;
#X connect 29 0 31 0;
#X connect 30 0 25 1;
#X connect 30 0 26 1;
#X connect 31 0 30 0;
#X connect 31 1 30 1;
#X connect 32 0 1 0;
#X connect 33 0 34 0;
#X connect 33 2 57 0;
#X connect 34 0 16 0;
#X connect 35 0 63 0;
#X connect 36 0 38 0;
#X connect 37 0 40 0;
#X connect 38 0 39 0;
#X connect 39 0 35 0;
#X connect 39 1 35 1;
#X connect 40 0 38 0;
#X connect 40 1 38 1;
#X connect 41 0 35 0;
#X connect 42 0 55 0;
#X connect 43 0 45 0;
#X connect 44 0 48 0;
#X connect 45 0 46 0;
#X connect 46 0 47 0;
#X connect 47 0 42 0;
#X connect 47 1 42 1;
#X connect 48 0 45 0;
#X connect 48 1 45 1;
#X connect 49 0 42 0;
#X connect 50 0 52 0;
#X connect 51 0 52 1;
#X connect 52 0 53 0;
#X connect 52 0 76 0;
#X connect 53 0 52 1;
#X connect 54 0 50 0;
#X connect 54 1 51 0;
#X connect 55 0 62 0;
#X connect 56 0 55 0;
#X connect 56 1 55 1;
#X connect 57 0 14 0;
#X connect 57 1 15 0;
#X connect 57 2 79 0;
#X connect 58 0 1 0;
#X connect 59 0 58 2;
#X connect 60 0 56 0;
#X connect 61 0 60 1;
#X connect 62 0 68 1;
#X connect 63 0 75 1;
#X connect 64 0 66 0;
#X connect 65 0 67 0;
#X connect 66 0 62 1;
#X connect 66 0 63 1;
#X connect 67 0 66 0;
#X connect 67 1 66 1;
#X connect 68 0 58 1;
#X connect 69 0 70 0;
#X connect 69 1 72 0;
#X connect 70 0 68 0;
#X connect 71 0 70 1;
#X connect 72 0 58 3;
#X connect 73 0 33 0;
#X connect 73 1 74 0;
#X connect 74 1 54 0;
#X connect 74 2 60 0;
#X connect 75 0 58 0;
#X connect 76 0 75 0;
#X connect 76 1 69 0;
#X connect 77 0 80 0;
#X connect 77 1 78 0;
#X connect 78 0 80 0;
#X connect 79 0 77 1;
#X connect 79 1 78 1;
#X connect 80 0 32 3;
#X restore 193 382 pd compute-label-positions-and-sizes;
#N canvas 711 352 450 300 make-label 0;
#X obj 37 17 inlet;
#X obj 52 186 outlet;
#X text 79 45 numbers : <x \, y \, size \, label>;
#X obj 57 61 t l l;
#X obj 55 113 list append;
#X msg 101 70 \$3;
#X obj 106 90 - 2;
#X text 134 83 < compute font size (a bit clunky);
#X msg 55 136 obj \$1 \$2 cnv \$3 \$3 \$3 \\\\ \\\\ \$4 1 6 0 8 12
100;
#X connect 0 0 8 0;
#X connect 3 0 4 0;
#X connect 3 1 5 0;
#X connect 4 0 8 0;
#X connect 5 0 6 0;
#X connect 6 0 4 1;
#X connect 8 0 1 0;
#X restore 193 403 pd make-label;
#X obj 193 361 t l l;
#X obj 391 186 t b b b b;
#X msg 81 234 \$2 \$3 \$1;
#N canvas 121 146 599 437 compute-variables 0;
#X obj 265 332 s \$0-matrix-x;
#X obj 292 312 s \$0-matrix-y;
#X obj 238 157 t l l;
#X obj 265 178 -;
#X obj 265 290 t f f;
#X obj 280 157 expr $f4 * 0.5;
#X obj 238 136 expr $f4 * 0.5 + $f5 + $f6 + $f7;
#X obj 265 266 +;
#X obj 335 178 expr max($f3 - 1 \, 0) * $f5;
#X obj 265 209 t f f;
#X obj 310 270 s \$0-smallest-line;
#X obj 238 366 s \$0-smallest-square-side;
#X text 372 155 < half-cellsize;
#X text 440 136 < smallest square side;
#X obj 221 35 inlet;
#N canvas 267 137 450 379 view-dimensions-from-wh 0;
#X obj 223 92 r \$0-cellsize;
#X obj 161 124 *;
#X obj 188 124 *;
#X obj 144 72 unpack f f;
#X obj 156 192 +;
#X obj 184 195 +;
#X obj 227 141 r \$0-matrix-x;
#X obj 235 164 r \$0-matrix-y;
#X obj 235 202 r \$0-padding;
#X obj 236 223 * 2;
#X obj 163 253 +;
#X obj 191 256 +;
#X obj 147 35 inlet;
#X obj 162 291 pack f f;
#X obj 156 324 outlet;
#X connect 0 0 1 1;
#X connect 0 0 2 1;
#X connect 1 0 4 0;
#X connect 2 0 5 0;
#X connect 3 0 1 0;
#X connect 3 1 2 0;
#X connect 4 0 10 0;
#X connect 5 0 11 0;
#X connect 6 0 4 1;
#X connect 7 0 5 1;
#X connect 8 0 9 0;
#X connect 9 0 11 1;
#X connect 9 0 10 1;
#X connect 10 0 13 0;
#X connect 11 0 13 1;
#X connect 12 0 3 0;
#X connect 13 0 14 0;
#X restore 63 247 pd view-dimensions-from-wh;
#N canvas 150 175 450 300 wh-from-sio 0;
#X obj 111 109 expr $f1 + $f3;
#X obj 156 129 expr $f2 + $f3;
#X obj 111 89 t l l;
#X obj 111 168 pack f f;
#X floatatom 111 149 5 0 0 0 - - - 0;
#X floatatom 156 149 5 0 0 0 - - - 0;
#X obj 107 48 inlet;
#X obj 111 214 outlet;
#X connect 0 0 4 0;
#X connect 1 0 5 0;
#X connect 2 0 0 0;
#X connect 2 1 1 0;
#X connect 3 0 7 0;
#X connect 4 0 3 0;
#X connect 5 0 3 1;
#X connect 6 0 2 0;
#X restore 63 185 pd wh-from-sio;
#X obj 221 58 t l l l l;
#X obj 63 165 list split 3;
#X obj 63 206 t l l;
#X obj 90 226 s \$0-wh;
#X obj 63 268 s \$0-view-dimensions;
#X connect 2 0 11 0;
#X connect 2 1 3 0;
#X connect 3 0 9 0;
#X connect 4 0 0 0;
#X connect 4 1 1 0;
#X connect 5 0 3 1;
#X connect 6 0 2 0;
#X connect 7 0 4 0;
#X connect 8 0 7 1;
#X connect 9 0 7 0;
#X connect 9 1 10 0;
#X connect 14 0 17 0;
#X connect 15 0 21 0;
#X connect 16 0 19 0;
#X connect 17 0 18 0;
#X connect 17 1 6 0;
#X connect 17 2 5 0;
#X connect 17 3 8 0;
#X connect 18 0 16 0;
#X connect 19 0 15 0;
#X connect 19 1 20 0;
#X restore 575 596 pd compute-variables;
#N canvas 150 175 450 300 wh-from-sio 0;
#X obj 111 109 expr $f1 + $f3;
#X obj 156 129 expr $f2 + $f3;
#X obj 111 89 t l l;
#X obj 111 168 pack f f;
#X floatatom 111 149 5 0 0 0 - - - 0;
#X floatatom 156 149 5 0 0 0 - - - 0;
#X obj 107 48 inlet;
#X obj 111 214 outlet;
#X connect 0 0 4 0;
#X connect 1 0 5 0;
#X connect 2 0 0 0;
#X connect 2 1 1 0;
#X connect 3 0 7 0;
#X connect 4 0 3 0;
#X connect 5 0 3 1;
#X connect 6 0 2 0;
#X restore 142 428 pd wh-from-sio;
#N canvas 179 204 352 472 set-canvas-dimensions 0;
#X obj 134 86 r \$0-cellsize;
#X obj 72 118 *;
#X obj 99 118 *;
#X obj 55 66 unpack f f;
#X obj 67 186 +;
#X obj 95 189 +;
#X obj 138 135 r \$0-matrix-x;
#X obj 146 158 r \$0-matrix-y;
#X obj 146 196 r \$0-padding;
#X obj 147 217 * 2;
#X obj 74 247 +;
#X obj 102 250 +;
#X obj 70 26 inlet;
#X obj 87 416 outlet;
#X text 72 315 this controls graph-on-parent;
#X msg 58 333 donecanvasdialog 1 -1 2 0 -1 1 1 \$1 \$2 \$3 \$3;
#X obj 73 289 pack f f f;
#X obj 239 222 r \$0-offset;
#X obj 202 403 unpack f f;
#X floatatom 203 428 5 0 0 0 - - - 0;
#X floatatom 259 427 5 0 0 0 - - - 0;
#X obj 203 373 s \$0-view-dimensions;
#X obj 74 267 +;
#X obj 102 269 +;
#X obj 239 266 loadbang;
#X msg 239 286 0;
#X connect 0 0 1 1;
#X connect 0 0 2 1;
#X connect 1 0 4 0;
#X connect 2 0 5 0;
#X connect 3 0 1 0;
#X connect 3 1 2 0;
#X connect 4 0 10 0;
#X connect 5 0 11 0;
#X connect 6 0 4 1;
#X connect 7 0 5 1;
#X connect 8 0 9 0;
#X connect 9 0 11 1;
#X connect 9 0 10 1;
#X connect 10 0 22 0;
#X connect 11 0 23 0;
#X connect 12 0 3 0;
#X connect 15 0 13 0;
#X connect 16 0 15 0;
#X connect 16 0 18 0;
#X connect 16 0 21 0;
#X connect 17 0 16 2;
#X connect 18 0 19 0;
#X connect 18 1 20 0;
#X connect 22 0 16 0;
#X connect 23 0 16 1;
#X connect 24 0 25 0;
#X connect 25 0 23 1;
#X connect 25 0 22 1;
#X restore 169 474 pd set-canvas-dimensions;
#X obj 547 407 r \$0-ios;
#X obj 238 357 s \$0-ios;
#X obj 555 74 t b b;
#X obj 555 55 bng 15 250 50 0 empty empty empty 17 7 0 10 #fcfcfc #000000
#000000;
#X obj 582 194 t b b;
#N canvas 240 48 1142 736 create-cells 0;
#X obj 338 19 inlet;
#X obj 162 554 outlet;
#X obj 63 236 unpack f f;
#X obj 315 392 unpack f f s;
#X obj 153 176 r \$0-cellsize;
#X obj 184 206 r \$0-matrix-x;
#X obj 214 226 r \$0-matrix-y;
#X obj 291 180 r \$0-offset;
#X obj 320 200 r \$0-padding;
#X obj 120 256 expr $f2 * $f1 + $f3 + $f4 + $f5;
#X obj 81 285 expr $f2 * $f1 + $f3 + $f4 + $f5;
#X obj 281 351 r \$0-ios;
#N canvas 536 452 451 379 iter-coords 0;
#X obj 155 165 until;
#X obj 150 102 expr $f1 * $f2;
#X floatatom 150 122 5 0 0 0 - - - 0;
#X obj 161 197 f;
#X obj 189 198 + 1;
#X obj 161 267 mod;
#X msg 249 161 0;
#X obj 206 267 /;
#X obj 206 288 i;
#X obj 150 142 clip 1 1000;
#X msg 303 161 \$1;
#X obj 210 54 t a a b;
#X obj 210 14 inlet;
#X obj 161 219 t f f f;
#X obj 161 321 pack f f;
#X obj 161 343 outlet;
#X connect 0 0 3 0;
#X connect 1 0 2 0;
#X connect 2 0 9 0;
#X connect 3 0 4 0;
#X connect 3 0 13 0;
#X connect 4 0 3 1;
#X connect 5 0 14 0;
#X connect 6 0 3 1;
#X connect 7 0 8 0;
#X connect 8 0 14 1;
#X connect 9 0 0 0;
#X connect 10 0 7 1;
#X connect 10 0 5 1;
#X connect 11 0 1 0;
#X connect 11 1 10 0;
#X connect 11 2 6 0;
#X connect 12 0 11 0;
#X connect 13 0 5 0;
#X connect 13 1 7 0;
#X connect 14 0 15 0;
#X restore 318 75 pd iter-coords;
#N canvas 432 245 552 479 pick-colors 0;
#X obj 74 17 inlet;
#X obj 211 16 inlet;
#X obj 139 180 <;
#X obj 214 181 <;
#X obj 121 134 unpack f f;
#X obj 130 217 expr $f1 + 2 * $f2;
#X floatatom 93 217 5 0 0 0 - - - 0;
#X obj 130 238 sel 0 1 2 3;
#X msg 194 108 \$3 \$3;
#X obj 189 134 unpack f f;
#X obj 150 422 outlet;
#X obj 167 306 symbol ../abstractions/toggle-unit-white;
#X obj 146 328 symbol ../abstractions/toggle-unit-grey;
#X obj 129 350 symbol ../abstractions/toggle-unit-dark-grey;
#X obj 149 381 unpack f f;
#X obj 196 422 outlet;
#X text 283 97 white 0/90 \, smokeywhite 100;
#X text 282 82 blacks/greys : 1 \, 2 \, 11 \, 12 \, 21 \, 22;
#X msg 110 271 2 90;
#X msg 196 274 0 2;
#X msg 157 272 1 90;
#X connect 0 0 4 0;
#X connect 1 0 8 0;
#X connect 2 0 5 0;
#X connect 3 0 5 1;
#X connect 4 0 2 0;
#X connect 4 1 3 0;
#X connect 5 0 6 0;
#X connect 5 0 7 0;
#X connect 7 0 18 0;
#X connect 7 1 18 0;
#X connect 7 2 20 0;
#X connect 7 3 19 0;
#X connect 8 0 9 0;
#X connect 9 0 2 1;
#X connect 9 1 3 1;
#X connect 11 0 14 0;
#X connect 12 0 14 0;
#X connect 13 0 14 0;
#X connect 14 0 10 0;
#X connect 14 1 15 0;
#X connect 18 0 14 0;
#X connect 19 0 14 0;
#X connect 20 0 14 0;
#X restore 200 373 pd pick-colors;
#N canvas 209 186 660 372 make-toggle 0;
#N canvas 295 320 450 300 make-tgl-output-name 0;
#X obj 104 165 makefilename;
#X msg 136 139 set \$1;
#X obj 98 95 unpack f f;
#X obj 94 70 inlet;
#X obj 113 245 outlet;
#X obj 136 118 makefilename \$0-%%d-%d-o;
#X connect 0 0 4 0;
#X connect 1 0 0 0;
#X connect 2 0 0 0;
#X connect 2 1 5 0;
#X connect 3 0 2 0;
#X connect 5 0 1 0;
#X restore 155 170 pd make-tgl-output-name;
#N canvas 140 316 450 300 make-tgl-input-name 0;
#X obj 104 165 makefilename;
#X msg 136 139 set \$1;
#X obj 98 95 unpack f f;
#X obj 94 70 inlet;
#X obj 113 245 outlet;
#X obj 136 118 makefilename \$0-%%d-%d-i;
#X connect 0 0 4 0;
#X connect 1 0 0 0;
#X connect 2 0 0 0;
#X connect 2 1 5 0;
#X connect 3 0 2 0;
#X connect 5 0 1 0;
#X restore 187 151 pd make-tgl-input-name;
#X obj 102 212 pack f f f s s f f;
#X obj 73 31 inlet;
#X obj 102 272 outlet;
#X text 112 231 cells : <x \, y \, cellsize \, s-name \, r-name \,
bg \, fg>;
#X text 365 115 white 0/90 \, smokeywhite 100;
#X text 364 100 blacks/greys : 1 \, 2 \, 11 \, 12 \, 21 \, 22;
#X obj 70 95 unpack f f f;
#X obj 72 64 list split 3;
#X obj 154 96 t l l;
#X obj 154 64 list split 2;
#X obj 251 116 unpack f f;
#X text 119 30 < x \, y \, size \, i \, j \, bg \, fg \, \$1;
#X msg 102 251 obj \$1 \$2 tgl \$3 \$3 \$4 \$5 \\\\ 0 0 0 9 \$6 \$7
0 0;
#X connect 0 0 2 3;
#X connect 1 0 2 4;
#X connect 2 0 14 0;
#X connect 3 0 9 0;
#X connect 8 0 2 0;
#X connect 8 1 2 1;
#X connect 8 2 2 2;
#X connect 9 0 8 0;
#X connect 9 1 11 0;
#X connect 10 0 0 0;
#X connect 10 1 1 0;
#X connect 11 0 10 0;
#X connect 11 1 12 0;
#X connect 12 0 2 5;
#X connect 12 1 2 6;
#X connect 14 0 4 0;
#X restore 162 488 pd make-toggle;
#X obj 161 463 pack f f f f f f f s;
#X obj 182 402 r \$0-cellsize;
#X text 260 483 x \, y \, size \, i \, j \, bg \, fg \, \$1;
#X obj 456 394 +;
#X obj 459 340 *;
#X obj 428 316 unpack f f;
#X obj 485 393 +;
#X obj 485 339 *;
#X obj 500 368 r \$0-offset;
#X obj 686 345 f;
#X msg 705 306 0;
#X text 461 42 x \, y1 \, y2 \, y3 \, y4 \, id1 \, id2 \, id3 \, id4
\, output name \, toggle output name \, i \, j;
#X obj 520 500 +;
#X obj 545 500 +;
#X obj 570 500 +;
#X obj 710 401 + 1;
#X obj 735 401 + 2;
#X obj 760 401 + 3;
#X obj 687 376 t f f f f;
#X obj 664 199 t l b l;
#X obj 532 287 loadbang;
#X obj 485 427 t f f f f;
#X msg 558 426 25;
#X msg 571 449 50;
#X msg 585 472 75;
#X obj 574 404 loadbang;
#X obj 479 531 pack f f f f f;
#X obj 687 425 pack f f f f;
#X obj 684 588 list;
#X obj 761 465 list;
#N canvas 615 414 450 300 make-tgl-output-name 0;
#X obj 104 165 makefilename;
#X msg 136 139 set \$1;
#X obj 98 95 unpack f f;
#X obj 94 70 inlet;
#X obj 113 245 outlet;
#X obj 136 118 makefilename \$0-%%d-%d-o;
#X connect 0 0 4 0;
#X connect 1 0 0 0;
#X connect 2 0 0 0;
#X connect 2 1 5 0;
#X connect 3 0 2 0;
#X connect 5 0 1 0;
#X restore 893 348 pd make-tgl-output-name;
#X obj 974 323 unpack f f;
#X obj 320 97 t l l;
#X obj 914 405 pack s s f f;
#X obj 914 296 t l b l;
#X obj 713 345 + 4;
#X msg 541 312 100;
#X msg 865 543 clear;
#X obj 729 146 t b b;
#X obj 338 41 t l b;
#X msg 506 314 130;
#X msg 684 609 obj \$1 \$2 receive \$10 \, obj \$1 \$3 t b f \, obj
\$1 \$4 pack \$12 \$13 f \, obj \$1 \$5 send \$11 \, connect \$6 0
\$7 0 \, connect \$7 1 \$8 2 \, connect \$7 0 \$8 0 \, connect \$8
0 \$9 0;
#X obj 317 139 t l l;
#X obj 352 305 t l l;
#X obj 729 678 outlet;
#X obj 925 370 makefilename \$0-o;
#X connect 0 0 54 0;
#X connect 2 0 10 0;
#X connect 2 1 9 0;
#X connect 3 0 15 3;
#X connect 3 1 15 4;
#X connect 3 2 15 7;
#X connect 4 0 9 1;
#X connect 4 0 10 1;
#X connect 5 0 10 2;
#X connect 6 0 9 2;
#X connect 7 0 9 3;
#X connect 7 0 10 3;
#X connect 8 0 9 4;
#X connect 8 0 10 4;
#X connect 9 0 15 1;
#X connect 10 0 15 0;
#X connect 11 0 13 1;
#X connect 12 0 47 0;
#X connect 13 0 15 5;
#X connect 13 1 15 6;
#X connect 14 0 1 0;
#X connect 15 0 14 0;
#X connect 16 0 15 2;
#X connect 18 0 41 0;
#X connect 19 0 18 0;
#X connect 20 0 19 0;
#X connect 20 1 22 0;
#X connect 21 0 36 0;
#X connect 22 0 21 0;
#X connect 23 0 21 1;
#X connect 23 0 18 1;
#X connect 24 0 33 0;
#X connect 24 0 50 0;
#X connect 25 0 24 1;
#X connect 27 0 41 2;
#X connect 28 0 41 3;
#X connect 29 0 41 4;
#X connect 30 0 42 1;
#X connect 31 0 42 2;
#X connect 32 0 42 3;
#X connect 33 0 42 0;
#X connect 33 1 30 0;
#X connect 33 2 31 0;
#X connect 33 3 32 0;
#X connect 34 0 20 0;
#X connect 34 1 24 0;
#X connect 34 2 49 0;
#X connect 35 0 55 0;
#X connect 35 0 51 0;
#X connect 36 0 41 1;
#X connect 36 1 27 0;
#X connect 36 2 28 0;
#X connect 36 3 29 0;
#X connect 37 0 27 1;
#X connect 38 0 28 1;
#X connect 39 0 29 1;
#X connect 40 0 37 0;
#X connect 40 0 38 0;
#X connect 40 0 39 0;
#X connect 41 0 43 0;
#X connect 42 0 44 0;
#X connect 43 0 56 0;
#X connect 44 0 43 1;
#X connect 45 0 48 0;
#X connect 46 0 48 2;
#X connect 46 1 48 3;
#X connect 47 0 57 0;
#X connect 47 1 34 0;
#X connect 48 0 44 1;
#X connect 49 0 45 0;
#X connect 49 1 60 0;
#X connect 49 2 46 0;
#X connect 50 0 24 1;
#X connect 51 0 22 1;
#X connect 52 0 59 0;
#X connect 53 0 25 0;
#X connect 53 1 52 0;
#X connect 54 0 12 0;
#X connect 54 1 53 0;
#X connect 55 0 19 1;
#X connect 56 0 59 0;
#X connect 57 0 2 0;
#X connect 57 1 58 0;
#X connect 58 0 13 0;
#X connect 58 1 3 0;
#X connect 60 0 48 1;
#X restore 142 497 pd create-cells;
#X msg 389 221 2;
#X msg 463 224 2;
#X msg 426 225 12;
#X obj 161 25 inlet;
#X obj 307 121 route cellsize spacer nbheight nbbottom offset padding
;
#X obj 161 61 route list;
#X obj 555 35 loadbang;
#X msg 619 219 2;
#X msg 354 221 12;
#X obj 270 551 s pd-\$0-sends-receives;
#X obj 240 581 s pd-\$0-mix;
#X obj 224 639 s \$0-canvas;
#N canvas 341 513 335 249 set-GOP-parameters 0;
#X obj 62 87 route donecanvasdialog;
#X obj 62 155 list prepend donecanvasdialog;
#X obj 62 174 list trim;
#X obj 62 60 inlet;
#X obj 62 197 outlet;
#X obj 62 110 list split 9;
#X obj 62 131 list append;
#X obj 125 60 inlet;
#X connect 0 0 5 0;
#X connect 1 0 2 0;
#X connect 2 0 4 0;
#X connect 3 0 0 0;
#X connect 5 0 6 0;
#X connect 6 0 1 0;
#X connect 7 0 6 1;
#X restore 239 611 pd set-GOP-parameters;
#X msg 119 559 dirty 0;
#X obj 193 557 t a a;
#X obj 475 506 inlet;
#X obj 81 255 t b l b;
#X connect 0 0 1 0;
#X connect 2 0 3 0;
#X connect 4 0 5 0;
#X connect 6 0 7 0;
#X connect 8 0 15 0;
#X connect 9 0 14 0;
#X connect 10 0 13 0;
#X connect 11 0 12 0;
#X connect 12 0 16 1;
#X connect 13 0 12 0;
#X connect 13 1 12 1;
#X connect 14 0 12 0;
#X connect 14 1 12 2;
#X connect 15 0 12 0;
#X connect 15 1 12 3;
#X connect 16 0 32 0;
#X connect 17 0 55 0;
#X connect 18 0 17 0;
#X connect 19 0 40 0;
#X connect 19 1 34 0;
#X connect 20 0 33 0;
#X connect 20 1 29 0;
#X connect 20 2 36 0;
#X connect 20 3 21 0;
#X connect 21 0 55 0;
#X connect 23 0 24 0;
#X connect 24 0 22 0;
#X connect 25 0 26 0;
#X connect 27 0 28 0;
#X connect 28 0 55 0;
#X connect 29 0 27 0;
#X connect 29 1 18 0;
#X connect 30 0 49 0;
#X connect 30 1 41 0;
#X connect 30 2 43 0;
#X connect 30 3 42 0;
#X connect 31 0 57 0;
#X connect 33 0 19 0;
#X connect 34 0 55 0;
#X connect 35 0 16 0;
#X connect 37 0 30 0;
#X connect 37 1 39 0;
#X connect 38 0 37 0;
#X connect 39 0 23 0;
#X connect 39 1 48 0;
#X connect 40 0 55 0;
#X connect 40 1 50 0;
#X connect 41 0 2 0;
#X connect 42 0 6 0;
#X connect 43 0 4 0;
#X connect 44 0 46 0;
#X connect 45 0 0 0;
#X connect 45 1 2 0;
#X connect 45 2 4 0;
#X connect 45 3 6 0;
#X connect 45 4 24 0;
#X connect 45 5 25 0;
#X connect 46 0 31 0;
#X connect 46 1 45 0;
#X connect 47 0 38 0;
#X connect 48 0 25 0;
#X connect 49 0 0 0;
#X connect 53 0 52 0;
#X connect 54 0 52 0;
#X connect 55 0 53 0;
#X connect 55 1 51 0;
#X connect 56 0 53 1;
#X connect 57 0 54 0;
#X connect 57 1 20 0;
#X connect 57 2 38 0;
#X restore 29 105 pd make-ui;
#X text 133 85 GOP offset x y;
#X text 158 242 < this subpatch contains patcher scripted translators
from toggles to jl/routerctrl (individual receives converting values
to lists which all go into the same send);
#X obj 234 15 r \$1-i;
#X obj 335 133 s \$1-o;
#X msg 86 85 50 300;
#X connect 4 0 15 0;
#X connect 6 0 21 0;
#X connect 7 0 21 0;
#X connect 8 0 14 0;
#X connect 8 1 26 0;
#X connect 9 0 7 0;
#X connect 10 0 21 0;
#X connect 13 0 8 0;
#X connect 13 1 26 0;
#X connect 15 0 20 0;
#X connect 15 1 27 0;
#X connect 16 0 19 1;
#X connect 17 0 19 2;
#X connect 18 0 19 0;
#X connect 19 0 22 0;
#X connect 20 0 22 0;
#X connect 21 0 13 0;
#X connect 25 0 21 0;
#X connect 27 0 22 1;
#X coords 0 -1 1 1 154 154 2 50 300;
