#N canvas 322 160 600 581 10;
#N canvas 87 224 450 300 \$0-mix 0;
#X obj 12 12 cnv 12 36 36    0 0 0 12 #404040 #404040 0;
#X obj 13 13 cnv 12 34 34    0 0 0 12 #fcfcfc #fcfcfc 0;
#X obj 14 14 cnv 12 22 22    0 0 0 12 #404040 #404040 0;
#X obj 15 15 cnv 12 20 20    0 0 0 12 #fcfcfc #fcfcfc 0;
#X obj 16 54 cnv 12 12 12   1 1 6 0 8 #202020 #e0e0e0 0;
#X obj 16 66 cnv 12 12 12   2 1 6 0 8 #202020 #e0e0e0 0;
#X obj 30 16 cnv 12 12 12   1 1 6 0 8 #202020 #e0e0e0 0;
#X obj 42 16 cnv 12 12 12   2 1 6 0 8 #202020 #e0e0e0 0;
#X obj 54 16 cnv 12 12 12   1 1 6 0 8 #202020 #e0e0e0 0;
#X obj 66 16 cnv 12 12 12   2 1 6 0 8 #202020 #e0e0e0 0;
#X obj 30 30 tgl 12 0 15354-0-0-o 15354-0-0-i  0 0 0 9 #fcfcfc #404040
#fcfcfc 0 1;
#X obj 42 30 tgl 12 0 15354-1-0-o 15354-1-0-i  0 0 0 9 #fcfcfc #404040
#fcfcfc 0 1;
#X obj 54 30 tgl 12 0 15354-2-0-o 15354-2-0-i  0 0 0 9 #a0a0a0 #fcfcfc
#fcfcfc 0 1;
#X obj 66 30 tgl 12 0 15354-3-0-o 15354-3-0-i  0 0 0 9 #a0a0a0 #fcfcfc
#fcfcfc 0 1;
#X obj 30 42 tgl 12 0 15354-0-1-o 15354-0-1-i  0 0 0 9 #fcfcfc #404040
#fcfcfc 0 1;
#X obj 42 42 tgl 12 0 15354-1-1-o 15354-1-1-i  0 0 0 9 #fcfcfc #404040
#fcfcfc 0 1;
#X obj 54 42 tgl 12 0 15354-2-1-o 15354-2-1-i  0 0 0 9 #a0a0a0 #fcfcfc
#fcfcfc 0 1;
#X obj 66 42 tgl 12 0 15354-3-1-o 15354-3-1-i  0 0 0 9 #a0a0a0 #fcfcfc
#fcfcfc 0 1;
#X obj 30 54 tgl 12 0 15354-0-2-o 15354-0-2-i  0 0 0 9 #404040 #fcfcfc
#fcfcfc 0 1;
#X obj 42 54 tgl 12 0 15354-1-2-o 15354-1-2-i  0 0 0 9 #404040 #fcfcfc
#fcfcfc 0 1;
#X obj 54 54 tgl 12 0 15354-2-2-o 15354-2-2-i  0 0 0 9 #404040 #fcfcfc
#fcfcfc 0 1;
#X obj 66 54 tgl 12 0 15354-3-2-o 15354-3-2-i  0 0 0 9 #404040 #fcfcfc
#fcfcfc 0 1;
#X obj 30 66 tgl 12 0 15354-0-3-o 15354-0-3-i  0 0 0 9 #404040 #fcfcfc
#fcfcfc 0 1;
#X obj 42 66 tgl 12 0 15354-1-3-o 15354-1-3-i  0 0 0 9 #404040 #fcfcfc
#fcfcfc 0 1;
#X obj 54 66 tgl 12 0 15354-2-3-o 15354-2-3-i  0 0 0 9 #404040 #fcfcfc
#fcfcfc 0 1;
#X obj 66 66 tgl 12 0 15354-3-3-o 15354-3-3-i  0 0 0 9 #404040 #fcfcfc
#fcfcfc 0 1;
#X coords 0 -1 1 1 70 70 2 10 10;
#X restore 50 300 pd \$0-mix;
#N canvas 606 572 450 300 \$0-sends-receives 0;
#X obj 10 10 receive 15354-0-0-o;
#X obj 10 35 t b f;
#X obj 10 60 pack 0 0 f;
#X obj 10 85 send 15354-o;
#X obj 140 10 receive 15354-1-0-o;
#X obj 140 35 t b f;
#X obj 140 60 pack 1 0 f;
#X obj 140 85 send 15354-o;
#X obj 270 10 receive 15354-2-0-o;
#X obj 270 35 t b f;
#X obj 270 60 pack 2 0 f;
#X obj 270 85 send 15354-o;
#X obj 400 10 receive 15354-3-0-o;
#X obj 400 35 t b f;
#X obj 400 60 pack 3 0 f;
#X obj 400 85 send 15354-o;
#X obj 10 110 receive 15354-0-1-o;
#X obj 10 135 t b f;
#X obj 10 160 pack 0 1 f;
#X obj 10 185 send 15354-o;
#X obj 140 110 receive 15354-1-1-o;
#X obj 140 135 t b f;
#X obj 140 160 pack 1 1 f;
#X obj 140 185 send 15354-o;
#X obj 270 110 receive 15354-2-1-o;
#X obj 270 135 t b f;
#X obj 270 160 pack 2 1 f;
#X obj 270 185 send 15354-o;
#X obj 400 110 receive 15354-3-1-o;
#X obj 400 135 t b f;
#X obj 400 160 pack 3 1 f;
#X obj 400 185 send 15354-o;
#X obj 10 210 receive 15354-0-2-o;
#X obj 10 235 t b f;
#X obj 10 260 pack 0 2 f;
#X obj 10 285 send 15354-o;
#X obj 140 210 receive 15354-1-2-o;
#X obj 140 235 t b f;
#X obj 140 260 pack 1 2 f;
#X obj 140 285 send 15354-o;
#X obj 270 210 receive 15354-2-2-o;
#X obj 270 235 t b f;
#X obj 270 260 pack 2 2 f;
#X obj 270 285 send 15354-o;
#X obj 400 210 receive 15354-3-2-o;
#X obj 400 235 t b f;
#X obj 400 260 pack 3 2 f;
#X obj 400 285 send 15354-o;
#X obj 10 310 receive 15354-0-3-o;
#X obj 10 335 t b f;
#X obj 10 360 pack 0 3 f;
#X obj 10 385 send 15354-o;
#X obj 140 310 receive 15354-1-3-o;
#X obj 140 335 t b f;
#X obj 140 360 pack 1 3 f;
#X obj 140 385 send 15354-o;
#X obj 270 310 receive 15354-2-3-o;
#X obj 270 335 t b f;
#X obj 270 360 pack 2 3 f;
#X obj 270 385 send 15354-o;
#X obj 400 310 receive 15354-3-3-o;
#X obj 400 335 t b f;
#X obj 400 360 pack 3 3 f;
#X obj 400 385 send 15354-o;
#X connect 0 0 1 0;
#X connect 1 0 2 0;
#X connect 1 1 2 2;
#X connect 2 0 3 0;
#X connect 4 0 5 0;
#X connect 5 0 6 0;
#X connect 5 1 6 2;
#X connect 6 0 7 0;
#X connect 8 0 9 0;
#X connect 9 0 10 0;
#X connect 9 1 10 2;
#X connect 10 0 11 0;
#X connect 12 0 13 0;
#X connect 13 0 14 0;
#X connect 13 1 14 2;
#X connect 14 0 15 0;
#X connect 16 0 17 0;
#X connect 17 0 18 0;
#X connect 17 1 18 2;
#X connect 18 0 19 0;
#X connect 20 0 21 0;
#X connect 21 0 22 0;
#X connect 21 1 22 2;
#X connect 22 0 23 0;
#X connect 24 0 25 0;
#X connect 25 0 26 0;
#X connect 25 1 26 2;
#X connect 26 0 27 0;
#X connect 28 0 29 0;
#X connect 29 0 30 0;
#X connect 29 1 30 2;
#X connect 30 0 31 0;
#X connect 32 0 33 0;
#X connect 33 0 34 0;
#X connect 33 1 34 2;
#X connect 34 0 35 0;
#X connect 36 0 37 0;
#X connect 37 0 38 0;
#X connect 37 1 38 2;
#X connect 38 0 39 0;
#X connect 40 0 41 0;
#X connect 41 0 42 0;
#X connect 41 1 42 2;
#X connect 42 0 43 0;
#X connect 44 0 45 0;
#X connect 45 0 46 0;
#X connect 45 1 46 2;
#X connect 46 0 47 0;
#X connect 48 0 49 0;
#X connect 49 0 50 0;
#X connect 49 1 50 2;
#X connect 50 0 51 0;
#X connect 52 0 53 0;
#X connect 53 0 54 0;
#X connect 53 1 54 2;
#X connect 54 0 55 0;
#X connect 56 0 57 0;
#X connect 57 0 58 0;
#X connect 57 1 58 2;
#X connect 58 0 59 0;
#X connect 60 0 61 0;
#X connect 61 0 62 0;
#X connect 61 1 62 2;
#X connect 62 0 63 0;
#X restore 26 246 pd \$0-sends-receives;
#X obj 26 223 namecanvas \$0-canvas;
#X text 24 203 (see namecanvas-help.pd and;
#X obj 29 13 loadbang;
#X text 194 203 Help > Browser > Pure Data > 5.reference > pd-messages.pd)
;
#X msg 364 35 dump;
#X msg 322 35 clear;
#X obj 278 109 t a a;
#X obj 322 15 r \$0-clear;
#X obj 278 15 r \$0-o;
#X text 25 189 This patch initializes its own GOP parameters thanks
to;
#X text 360 189 [namecanvas];
#X obj 278 88 route list;
#N canvas 377 514 450 300 send-to-toggles 0;
#X obj 73 160 send;
#X msg 73 76 \$3 \$1 \$2;
#X obj 73 97 list split 1;
#X msg 73 117 set \$1;
#N canvas 615 414 450 300 make-tgl-input-name 0;
#X obj 104 165 makefilename;
#X msg 136 139 set \$1;
#X obj 98 95 unpack f f;
#X obj 94 70 inlet;
#X obj 113 245 outlet;
#X obj 136 118 makefilename \$0-%%d-%d-i;
#X connect 0 0 4 0;
#X connect 1 0 0 0;
#X connect 2 0 0 0;
#X connect 2 1 5 0;
#X connect 3 0 2 0;
#X connect 5 0 1 0;
#X restore 107 137 pd make-tgl-input-name;
#X obj 73 34 inlet;
#X connect 1 0 2 0;
#X connect 2 0 3 0;
#X connect 2 1 4 0;
#X connect 3 0 0 0;
#X connect 4 0 0 1;
#X connect 5 0 1 0;
#X restore 278 153 pd send-to-toggles;
#X obj 29 42 t b b;
#X floatatom 128 19 5 1 1e+06 2 inlets - - 0;
#X floatatom 167 19 5 1 1e+06 2 outlets - - 0;
#X floatatom 89 19 5 1 1e+06 2 sends - - 0;
#N canvas 348 485 389 193 pak3 0;
#X obj 175 110 pack f f f;
#X obj 192 80 t b f;
#X obj 231 80 t b f;
#X obj 151 44 inlet;
#X obj 192 44 inlet;
#X obj 231 44 inlet;
#X obj 175 141 outlet;
#X connect 0 0 6 0;
#X connect 1 0 0 0;
#X connect 1 1 0 1;
#X connect 2 0 0 0;
#X connect 2 1 0 2;
#X connect 3 0 0 0;
#X connect 4 0 1 0;
#X connect 5 0 2 0;
#X restore 109 42 pd pak3;
#X obj 29 65 pack \$2 \$3 \$4;
#X obj 278 67 jl/routerctrl \$2 \$3 \$4;
#N canvas 411 45 882 699 make-ui 0;
#X floatatom 343 253 5 1 1e+06 2 - - - 0;
#X obj 365 339 s \$0-cellsize;
#X floatatom 379 253 5 1 1e+06 2 - - - 0;
#X obj 401 319 s \$0-spacer;
#X floatatom 415 253 5 1 1e+06 2 - - - 0;
#X obj 437 299 s \$0-number-height;
#X floatatom 451 253 5 1 1e+06 2 - - - 0;
#X obj 462 279 s \$0-number-bottom;
#X obj 663 471 r \$0-number-bottom;
#X obj 641 450 r \$0-number-height;
#X obj 624 429 r \$0-spacer;
#X obj 603 408 r \$0-cellsize;
#X obj 603 547 pack f f f f;
#X obj 624 471 t b f;
#X obj 641 493 t b f;
#X obj 650 519 t b f;
#X obj 575 574 list;
#N canvas 719 245 499 432 make-1pix-black-border-square 0;
#X obj 133 97 t l l;
#X msg 112 343 obj \$1 \$2 cnv 12 \$3 \$3 \\\\ \\\\ \\\\ 0 0 0 12 2
2;
#X obj 93 136 unpack f f f;
#X obj 93 156 + 1;
#X obj 127 156 + 1;
#X obj 162 156 - 2;
#X obj 93 217 pack f f f;
#X obj 79 382 outlet;
#X obj 131 37 inlet;
#X text 177 33 x \, y \, size;
#X msg 58 294 obj \$1 \$2 cnv 12 \$3 \$3 \\\\ \\\\ \\\\ 0 0 0 12 90
90;
#X connect 0 0 2 0;
#X connect 0 1 1 0;
#X connect 1 0 7 0;
#X connect 2 0 3 0;
#X connect 2 1 4 0;
#X connect 2 2 5 0;
#X connect 3 0 6 0;
#X connect 4 0 6 1;
#X connect 5 0 6 2;
#X connect 6 0 10 0;
#X connect 8 0 0 0;
#X connect 10 0 7 0;
#X restore 238 449 pd make-1pix-black-border-square;
#N canvas 630 182 467 615 compute-square-positions-and-sizes 0;
#X obj 61 182 until;
#X obj 72 227 f;
#X obj 97 227 + 1;
#X msg 99 199 0;
#X obj 157 288 t f f;
#X obj 94 95 unpack f f f;
#X obj 167 120 t f f;
#X obj 232 397 r \$0-matrix-x;
#X obj 255 416 r \$0-matrix-y;
#X obj 150 410 t f f;
#X obj 153 544 pack f f f;
#X obj 189 322 *;
#X obj 215 322 *;
#X obj 183 376 +;
#X obj 211 377 +;
#X obj 242 322 r \$0-smallest-line;
#X obj 233 353 r \$0-smallest-square-side;
#X obj 150 142 +;
#X obj 95 30 inlet;
#X obj 153 574 outlet;
#X msg 95 51 \$3;
#X obj 94 73 pack f f f;
#X obj 205 27 r \$0-cellsize;
#X obj 218 47 r \$0-spacer;
#X obj 82 157 t f b f;
#X obj 60 254 expr $f2 - $f1 - 1;
#X obj 293 440 r \$0-offset;
#X obj 165 484 expr $f2 + $f3 + $f4 - $f1;
#X obj 194 504 expr $f2 + $f3 + $f4 - $f1;
#X obj 332 459 r \$0-padding;
#X text 136 30 sends;
#X connect 0 0 1 0;
#X connect 1 0 2 0;
#X connect 1 0 25 0;
#X connect 2 0 1 1;
#X connect 3 0 1 1;
#X connect 4 0 11 0;
#X connect 4 1 12 0;
#X connect 5 0 24 0;
#X connect 5 1 17 0;
#X connect 5 2 6 0;
#X connect 6 0 17 1;
#X connect 6 1 11 1;
#X connect 7 0 27 1;
#X connect 8 0 28 1;
#X connect 9 0 27 0;
#X connect 9 1 28 0;
#X connect 10 0 19 0;
#X connect 11 0 13 0;
#X connect 12 0 14 0;
#X connect 13 0 9 0;
#X connect 14 0 10 2;
#X connect 15 0 13 1;
#X connect 16 0 14 1;
#X connect 17 0 12 1;
#X connect 18 0 20 0;
#X connect 20 0 21 0;
#X connect 21 0 5 0;
#X connect 22 0 21 1;
#X connect 23 0 21 2;
#X connect 24 0 0 0;
#X connect 24 1 3 0;
#X connect 24 2 25 1;
#X connect 25 0 4 0;
#X connect 26 0 27 2;
#X connect 26 0 28 2;
#X connect 27 0 10 0;
#X connect 28 0 10 1;
#X connect 29 0 27 3;
#X connect 29 0 28 3;
#X restore 238 428 pd compute-square-positions-and-sizes;
#X obj 142 449 t l l;
#X obj 176 300 t l l l b;
#X msg 298 356 clear;
#X obj 582 279 s \$0-offset;
#X msg 582 220 10;
#X floatatom 582 240 5 0 0 0 - - - 0;
#X floatatom 619 239 5 0 0 0 - - - 0;
#X obj 619 259 s \$0-padding;
#N canvas 240 182 963 598 compute-label-positions-and-sizes 0;
#X obj 294 6 inlet;
#X obj 378 525 outlet;
#X obj 320 211 r \$0-matrix-y;
#X obj 244 121 r \$0-matrix-x;
#X obj 255 292 +;
#X obj 274 141 r \$0-cellsize;
#X obj 296 161 r \$0-number-height;
#X obj 273 212 -;
#X obj 273 233 * 0.5;
#X obj 274 254 t b f;
#X obj 325 350 -;
#X obj 341 231 r \$0-number-height;
#X obj 365 252 r \$0-number-bottom;
#X obj 343 301 +;
#X obj 99 229 until;
#X msg 137 230 0;
#X obj 123 260 f;
#X obj 153 262 + 1;
#X obj 110 355 *;
#X obj 110 376 +;
#X obj 159 294 r \$0-cellsize;
#X obj 342 321 t b f;
#X obj 357 277 t b f;
#X obj 296 184 t b f;
#X obj 112 294 t f f;
#X obj 330 373 +;
#X obj 259 326 +;
#X obj 421 288 r \$0-padding;
#X obj 202 369 r \$0-number-height;
#X obj 438 309 r \$0-offset;
#X obj 431 354 +;
#X obj 435 329 t b f;
#X obj 128 431 pack f f f f;
#X obj 62 141 unpack f f f;
#X obj 55 232 until;
#X obj 598 159 -;
#X obj 614 40 r \$0-number-height;
#X obj 638 61 r \$0-number-bottom;
#X obj 616 110 +;
#X obj 615 130 t b f;
#X obj 630 86 t b f;
#X obj 593 20 r \$0-matrix-x;
#X obj 765 194 +;
#X obj 784 43 r \$0-cellsize;
#X obj 806 63 r \$0-number-height;
#X obj 783 114 -;
#X obj 783 135 * 0.5;
#X obj 784 156 t b f;
#X obj 806 86 t b f;
#X obj 754 23 r \$0-matrix-y;
#X obj 513 227 until;
#X msg 553 228 0;
#X obj 526 258 f;
#X obj 556 260 + 1;
#X obj 526 202 t f b;
#X obj 724 304 +;
#X obj 744 276 t b f;
#X obj 115 195 t f b f f;
#X obj 592 419 pack f f f f;
#X obj 681 391 r \$0-number-height;
#X obj 762 249 *;
#X obj 789 217 r \$0-cellsize;
#X obj 720 359 +;
#X obj 578 371 +;
#X obj 799 261 r \$0-padding;
#X obj 816 282 r \$0-offset;
#X obj 809 327 +;
#X obj 813 302 t b f;
#X obj 616 394 +;
#X obj 579 308 t f f;
#X obj 593 339 *;
#X obj 620 307 r \$0-cellsize;
#X obj 652 366 + 1;
#X obj 296 34 t l l;
#X obj 501 167 unpack f f f;
#X obj 560 393 f;
#X obj 537 285 t b f;
#X obj 149 343 moses;
#X obj 175 367 -;
#X obj 176 323 t f f;
#X obj 168 389 + 1;
#X connect 0 0 73 0;
#X connect 2 0 10 0;
#X connect 3 0 4 0;
#X connect 4 0 26 0;
#X connect 5 0 7 0;
#X connect 6 0 23 0;
#X connect 7 0 8 0;
#X connect 8 0 9 0;
#X connect 9 0 4 0;
#X connect 9 1 4 1;
#X connect 10 0 25 0;
#X connect 11 0 13 0;
#X connect 12 0 22 0;
#X connect 13 0 21 0;
#X connect 14 0 16 0;
#X connect 15 0 16 1;
#X connect 16 0 17 0;
#X connect 16 0 24 0;
#X connect 17 0 16 1;
#X connect 18 0 19 0;
#X connect 19 0 32 0;
#X connect 20 0 18 1;
#X connect 21 0 10 0;
#X connect 21 1 10 1;
#X connect 22 0 13 0;
#X connect 22 1 13 1;
#X connect 23 0 7 0;
#X connect 23 1 7 1;
#X connect 24 0 18 0;
#X connect 24 1 77 0;
#X connect 25 0 32 1;
#X connect 26 0 19 1;
#X connect 27 0 30 0;
#X connect 28 0 32 2;
#X connect 29 0 31 0;
#X connect 30 0 25 1;
#X connect 30 0 26 1;
#X connect 31 0 30 0;
#X connect 31 1 30 1;
#X connect 32 0 1 0;
#X connect 33 0 34 0;
#X connect 33 2 57 0;
#X connect 34 0 16 0;
#X connect 35 0 63 0;
#X connect 36 0 38 0;
#X connect 37 0 40 0;
#X connect 38 0 39 0;
#X connect 39 0 35 0;
#X connect 39 1 35 1;
#X connect 40 0 38 0;
#X connect 40 1 38 1;
#X connect 41 0 35 0;
#X connect 42 0 55 0;
#X connect 43 0 45 0;
#X connect 44 0 48 0;
#X connect 45 0 46 0;
#X connect 46 0 47 0;
#X connect 47 0 42 0;
#X connect 47 1 42 1;
#X connect 48 0 45 0;
#X connect 48 1 45 1;
#X connect 49 0 42 0;
#X connect 50 0 52 0;
#X connect 51 0 52 1;
#X connect 52 0 53 0;
#X connect 52 0 76 0;
#X connect 53 0 52 1;
#X connect 54 0 50 0;
#X connect 54 1 51 0;
#X connect 55 0 62 0;
#X connect 56 0 55 0;
#X connect 56 1 55 1;
#X connect 57 0 14 0;
#X connect 57 1 15 0;
#X connect 57 2 79 0;
#X connect 58 0 1 0;
#X connect 59 0 58 2;
#X connect 60 0 56 0;
#X connect 61 0 60 1;
#X connect 62 0 68 1;
#X connect 63 0 75 1;
#X connect 64 0 66 0;
#X connect 65 0 67 0;
#X connect 66 0 62 1;
#X connect 66 0 63 1;
#X connect 67 0 66 0;
#X connect 67 1 66 1;
#X connect 68 0 58 1;
#X connect 69 0 70 0;
#X connect 69 1 72 0;
#X connect 70 0 68 0;
#X connect 71 0 70 1;
#X connect 72 0 58 3;
#X connect 73 0 33 0;
#X connect 73 1 74 0;
#X connect 74 1 54 0;
#X connect 74 2 60 0;
#X connect 75 0 58 0;
#X connect 76 0 75 0;
#X connect 76 1 69 0;
#X connect 77 0 80 0;
#X connect 77 1 78 0;
#X connect 78 0 80 0;
#X connect 79 0 77 1;
#X connect 79 1 78 1;
#X connect 80 0 32 3;
#X restore 193 382 pd compute-label-positions-and-sizes;
#N canvas 711 352 450 300 make-label 0;
#X obj 37 17 inlet;
#X obj 52 186 outlet;
#X text 79 45 numbers : <x \, y \, size \, label>;
#X obj 57 61 t l l;
#X obj 55 113 list append;
#X msg 101 70 \$3;
#X obj 106 90 - 2;
#X text 134 83 < compute font size (a bit clunky);
#X msg 55 136 obj \$1 \$2 cnv \$3 \$3 \$3 \\\\ \\\\ \$4 1 6 0 8 12
100;
#X connect 0 0 8 0;
#X connect 3 0 4 0;
#X connect 3 1 5 0;
#X connect 4 0 8 0;
#X connect 5 0 6 0;
#X connect 6 0 4 1;
#X connect 8 0 1 0;
#X restore 193 403 pd make-label;
#X obj 193 361 t l l;
#X obj 391 186 t b b b b;
#X msg 81 234 \$2 \$3 \$1;
#N canvas 121 146 599 437 compute-variables 0;
#X obj 265 332 s \$0-matrix-x;
#X obj 292 312 s \$0-matrix-y;
#X obj 238 157 t l l;
#X obj 265 178 -;
#X obj 265 290 t f f;
#X obj 280 157 expr $f4 * 0.5;
#X obj 238 136 expr $f4 * 0.5 + $f5 + $f6 + $f7;
#X obj 265 266 +;
#X obj 335 178 expr max($f3 - 1 \, 0) * $f5;
#X obj 265 209 t f f;
#X obj 310 270 s \$0-smallest-line;
#X obj 238 366 s \$0-smallest-square-side;
#X text 372 155 < half-cellsize;
#X text 440 136 < smallest square side;
#X obj 221 35 inlet;
#N canvas 267 137 450 379 view-dimensions-from-wh 0;
#X obj 223 92 r \$0-cellsize;
#X obj 161 124 *;
#X obj 188 124 *;
#X obj 144 72 unpack f f;
#X obj 156 192 +;
#X obj 184 195 +;
#X obj 227 141 r \$0-matrix-x;
#X obj 235 164 r \$0-matrix-y;
#X obj 235 202 r \$0-padding;
#X obj 236 223 * 2;
#X obj 163 253 +;
#X obj 191 256 +;
#X obj 147 35 inlet;
#X obj 162 291 pack f f;
#X obj 156 324 outlet;
#X connect 0 0 1 1;
#X connect 0 0 2 1;
#X connect 1 0 4 0;
#X connect 2 0 5 0;
#X connect 3 0 1 0;
#X connect 3 1 2 0;
#X connect 4 0 10 0;
#X connect 5 0 11 0;
#X connect 6 0 4 1;
#X connect 7 0 5 1;
#X connect 8 0 9 0;
#X connect 9 0 11 1;
#X connect 9 0 10 1;
#X connect 10 0 13 0;
#X connect 11 0 13 1;
#X connect 12 0 3 0;
#X connect 13 0 14 0;
#X restore 63 247 pd view-dimensions-from-wh;
#N canvas 150 175 450 300 wh-from-sio 0;
#X obj 111 109 expr $f1 + $f3;
#X obj 156 129 expr $f2 + $f3;
#X obj 111 89 t l l;
#X obj 111 168 pack f f;
#X floatatom 111 149 5 0 0 0 - - - 0;
#X floatatom 156 149 5 0 0 0 - - - 0;
#X obj 107 48 inlet;
#X obj 111 214 outlet;
#X connect 0 0 4 0;
#X connect 1 0 5 0;
#X connect 2 0 0 0;
#X connect 2 1 1 0;
#X connect 3 0 7 0;
#X connect 4 0 3 0;
#X connect 5 0 3 1;
#X connect 6 0 2 0;
#X restore 63 185 pd wh-from-sio;
#X obj 221 58 t l l l l;
#X obj 63 165 list split 3;
#X obj 63 206 t l l;
#X obj 90 226 s \$0-wh;
#X obj 63 268 s \$0-view-dimensions;
#X connect 2 0 11 0;
#X connect 2 1 3 0;
#X connect 3 0 9 0;
#X connect 4 0 0 0;
#X connect 4 1 1 0;
#X connect 5 0 3 1;
#X connect 6 0 2 0;
#X connect 7 0 4 0;
#X connect 8 0 7 1;
#X connect 9 0 7 0;
#X connect 9 1 10 0;
#X connect 14 0 17 0;
#X connect 15 0 21 0;
#X connect 16 0 19 0;
#X connect 17 0 18 0;
#X connect 17 1 6 0;
#X connect 17 2 5 0;
#X connect 17 3 8 0;
#X connect 18 0 16 0;
#X connect 19 0 15 0;
#X connect 19 1 20 0;
#X restore 575 596 pd compute-variables;
#N canvas 150 175 450 300 wh-from-sio 0;
#X obj 111 109 expr $f1 + $f3;
#X obj 156 129 expr $f2 + $f3;
#X obj 111 89 t l l;
#X obj 111 168 pack f f;
#X floatatom 111 149 5 0 0 0 - - - 0;
#X floatatom 156 149 5 0 0 0 - - - 0;
#X obj 107 48 inlet;
#X obj 111 214 outlet;
#X connect 0 0 4 0;
#X connect 1 0 5 0;
#X connect 2 0 0 0;
#X connect 2 1 1 0;
#X connect 3 0 7 0;
#X connect 4 0 3 0;
#X connect 5 0 3 1;
#X connect 6 0 2 0;
#X restore 142 428 pd wh-from-sio;
#N canvas 179 204 352 472 set-canvas-dimensions 0;
#X obj 134 86 r \$0-cellsize;
#X obj 72 118 *;
#X obj 99 118 *;
#X obj 55 66 unpack f f;
#X obj 67 186 +;
#X obj 95 189 +;
#X obj 138 135 r \$0-matrix-x;
#X obj 146 158 r \$0-matrix-y;
#X obj 146 196 r \$0-padding;
#X obj 147 217 * 2;
#X obj 74 247 +;
#X obj 102 250 +;
#X obj 70 26 inlet;
#X obj 87 416 outlet;
#X text 72 315 this controls graph-on-parent;
#X msg 58 333 donecanvasdialog 1 -1 2 0 -1 1 1 \$1 \$2 \$3 \$3;
#X obj 73 289 pack f f f;
#X obj 239 222 r \$0-offset;
#X obj 202 403 unpack f f;
#X floatatom 203 428 5 0 0 0 - - - 0;
#X floatatom 259 427 5 0 0 0 - - - 0;
#X obj 203 373 s \$0-view-dimensions;
#X obj 74 267 +;
#X obj 102 269 +;
#X obj 239 266 loadbang;
#X msg 239 286 0;
#X connect 0 0 1 1;
#X connect 0 0 2 1;
#X connect 1 0 4 0;
#X connect 2 0 5 0;
#X connect 3 0 1 0;
#X connect 3 1 2 0;
#X connect 4 0 10 0;
#X connect 5 0 11 0;
#X connect 6 0 4 1;
#X connect 7 0 5 1;
#X connect 8 0 9 0;
#X connect 9 0 11 1;
#X connect 9 0 10 1;
#X connect 10 0 22 0;
#X connect 11 0 23 0;
#X connect 12 0 3 0;
#X connect 15 0 13 0;
#X connect 16 0 15 0;
#X connect 16 0 18 0;
#X connect 16 0 21 0;
#X connect 17 0 16 2;
#X connect 18 0 19 0;
#X connect 18 1 20 0;
#X connect 22 0 16 0;
#X connect 23 0 16 1;
#X connect 24 0 25 0;
#X connect 25 0 23 1;
#X connect 25 0 22 1;
#X restore 169 474 pd set-canvas-dimensions;
#X obj 547 407 r \$0-ios;
#X obj 238 357 s \$0-ios;
#X obj 555 74 t b b;
#X obj 555 55 bng 15 250 50 0 empty empty empty 17 7 0 10 #fcfcfc #000000
#000000;
#X obj 582 194 t b b;
#N canvas 240 48 1142 736 create-cells 0;
#X obj 338 19 inlet;
#X obj 162 554 outlet;
#X obj 63 236 unpack f f;
#X obj 315 392 unpack f f s;
#X obj 153 176 r \$0-cellsize;
#X obj 184 206 r \$0-matrix-x;
#X obj 214 226 r \$0-matrix-y;
#X obj 291 180 r \$0-offset;
#X obj 320 200 r \$0-padding;
#X obj 120 256 expr $f2 * $f1 + $f3 + $f4 + $f5;
#X obj 81 285 expr $f2 * $f1 + $f3 + $f4 + $f5;
#X obj 281 351 r \$0-ios;
#N canvas 536 452 451 379 iter-coords 0;
#X obj 161 173 until;
#X obj 122 112 expr $f1 * $f2;
#X floatatom 122 132 5 0 0 0 - - - 0;
#X obj 161 197 f;
#X obj 189 198 + 1;
#X obj 161 267 mod;
#X msg 249 161 0;
#X obj 206 267 /;
#X obj 206 288 i;
#X msg 303 161 \$1;
#X obj 210 54 t a a b;
#X obj 210 14 inlet;
#X obj 161 219 t f f f;
#X obj 161 321 pack f f;
#X obj 161 343 outlet;
#X obj 122 152 moses 1;
#X connect 0 0 3 0;
#X connect 1 0 2 0;
#X connect 2 0 15 0;
#X connect 3 0 4 0;
#X connect 3 0 12 0;
#X connect 4 0 3 1;
#X connect 5 0 13 0;
#X connect 6 0 3 1;
#X connect 7 0 8 0;
#X connect 8 0 13 1;
#X connect 9 0 7 1;
#X connect 9 0 5 1;
#X connect 10 0 1 0;
#X connect 10 1 9 0;
#X connect 10 2 6 0;
#X connect 11 0 10 0;
#X connect 12 0 5 0;
#X connect 12 1 7 0;
#X connect 13 0 14 0;
#X connect 15 1 0 0;
#X restore 318 75 pd iter-coords;
#N canvas 432 245 552 479 pick-colors 0;
#X obj 74 17 inlet;
#X obj 211 16 inlet;
#X obj 139 180 <;
#X obj 214 181 <;
#X obj 121 134 unpack f f;
#X obj 130 217 expr $f1 + 2 * $f2;
#X floatatom 93 217 5 0 0 0 - - - 0;
#X obj 130 238 sel 0 1 2 3;
#X msg 194 108 \$3 \$3;
#X obj 189 134 unpack f f;
#X obj 150 422 outlet;
#X obj 167 306 symbol ../abstractions/toggle-unit-white;
#X obj 146 328 symbol ../abstractions/toggle-unit-grey;
#X obj 129 350 symbol ../abstractions/toggle-unit-dark-grey;
#X obj 149 381 unpack f f;
#X obj 196 422 outlet;
#X text 283 97 white 0/90 \, smokeywhite 100;
#X text 282 82 blacks/greys : 1 \, 2 \, 11 \, 12 \, 21 \, 22;
#X msg 110 271 2 90;
#X msg 196 274 0 2;
#X msg 157 272 1 90;
#X connect 0 0 4 0;
#X connect 1 0 8 0;
#X connect 2 0 5 0;
#X connect 3 0 5 1;
#X connect 4 0 2 0;
#X connect 4 1 3 0;
#X connect 5 0 6 0;
#X connect 5 0 7 0;
#X connect 7 0 18 0;
#X connect 7 1 18 0;
#X connect 7 2 20 0;
#X connect 7 3 19 0;
#X connect 8 0 9 0;
#X connect 9 0 2 1;
#X connect 9 1 3 1;
#X connect 11 0 14 0;
#X connect 12 0 14 0;
#X connect 13 0 14 0;
#X connect 14 0 10 0;
#X connect 14 1 15 0;
#X connect 18 0 14 0;
#X connect 19 0 14 0;
#X connect 20 0 14 0;
#X restore 200 373 pd pick-colors;
#N canvas 209 186 660 372 make-toggle 0;
#N canvas 295 320 450 300 make-tgl-output-name 0;
#X obj 104 165 makefilename;
#X msg 136 139 set \$1;
#X obj 98 95 unpack f f;
#X obj 94 70 inlet;
#X obj 113 245 outlet;
#X obj 136 118 makefilename \$0-%%d-%d-o;
#X connect 0 0 4 0;
#X connect 1 0 0 0;
#X connect 2 0 0 0;
#X connect 2 1 5 0;
#X connect 3 0 2 0;
#X connect 5 0 1 0;
#X restore 155 170 pd make-tgl-output-name;
#N canvas 140 316 450 300 make-tgl-input-name 0;
#X obj 104 165 makefilename;
#X msg 136 139 set \$1;
#X obj 98 95 unpack f f;
#X obj 94 70 inlet;
#X obj 113 245 outlet;
#X obj 136 118 makefilename \$0-%%d-%d-i;
#X connect 0 0 4 0;
#X connect 1 0 0 0;
#X connect 2 0 0 0;
#X connect 2 1 5 0;
#X connect 3 0 2 0;
#X connect 5 0 1 0;
#X restore 187 151 pd make-tgl-input-name;
#X obj 102 212 pack f f f s s f f;
#X obj 73 31 inlet;
#X obj 102 272 outlet;
#X text 112 231 cells : <x \, y \, cellsize \, s-name \, r-name \,
bg \, fg>;
#X text 365 115 white 0/90 \, smokeywhite 100;
#X text 364 100 blacks/greys : 1 \, 2 \, 11 \, 12 \, 21 \, 22;
#X obj 70 95 unpack f f f;
#X obj 72 64 list split 3;
#X obj 154 96 t l l;
#X obj 154 64 list split 2;
#X obj 251 116 unpack f f;
#X text 119 30 < x \, y \, size \, i \, j \, bg \, fg \, \$1;
#X msg 102 251 obj \$1 \$2 tgl \$3 \$3 \$4 \$5 \\\\ 0 0 0 9 \$6 \$7
0 0;
#X connect 0 0 2 3;
#X connect 1 0 2 4;
#X connect 2 0 14 0;
#X connect 3 0 9 0;
#X connect 8 0 2 0;
#X connect 8 1 2 1;
#X connect 8 2 2 2;
#X connect 9 0 8 0;
#X connect 9 1 11 0;
#X connect 10 0 0 0;
#X connect 10 1 1 0;
#X connect 11 0 10 0;
#X connect 11 1 12 0;
#X connect 12 0 2 5;
#X connect 12 1 2 6;
#X connect 14 0 4 0;
#X restore 162 488 pd make-toggle;
#X obj 161 463 pack f f f f f f f s;
#X obj 182 402 r \$0-cellsize;
#X text 260 483 x \, y \, size \, i \, j \, bg \, fg \, \$1;
#X obj 456 394 +;
#X obj 459 340 *;
#X obj 428 316 unpack f f;
#X obj 485 393 +;
#X obj 485 339 *;
#X obj 500 368 r \$0-offset;
#X obj 686 345 f;
#X msg 705 306 0;
#X text 461 42 x \, y1 \, y2 \, y3 \, y4 \, id1 \, id2 \, id3 \, id4
\, output name \, toggle output name \, i \, j;
#X obj 520 500 +;
#X obj 545 500 +;
#X obj 570 500 +;
#X obj 710 401 + 1;
#X obj 735 401 + 2;
#X obj 760 401 + 3;
#X obj 687 376 t f f f f;
#X obj 664 199 t l b l;
#X obj 532 287 loadbang;
#X obj 485 427 t f f f f;
#X msg 558 426 25;
#X msg 571 449 50;
#X msg 585 472 75;
#X obj 574 404 loadbang;
#X obj 479 531 pack f f f f f;
#X obj 687 425 pack f f f f;
#X obj 684 588 list;
#X obj 761 465 list;
#N canvas 615 414 450 300 make-tgl-output-name 0;
#X obj 104 165 makefilename;
#X msg 136 139 set \$1;
#X obj 98 95 unpack f f;
#X obj 94 70 inlet;
#X obj 113 245 outlet;
#X obj 136 118 makefilename \$0-%%d-%d-o;
#X connect 0 0 4 0;
#X connect 1 0 0 0;
#X connect 2 0 0 0;
#X connect 2 1 5 0;
#X connect 3 0 2 0;
#X connect 5 0 1 0;
#X restore 893 348 pd make-tgl-output-name;
#X obj 974 323 unpack f f;
#X obj 320 97 t l l;
#X obj 914 405 pack s s f f;
#X obj 914 296 t l b l;
#X obj 713 345 + 4;
#X msg 541 312 100;
#X msg 865 543 clear;
#X obj 729 146 t b b;
#X obj 338 41 t l b;
#X msg 506 314 130;
#X msg 684 609 obj \$1 \$2 receive \$10 \, obj \$1 \$3 t b f \, obj
\$1 \$4 pack \$12 \$13 f \, obj \$1 \$5 send \$11 \, connect \$6 0
\$7 0 \, connect \$7 1 \$8 2 \, connect \$7 0 \$8 0 \, connect \$8
0 \$9 0;
#X obj 317 139 t l l;
#X obj 352 305 t l l;
#X obj 729 678 outlet;
#X obj 925 370 makefilename \$0-o;
#X connect 0 0 54 0;
#X connect 2 0 10 0;
#X connect 2 1 9 0;
#X connect 3 0 15 3;
#X connect 3 1 15 4;
#X connect 3 2 15 7;
#X connect 4 0 9 1;
#X connect 4 0 10 1;
#X connect 5 0 10 2;
#X connect 6 0 9 2;
#X connect 7 0 9 3;
#X connect 7 0 10 3;
#X connect 8 0 9 4;
#X connect 8 0 10 4;
#X connect 9 0 15 1;
#X connect 10 0 15 0;
#X connect 11 0 13 1;
#X connect 12 0 47 0;
#X connect 13 0 15 5;
#X connect 13 1 15 6;
#X connect 14 0 1 0;
#X connect 15 0 14 0;
#X connect 16 0 15 2;
#X connect 18 0 41 0;
#X connect 19 0 18 0;
#X connect 20 0 19 0;
#X connect 20 1 22 0;
#X connect 21 0 36 0;
#X connect 22 0 21 0;
#X connect 23 0 21 1;
#X connect 23 0 18 1;
#X connect 24 0 33 0;
#X connect 24 0 50 0;
#X connect 25 0 24 1;
#X connect 27 0 41 2;
#X connect 28 0 41 3;
#X connect 29 0 41 4;
#X connect 30 0 42 1;
#X connect 31 0 42 2;
#X connect 32 0 42 3;
#X connect 33 0 42 0;
#X connect 33 1 30 0;
#X connect 33 2 31 0;
#X connect 33 3 32 0;
#X connect 34 0 20 0;
#X connect 34 1 24 0;
#X connect 34 2 49 0;
#X connect 35 0 55 0;
#X connect 35 0 51 0;
#X connect 36 0 41 1;
#X connect 36 1 27 0;
#X connect 36 2 28 0;
#X connect 36 3 29 0;
#X connect 37 0 27 1;
#X connect 38 0 28 1;
#X connect 39 0 29 1;
#X connect 40 0 37 0;
#X connect 40 0 38 0;
#X connect 40 0 39 0;
#X connect 41 0 43 0;
#X connect 42 0 44 0;
#X connect 43 0 56 0;
#X connect 44 0 43 1;
#X connect 45 0 48 0;
#X connect 46 0 48 2;
#X connect 46 1 48 3;
#X connect 47 0 57 0;
#X connect 47 1 34 0;
#X connect 48 0 44 1;
#X connect 49 0 45 0;
#X connect 49 1 60 0;
#X connect 49 2 46 0;
#X connect 50 0 24 1;
#X connect 51 0 22 1;
#X connect 52 0 59 0;
#X connect 53 0 25 0;
#X connect 53 1 52 0;
#X connect 54 0 12 0;
#X connect 54 1 53 0;
#X connect 55 0 19 1;
#X connect 56 0 59 0;
#X connect 57 0 2 0;
#X connect 57 1 58 0;
#X connect 58 0 13 0;
#X connect 58 1 3 0;
#X connect 60 0 48 1;
#X restore 142 497 pd create-cells;
#X msg 389 221 2;
#X msg 463 224 2;
#X msg 426 225 12;
#X obj 161 25 inlet;
#X obj 307 121 route cellsize spacer nbheight nbbottom offset padding
;
#X obj 161 61 route list;
#X obj 555 35 loadbang;
#X msg 619 219 2;
#X msg 354 221 12;
#X obj 270 551 s pd-\$0-sends-receives;
#X obj 240 581 s pd-\$0-mix;
#X obj 224 639 s \$0-canvas;
#N canvas 341 513 335 249 set-GOP-parameters 0;
#X obj 62 87 route donecanvasdialog;
#X obj 62 155 list prepend donecanvasdialog;
#X obj 62 174 list trim;
#X obj 62 60 inlet;
#X obj 62 197 outlet;
#X obj 62 110 list split 9;
#X obj 62 131 list append;
#X obj 125 60 inlet;
#X connect 0 0 5 0;
#X connect 1 0 2 0;
#X connect 2 0 4 0;
#X connect 3 0 0 0;
#X connect 5 0 6 0;
#X connect 6 0 1 0;
#X connect 7 0 6 1;
#X restore 239 611 pd set-GOP-parameters;
#X msg 119 559 dirty 0;
#X obj 193 557 t a a;
#X obj 475 506 inlet;
#X obj 81 255 t b l b;
#X connect 0 0 1 0;
#X connect 2 0 3 0;
#X connect 4 0 5 0;
#X connect 6 0 7 0;
#X connect 8 0 15 0;
#X connect 9 0 14 0;
#X connect 10 0 13 0;
#X connect 11 0 12 0;
#X connect 12 0 16 1;
#X connect 13 0 12 0;
#X connect 13 1 12 1;
#X connect 14 0 12 0;
#X connect 14 1 12 2;
#X connect 15 0 12 0;
#X connect 15 1 12 3;
#X connect 16 0 32 0;
#X connect 17 0 55 0;
#X connect 18 0 17 0;
#X connect 19 0 40 0;
#X connect 19 1 34 0;
#X connect 20 0 33 0;
#X connect 20 1 29 0;
#X connect 20 2 36 0;
#X connect 20 3 21 0;
#X connect 21 0 55 0;
#X connect 23 0 24 0;
#X connect 24 0 22 0;
#X connect 25 0 26 0;
#X connect 27 0 28 0;
#X connect 28 0 55 0;
#X connect 29 0 27 0;
#X connect 29 1 18 0;
#X connect 30 0 49 0;
#X connect 30 1 41 0;
#X connect 30 2 43 0;
#X connect 30 3 42 0;
#X connect 31 0 57 0;
#X connect 33 0 19 0;
#X connect 34 0 55 0;
#X connect 35 0 16 0;
#X connect 37 0 30 0;
#X connect 37 1 39 0;
#X connect 38 0 37 0;
#X connect 39 0 23 0;
#X connect 39 1 48 0;
#X connect 40 0 55 0;
#X connect 40 1 50 0;
#X connect 41 0 2 0;
#X connect 42 0 6 0;
#X connect 43 0 4 0;
#X connect 44 0 46 0;
#X connect 45 0 0 0;
#X connect 45 1 2 0;
#X connect 45 2 4 0;
#X connect 45 3 6 0;
#X connect 45 4 24 0;
#X connect 45 5 25 0;
#X connect 46 0 31 0;
#X connect 46 1 45 0;
#X connect 47 0 38 0;
#X connect 48 0 25 0;
#X connect 49 0 0 0;
#X connect 53 0 52 0;
#X connect 54 0 52 0;
#X connect 55 0 53 0;
#X connect 55 1 51 0;
#X connect 56 0 53 1;
#X connect 57 0 54 0;
#X connect 57 1 20 0;
#X connect 57 2 38 0;
#X restore 29 105 pd make-ui;
#X text 133 85 GOP offset x y;
#X text 158 242 < this subpatch contains patcher scripted translators
from toggles to jl/routerctrl (individual receives converting values
to lists which all go into the same send);
#X obj 234 15 r \$1-i;
#X obj 335 133 s \$1-o;
#X msg 86 85 50 300;
#X connect 4 0 15 0;
#X connect 6 0 21 0;
#X connect 7 0 21 0;
#X connect 8 0 14 0;
#X connect 8 1 26 0;
#X connect 9 0 7 0;
#X connect 10 0 21 0;
#X connect 13 0 8 0;
#X connect 13 1 26 0;
#X connect 15 0 20 0;
#X connect 15 1 27 0;
#X connect 16 0 19 1;
#X connect 17 0 19 2;
#X connect 18 0 19 0;
#X connect 19 0 22 0;
#X connect 20 0 22 0;
#X connect 21 0 13 0;
#X connect 25 0 21 0;
#X connect 27 0 22 1;
#X coords 0 -1 1 1 70 70 2 50 300;
