#N canvas 328 59 1268 894 12;
#X obj 143 167 noise~;
#X obj 88 142 line~;
#X msg 88 116 \$1 5;
#X obj 115 207 *~;
#X obj 118 305 +~;
#X obj 149 247 *~;
#X obj 207 206 line~;
#X msg 207 180 \$1 5;
#X obj 195 545 +~;
#X obj 567 535 expr~ $v1 - $v1*$v1*$v1;
#X obj 195 572 delwrite~ \$0-emb 500;
#X obj 567 508 delread4~ \$0-emb;
#X obj 490 603 +~;
#X obj 571 687 vcf~;
#X obj 409 520 *~;
#X obj 212 518 *~;
#X obj 481 471 line~;
#X obj 484 418 hsl 162 19 0 1 0 0 empty empty empty -2 -10 0 12 #fcfcfc #000000 #000000 0 0;
#X obj 267 342 line~;
#X obj 270 289 hsl 162 19 0 1 0 0 empty empty empty -2 -10 0 12 #fcfcfc #000000 #000000 0 0;
#X obj 311 130 osc~;
#X obj 310 158 expr~ $v1*0.5+0.5;
#X obj 347 207 *~;
#X text 524 438 keep this low;
#X text 326 310 keep this high;
#X obj 454 158 line~;
#X msg 454 132 \$1 5;
#X obj 310 99 line~;
#X msg 310 73 \$1 5;
#X obj 457 263 expr 1000/$f1;
#X obj 457 314 line~;
#X msg 457 288 \$1 3;
#X obj 568 481 *~ 0.5;
#X obj 339 390 *~ 1;
#X obj 677 219 line~;
#X msg 677 194 \$1 3;
#X obj 780 223 line~;
#X msg 780 198 \$1 3;
#X obj 704 306 *~;
#X obj 781 248 clip~ 1 1000;
#X obj 207 154 * 0.001;
#X text 62 668 see :;
#X text 63 685 https://ccrma.stanford.edu/software/clm/compmus/clm-tutorials/pm.html :;
#X text 63 726 and also :;
#X text 64 743 https://quod.lib.umich.edu/cgi/p/pod/dod-idx/meta-wind-instrument-physical-model-and-a-meta-controller.pdf?c=icmc \; idno=bbp2372.1992.072 \; format=pdf;
#X obj 128 343 +~;
#X text 63 640 based on Perry Cook's original slideflute algorithm;
#X obj 645 71 t f f;
#X obj 571 820 outlet~;
#X obj 88 81 clip 0 1;
#X obj 763 348 inlet params;
#X obj 614 781 delwrite~ \$0-bore 500;
#X obj 340 416 delread4~ \$0-bore;
#X obj 763 477 s \$0-flow;
#X obj 804 451 s \$0-noise;
#X obj 846 477 s \$0-f0;
#X obj 763 376 route flow noise f0 cutoffratio Q emb bore frulatofreq frulatodepth;
#X obj 888 451 s \$0-cutoffratio;
#X obj 929 427 s \$0-Q;
#X obj 971 477 s \$0-emb;
#X obj 1013 451 s \$0-bore;
#X obj 1054 477 s \$0-frulatofreq;
#X obj 1096 451 s \$0-frulatodepth;
#X obj 88 32 r \$0-flow;
#X obj 207 31 r \$0-noise;
#X obj 310 32 r \$0-frulatofreq;
#X obj 454 31 inlet r \$0-frulatodepth;
#X obj 645 31 r \$0-f0;
#X obj 780 30 r \$0-cutoffratio;
#X obj 778 603 clip 0.5 2;
#X obj 778 578 r \$0-Q;
#X obj 195 323 r \$0-emb;
#X obj 195 347 clip 0 1;
#X msg 267 316 \$1 3;
#X msg 481 445 \$1 3;
#X obj 536 386 clip 0 1;
#X obj 536 362 r \$0-bore;
#X connect 0 0 3 1;
#X connect 1 0 3 0;
#X connect 1 0 4 0;
#X connect 2 0 1 0;
#X connect 3 0 5 0;
#X connect 4 0 45 0;
#X connect 5 0 4 1;
#X connect 6 0 5 1;
#X connect 7 0 6 0;
#X connect 8 0 10 0;
#X connect 9 0 12 1;
#X connect 11 0 9 0;
#X connect 12 0 13 0;
#X connect 13 0 48 0;
#X connect 13 0 51 0;
#X connect 14 0 12 0;
#X connect 15 0 8 1;
#X connect 16 0 14 1;
#X connect 17 0 74 0;
#X connect 18 0 15 0;
#X connect 19 0 73 0;
#X connect 20 0 21 0;
#X connect 21 0 22 0;
#X connect 22 0 45 1;
#X connect 25 0 22 1;
#X connect 26 0 25 0;
#X connect 27 0 20 0;
#X connect 28 0 27 0;
#X connect 29 0 31 0;
#X connect 30 0 32 0;
#X connect 30 0 33 0;
#X connect 31 0 30 0;
#X connect 32 0 11 0;
#X connect 33 0 52 0;
#X connect 34 0 38 0;
#X connect 35 0 34 0;
#X connect 36 0 39 0;
#X connect 37 0 36 0;
#X connect 38 0 13 1;
#X connect 39 0 38 1;
#X connect 40 0 7 0;
#X connect 45 0 8 0;
#X connect 47 0 29 0;
#X connect 47 1 35 0;
#X connect 49 0 2 0;
#X connect 50 0 56 0;
#X connect 52 0 14 0;
#X connect 52 0 15 1;
#X connect 56 0 53 0;
#X connect 56 1 54 0;
#X connect 56 2 55 0;
#X connect 56 3 57 0;
#X connect 56 4 58 0;
#X connect 56 5 59 0;
#X connect 56 6 60 0;
#X connect 56 7 61 0;
#X connect 56 8 62 0;
#X connect 63 0 49 0;
#X connect 64 0 40 0;
#X connect 65 0 28 0;
#X connect 66 0 26 0;
#X connect 67 0 47 0;
#X connect 68 0 37 0;
#X connect 69 0 13 2;
#X connect 70 0 69 0;
#X connect 71 0 72 0;
#X connect 72 0 73 0;
#X connect 73 0 18 0;
#X connect 74 0 16 0;
#X connect 75 0 74 0;
#X connect 76 0 75 0;
