#N canvas 273 73 860 710 10;
#X obj 161 74 inlet;
#X obj 516 461 delay;
#X obj 133 414 delay;
#X obj 135 271 sel 0 1;
#X obj 100 631 outlet~ to-gain;
#X obj 100 596 line~;
#X obj 100 572 pack f f;
#X msg 100 438 0;
#X msg 133 438 1;
#X obj 158 303 t b b b;
#X obj 100 303 t b b b;
#X msg 516 483 1;
#X obj 473 461 delay;
#X msg 473 483 0;
#X obj 242 530 pipe;
#X obj 100 464 t f f f;
#X obj 473 540 t f f;
#X obj 161 128 f;
#X obj 161 160 spigot 1;
#X msg 291 171 0;
#X obj 182 104 t b b;
#X msg 214 128 1;
#X obj 709 179 pack \$1 \$2 \$3;
#X obj 709 155 loadbang;
#X obj 695 216 s \$0-durations;
#X obj 267 461 r \$0-durations;
#X msg 267 483 \$1;
#X obj 245 312 expr $f1+2*$f2+$f3;
#X obj 548 437 expr $f1+$f2+$f3;
#X obj 505 414 expr $f1+$f2;
#X obj 505 340 r \$0-durations;
#X obj 505 363 t a a;
#X obj 245 289 r \$0-durations;
#X text 46 36 arguments : <ramp_duration> <room_between_switch_and_ramp>
;
#X text 459 36 <room_between_switches>;
#X obj 408 302 expr $f1+$f2+0.5*$f3;
#X obj 317 495 pipe;
#X obj 408 279 r \$0-durations;
#X obj 355 148 expr 2*($f1+$f2)+$f3;
#X obj 355 125 r \$0-durations;
#X obj 323 171 delay;
#X obj 161 209 change 2;
#X obj 161 233 t f f b;
#X obj 291 146 t b b;
#X obj 218 631 outlet messages;
#X obj 505 631 outlet to-switch;
#X obj 655 101 inlet;
#X text 234 82 don't take new input while switching is happening;
#X text 234 100 forward latest received input when switching is over
;
#X msg 317 519 betweenswitches \$1;
#X msg 242 554 endramp \$1;
#X msg 218 586 startramp \$1;
#X connect 0 0 17 0;
#X connect 1 0 11 0;
#X connect 2 0 8 0;
#X connect 3 0 10 0;
#X connect 3 1 9 0;
#X connect 5 0 4 0;
#X connect 6 0 5 0;
#X connect 7 0 15 0;
#X connect 8 0 15 0;
#X connect 9 0 2 0;
#X connect 9 1 1 0;
#X connect 10 0 7 0;
#X connect 10 1 12 0;
#X connect 11 0 16 0;
#X connect 12 0 13 0;
#X connect 13 0 16 0;
#X connect 14 0 50 0;
#X connect 15 0 6 0;
#X connect 15 1 51 0;
#X connect 15 2 14 0;
#X connect 16 0 44 0;
#X connect 16 1 45 0;
#X connect 17 0 18 0;
#X connect 18 0 41 0;
#X connect 19 0 18 1;
#X connect 20 0 17 0;
#X connect 20 1 21 0;
#X connect 21 0 18 1;
#X connect 22 0 24 0;
#X connect 23 0 22 0;
#X connect 25 0 26 0;
#X connect 26 0 6 1;
#X connect 26 0 14 1;
#X connect 27 0 2 1;
#X connect 28 0 1 1;
#X connect 29 0 12 1;
#X connect 30 0 31 0;
#X connect 31 0 29 0;
#X connect 31 1 28 0;
#X connect 32 0 27 0;
#X connect 35 0 36 1;
#X connect 36 0 49 0;
#X connect 37 0 35 0;
#X connect 38 0 40 1;
#X connect 39 0 38 0;
#X connect 40 0 20 0;
#X connect 41 0 42 0;
#X connect 42 0 3 0;
#X connect 42 1 36 0;
#X connect 42 2 43 0;
#X connect 43 0 19 0;
#X connect 43 1 40 0;
#X connect 46 0 24 0;
#X connect 49 0 44 0;
#X connect 50 0 44 0;
#X connect 51 0 44 0;
