#N canvas 28 83 483 393 10;
#X obj 159 105 t b f;
#X obj 199 26 inlet;
#X obj 215 301 outlet;
#X obj 315 26 inlet;
#X obj 132 224 float \$1;
#X obj 215 280 /;
#X obj 263 301 outlet divbyzero;
#X obj 263 282 bng 15 250 50 0 empty empty empty 17 7 0 10 -262144
-1 -1;
#X obj 199 59 sel 0;
#X connect 0 0 4 0;
#X connect 0 1 5 1;
#X connect 1 0 8 0;
#X connect 3 0 4 1;
#X connect 4 0 5 0;
#X connect 5 0 2 0;
#X connect 7 0 6 0;
#X connect 8 0 7 0;
#X connect 8 1 0 0;
