#N canvas 254 85 753 701 10;
#X obj 211 356 delay;
#X msg 231 166 stop;
#X obj 91 319 float;
#X obj 219 413 float;
#X obj 143 122 t b b;
#X obj 437 390 float;
#X obj 219 574 line;
#X obj 219 597 outlet;
#X obj 219 541 t l;
#X obj 372 435 pack f f;
#X obj 219 434 pack f f;
#X obj 91 344 pack f f;
#X obj 232 310 t f f;
#X obj 303 114 f \$1;
#X obj 344 114 f \$2;
#X obj 417 114 f \$3;
#X obj 546 138 f \$4;
#X obj 586 138 f \$5;
#X obj 626 138 f \$6;
#X obj 447 62 loadbang;
#X obj 111 246 t b b b;
#X obj 437 346 delay;
#X obj 303 138 t f f;
#X obj 348 178 +;
#X obj 344 138 t f b f;
#X obj 143 40 inlet trig;
#X obj 265 40 inlet attack;
#X obj 344 40 inlet decay;
#X obj 417 40 inlet release;
#X obj 509 40 inlet rest;
#X obj 576 40 inlet peak1;
#X obj 649 40 inlet peak2;
#X connect 0 0 3 0;
#X connect 1 0 0 0;
#X connect 1 0 21 0;
#X connect 2 0 11 0;
#X connect 3 0 10 0;
#X connect 4 0 20 0;
#X connect 4 1 1 0;
#X connect 5 0 9 0;
#X connect 6 0 7 0;
#X connect 8 0 6 0;
#X connect 9 0 8 0;
#X connect 10 0 8 0;
#X connect 11 0 8 0;
#X connect 12 0 11 1;
#X connect 12 1 0 1;
#X connect 13 0 22 0;
#X connect 14 0 24 0;
#X connect 15 0 9 1;
#X connect 16 0 5 1;
#X connect 17 0 2 1;
#X connect 18 0 3 1;
#X connect 19 0 18 0;
#X connect 19 0 17 0;
#X connect 19 0 16 0;
#X connect 19 0 15 0;
#X connect 19 0 14 0;
#X connect 19 0 13 0;
#X connect 20 0 2 0;
#X connect 20 1 0 0;
#X connect 20 2 21 0;
#X connect 21 0 5 0;
#X connect 22 0 12 0;
#X connect 22 1 23 0;
#X connect 23 0 21 1;
#X connect 24 0 10 1;
#X connect 24 1 23 0;
#X connect 24 2 23 1;
#X connect 25 0 4 0;
#X connect 26 0 13 0;
#X connect 27 0 14 0;
#X connect 28 0 15 0;
#X connect 29 0 16 0;
#X connect 30 0 17 0;
#X connect 31 0 18 0;
