#N canvas 297 131 918 608 10;
#N canvas 0 22 450 300 delRead 0;
#X obj 186 120 delread~ \$0-lookahead;
#X obj 134 72 inlet~;
#X obj 186 72 inlet;
#X obj 186 188 outlet~;
#X connect 0 0 3 0;
#X connect 2 0 0 0;
#X restore 76 251 pd delRead;
#N canvas 0 22 450 300 delWrite 0;
#X obj 104 144 delwrite~ \$0-lookahead 1000;
#X obj 105 182 outlet~;
#X obj 104 72 inlet~;
#X connect 2 0 0 0;
#X restore 76 196 pd delWrite;
#X obj 133 229 r \$0-lookahead;
#X obj 76 43 inlet~;
#X obj 242 263 clip~ 0 1;
#X obj 353 172 tgl 50 0 empty empty empty 17 7 0 10 -262144 -1 -1 0
1;
#X text 351 130 0 : RMS | 1 : Peak;
#X obj 242 307 lop~;
#X obj 263 285 r \$0-response;
#N canvas 0 22 366 608 gain-computation 0;
#X obj 126 272 env~ 512;
#X obj 126 295 dbtorms~;
#X obj 192 295 abs~;
#X text 98 295 RMS;
#X text 225 295 Peak;
#X obj 124 397 -~;
#X obj 124 423 *~;
#X obj 191 413 r \$0-inverse-of-ratio;
#X obj 190 369 r \$0-threshold;
#X obj 190 457 r \$0-threshold;
#X obj 124 450 +~;
#X obj 93 229 *~;
#X obj 192 229 *~;
#X obj 108 198 line~;
#X obj 207 198 line~;
#X msg 108 178 \$1 10;
#X msg 207 178 \$1 10;
#X obj 108 153 == 0;
#X obj 180 64 t f f;
#X obj 93 64 *~ 1;
#X obj 159 329 *~ 1;
#X obj 166 492 /~;
#X obj 93 43 inlet~;
#X obj 166 524 outlet~;
#X obj 180 43 inlet;
#X connect 0 0 1 0;
#X connect 1 0 20 0;
#X connect 2 0 20 0;
#X connect 5 0 6 0;
#X connect 6 0 10 0;
#X connect 7 0 6 1;
#X connect 8 0 5 1;
#X connect 9 0 10 1;
#X connect 10 0 21 0;
#X connect 11 0 0 0;
#X connect 12 0 2 0;
#X connect 13 0 11 1;
#X connect 14 0 12 1;
#X connect 15 0 13 0;
#X connect 16 0 14 0;
#X connect 17 0 15 0;
#X connect 18 0 17 0;
#X connect 18 1 16 0;
#X connect 19 0 11 0;
#X connect 19 0 12 0;
#X connect 20 0 5 0;
#X connect 20 0 21 1;
#X connect 21 0 23 0;
#X connect 22 0 19 0;
#X connect 24 0 18 0;
#X restore 242 228 pd gain-computation;
#X obj 185 386 *~;
#X text 215 387 Gain control;
#X obj 218 488 *~;
#X obj 233 462 line~;
#X msg 233 441 \$1 5;
#X obj 233 420 r \$0-gain;
#X text 295 420 Make-up gain;
#X obj 218 514 outlet~;
#X text 121 43 Input;
#X obj 521 45 inlet;
#X obj 353 150 r \$0-rmspeak;
#X obj 521 131 route threshold ratio gain response lookahead rmspeak
;
#X obj 783 154 s \$0-rmspeak;
#X obj 731 177 s \$0-lookahead;
#X obj 720 283 s \$0-response;
#X obj 626 223 s \$0-gain;
#X obj 521 309 s \$0-threshold;
#X obj 573 259 /;
#X obj 573 223 swap 1;
#X obj 720 258 /;
#X obj 720 223 swap 1000;
#X text 746 258 ms to Hz;
#X obj 573 284 s \$0-inverse-of-ratio;
#X obj 521 223 + 100;
#X obj 521 259 dbtorms;
#X msg 547 101 threshold -2 \, ratio 2 \, response 40 \, rmspeak 0
\, lookahead 0;
#X obj 547 80 loadbang;
#X obj 428 267 snapshot~;
#X msg 428 222 1;
#X obj 428 202 loadbang;
#X obj 452 333 -;
#X obj 428 409 line~;
#X obj 428 388 pack f f;
#X obj 428 289 t f f f;
#X obj 497 345 sel 0 1;
#X obj 504 407 t f;
#X obj 428 242 metro 10;
#X obj 452 354 <= 0;
#X msg 497 367 1000;
#X msg 533 367 1;
#X text 375 494 shamelessly copied from http://designingsound.org/2013/06/tutorial-a-compressor-in-pure-data/
;
#X connect 0 0 10 0;
#X connect 1 0 0 0;
#X connect 2 0 0 1;
#X connect 3 0 1 0;
#X connect 3 0 9 0;
#X connect 4 0 7 0;
#X connect 5 0 9 1;
#X connect 7 0 10 1;
#X connect 8 0 7 1;
#X connect 9 0 4 0;
#X connect 10 0 12 0;
#X connect 12 0 17 0;
#X connect 13 0 12 1;
#X connect 14 0 13 0;
#X connect 15 0 14 0;
#X connect 19 0 21 0;
#X connect 20 0 5 0;
#X connect 21 0 33 0;
#X connect 21 1 28 0;
#X connect 21 2 25 0;
#X connect 21 3 30 0;
#X connect 21 4 23 0;
#X connect 21 5 22 0;
#X connect 27 0 32 0;
#X connect 28 0 27 0;
#X connect 28 1 27 1;
#X connect 29 0 24 0;
#X connect 30 0 29 0;
#X connect 30 1 29 1;
#X connect 33 0 34 0;
#X connect 34 0 26 0;
#X connect 35 0 21 0;
#X connect 36 0 35 0;
#X connect 37 0 43 0;
#X connect 38 0 46 0;
#X connect 39 0 38 0;
#X connect 40 0 47 0;
#X connect 42 0 41 0;
#X connect 43 0 42 0;
#X connect 43 1 40 1;
#X connect 43 2 40 0;
#X connect 44 0 48 0;
#X connect 44 1 49 0;
#X connect 46 0 37 0;
#X connect 47 0 44 0;
#X connect 48 0 42 1;
#X connect 48 0 45 0;
#X connect 49 0 42 1;
#X connect 49 0 45 0;
