#N canvas 0 22 750 768 10;
#X obj 218 654 *~;
#X obj 186 654 *~;
#X obj 200 328 t b b b b;
#X obj 267 411 delay;
#X obj 320 411 delay;
#X obj 433 396 delay;
#X obj 239 280 t b b b b;
#X obj 272 328 f;
#X obj 347 390 f;
#X obj 513 372 f;
#X obj 377 281 -;
#X obj 362 183 t f f f;
#X obj 381 219 / 2;
#X obj 381 240 t f f f;
#X obj 313 152 t b f;
#X msg 214 432 1 1 0 0;
#X msg 267 432 0 0 1 1;
#X msg 320 432 0 0 0 1;
#X msg 433 417 1 0 0 0;
#X obj 320 463 unpack f f f f;
#X obj 280 498 sel 0 1;
#X obj 290 546 line~ 1;
#X obj 341 498 sel 0 1;
#X obj 351 546 line~ 0;
#X obj 400 498 sel 0 1;
#X obj 410 546 line~ 0;
#X obj 459 498 sel 0 1;
#X obj 469 546 line~ 0;
#X obj 282 654 *~;
#X obj 250 654 *~;
#X obj 193 725 outlet~ audio_out;
#X obj 78 43 inlet~ signal;
#X obj 211 38 inlet period_trigs_drill;
#X obj 389 46 clip 1 60000;
#X obj 389 26 inlet nb_of_drills;
#X obj 389 67 sel 1;
#X obj 416 94 t b f;
#X obj 304 725 delwrite~ \$0-tapinout 10000;
#X obj 556 543 vd~ \$0-tapinout;
#X obj 577 496 line~ 100;
#X obj 544 496 sig~;
#X msg 280 521 0 10;
#X msg 308 521 1 10;
#X msg 341 521 0 10;
#X msg 369 521 1 10;
#X msg 400 521 0 10;
#X msg 428 521 1 10;
#X msg 459 521 0 10;
#X msg 487 521 1 10;
#X msg 577 474 \$1 20;
#X obj 224 135 spigot;
#X obj 271 135 spigot;
#X obj 273 104 == 0;
#X obj 277 78 t f f;
#X msg 387 93 1;
#X msg 360 93 0;
#X obj 232 78 t f f;
#X connect 0 0 37 0;
#X connect 1 0 30 0;
#X connect 2 0 15 0;
#X connect 2 1 3 0;
#X connect 2 2 4 0;
#X connect 2 3 5 0;
#X connect 3 0 16 0;
#X connect 4 0 17 0;
#X connect 5 0 18 0;
#X connect 6 0 2 0;
#X connect 6 1 7 0;
#X connect 6 2 8 0;
#X connect 6 3 9 0;
#X connect 7 0 3 1;
#X connect 8 0 4 1;
#X connect 9 0 5 1;
#X connect 10 0 8 1;
#X connect 11 0 10 0;
#X connect 11 1 12 0;
#X connect 11 2 9 1;
#X connect 12 0 13 0;
#X connect 13 0 7 1;
#X connect 13 1 49 0;
#X connect 13 1 40 0;
#X connect 13 2 10 1;
#X connect 14 0 6 0;
#X connect 14 1 11 0;
#X connect 15 0 19 0;
#X connect 16 0 19 0;
#X connect 17 0 19 0;
#X connect 18 0 19 0;
#X connect 19 0 20 0;
#X connect 19 1 22 0;
#X connect 19 2 24 0;
#X connect 19 3 26 0;
#X connect 20 0 41 0;
#X connect 20 1 42 0;
#X connect 21 0 1 1;
#X connect 22 0 43 0;
#X connect 22 1 44 0;
#X connect 23 0 0 1;
#X connect 24 0 45 0;
#X connect 24 1 46 0;
#X connect 25 0 29 1;
#X connect 26 0 47 0;
#X connect 26 1 48 0;
#X connect 27 0 28 1;
#X connect 28 0 30 0;
#X connect 29 0 37 0;
#X connect 31 0 1 0;
#X connect 31 0 0 0;
#X connect 32 0 56 0;
#X connect 33 0 35 0;
#X connect 34 0 33 0;
#X connect 35 0 55 0;
#X connect 35 1 36 0;
#X connect 36 0 54 0;
#X connect 36 1 12 1;
#X connect 38 0 29 0;
#X connect 38 0 28 0;
#X connect 39 0 38 0;
#X connect 41 0 21 0;
#X connect 42 0 21 0;
#X connect 43 0 23 0;
#X connect 44 0 23 0;
#X connect 45 0 25 0;
#X connect 46 0 25 0;
#X connect 47 0 27 0;
#X connect 48 0 27 0;
#X connect 49 0 39 0;
#X connect 50 0 18 0;
#X connect 51 0 14 0;
#X connect 52 0 50 1;
#X connect 53 0 52 0;
#X connect 53 1 51 1;
#X connect 54 0 53 0;
#X connect 55 0 53 0;
#X connect 56 0 50 0;
#X connect 56 1 51 0;
