#N canvas 622 288 450 394 10;
#X obj 108 58 inlet~;
#X obj 249 56 inlet;
#X obj 173 327 outlet~;
#X obj 173 265 *~;
#X obj 223 265 *~;
#X obj 223 327 outlet~;
#X obj 249 79 clip 0 1;
#X obj 214 154 jl.!- 1;
#X obj 214 176 pow 0.5;
#X obj 265 220 line~;
#X obj 214 220 line~ 1;
#X obj 249 101 t f f;
#X msg 214 198 \$1 10;
#X msg 265 198 \$1 10;
#X connect 0 0 3 0;
#X connect 0 0 4 0;
#X connect 1 0 6 0;
#X connect 3 0 2 0;
#X connect 4 0 5 0;
#X connect 6 0 11 0;
#X connect 7 0 8 0;
#X connect 8 0 12 0;
#X connect 9 0 4 1;
#X connect 10 0 3 1;
#X connect 11 0 7 0;
#X connect 11 1 13 0;
#X connect 12 0 10 0;
#X connect 13 0 9 0;
