#N canvas 434 196 643 492 10;
#X obj 78 137 *~;
#X obj 213 138 *~;
#X obj 179 220 osc~;
#X obj 249 193 *~;
#X obj 234 271 *~;
#X obj 150 358 +~;
#X obj 150 379 osc~;
#X obj 107 432 outlet~;
#X obj 247 426 *~;
#X obj 179 193 +~;
#X text 127 50 c ratio;
#X text 222 50 m ratio;
#X text 347 52 fix m +;
#X text 280 50 m index;
#X text 550 184 feedback;
#X text 76 50 freq;
#X obj 249 219 +~;
#X text 405 52 fix amp +;
#X obj 247 447 delwrite~ \$0-del 1;
#X obj 346 223 delread~ \$0-del 1;
#X obj 299 270 *~;
#X obj 346 116 osc~;
#X obj 260 302 +~;
#X obj 61 95 line~;
#X msg 61 73 \$1 10;
#X obj 104 95 line~;
#X msg 104 73 \$1 10;
#X obj 61 34 inlet;
#X obj 124 34 inlet;
#X obj 228 92 line~;
#X msg 228 70 \$1 10;
#X obj 228 34 inlet;
#X obj 278 92 line~;
#X msg 278 70 \$1 10;
#X obj 278 34 inlet;
#X obj 346 91 line~;
#X msg 346 69 \$1 10;
#X obj 346 36 inlet;
#X obj 404 91 line~;
#X msg 404 69 \$1 10;
#X obj 404 36 inlet;
#X obj 541 248 line~;
#X msg 541 226 \$1 10;
#X obj 541 161 inlet;
#X connect 0 0 5 0;
#X connect 1 0 9 0;
#X connect 1 0 3 0;
#X connect 2 0 4 0;
#X connect 3 0 16 0;
#X connect 4 0 22 0;
#X connect 5 0 6 0;
#X connect 6 0 7 0;
#X connect 6 0 8 0;
#X connect 8 0 18 0;
#X connect 9 0 2 0;
#X connect 16 0 4 1;
#X connect 19 0 4 0;
#X connect 19 0 20 0;
#X connect 20 0 22 1;
#X connect 21 0 20 0;
#X connect 22 0 5 1;
#X connect 23 0 0 0;
#X connect 23 0 1 0;
#X connect 24 0 23 0;
#X connect 25 0 0 1;
#X connect 26 0 25 0;
#X connect 27 0 24 0;
#X connect 28 0 26 0;
#X connect 29 0 1 1;
#X connect 30 0 29 0;
#X connect 31 0 30 0;
#X connect 32 0 3 1;
#X connect 33 0 32 0;
#X connect 34 0 33 0;
#X connect 35 0 21 0;
#X connect 36 0 35 0;
#X connect 37 0 36 0;
#X connect 38 0 20 1;
#X connect 39 0 38 0;
#X connect 40 0 39 0;
#X connect 41 0 8 1;
#X connect 42 0 41 0;
#X connect 43 0 42 0;
