#N canvas 73 398 431 425 10;
#X obj 97 174 jl.equalgainsplit~;
#X obj 97 311 *~ 0.2;
#X obj 244 310 *~ 0.2;
#X obj 97 333 outlet~;
#X obj 244 332 outlet~;
#X obj 97 72 inlet~;
#N canvas 360 72 769 707 12-gdelay-stereo-units 0;
#X obj 100 595 outlet~;
#X obj 214 647 outlet~;
#X obj 136 268 jl.gdelay.unit~ \$0 1;
#X obj 410 73 inlet;
#X obj 388 185 t a a a a a a a a a a a a;
#X obj 115 47 inlet~;
#X obj 177 290 jl.gdelay.unit~ \$0 2;
#X obj 217 312 jl.gdelay.unit~ \$0 3;
#X obj 255 334 jl.gdelay.unit~ \$0 4;
#X obj 296 356 jl.gdelay.unit~ \$0 5;
#X obj 336 378 jl.gdelay.unit~ \$0 6;
#X obj 381 400 jl.gdelay.unit~ \$0 7;
#X obj 422 422 jl.gdelay.unit~ \$0 8;
#X obj 462 444 jl.gdelay.unit~ \$0 9;
#X obj 500 466 jl.gdelay.unit~ \$0 10;
#X obj 541 488 jl.gdelay.unit~ \$0 11;
#X obj 581 510 jl.gdelay.unit~ \$0 12;
#X obj 157 170 *~ 1;
#X connect 2 0 0 0;
#X connect 2 1 1 0;
#X connect 3 0 4 0;
#X connect 4 0 2 1;
#X connect 4 1 6 1;
#X connect 4 2 7 1;
#X connect 4 3 8 1;
#X connect 4 4 9 1;
#X connect 4 5 10 1;
#X connect 4 6 11 1;
#X connect 4 7 12 1;
#X connect 4 8 13 1;
#X connect 4 9 14 1;
#X connect 4 10 15 1;
#X connect 4 11 16 1;
#X connect 5 0 17 0;
#X connect 6 0 0 0;
#X connect 6 1 1 0;
#X connect 7 0 0 0;
#X connect 7 1 1 0;
#X connect 8 0 0 0;
#X connect 8 1 1 0;
#X connect 9 0 0 0;
#X connect 9 1 1 0;
#X connect 10 0 0 0;
#X connect 10 1 1 0;
#X connect 11 0 0 0;
#X connect 11 1 1 0;
#X connect 12 0 0 0;
#X connect 12 1 1 0;
#X connect 13 0 0 0;
#X connect 13 1 1 0;
#X connect 14 0 0 0;
#X connect 14 1 1 0;
#X connect 15 0 0 0;
#X connect 15 1 1 0;
#X connect 16 0 0 0;
#X connect 16 1 1 0;
#X connect 17 0 2 0;
#X connect 17 0 6 0;
#X connect 17 0 7 0;
#X connect 17 0 8 0;
#X connect 17 0 9 0;
#X connect 17 0 10 0;
#X connect 17 0 11 0;
#X connect 17 0 12 0;
#X connect 17 0 13 0;
#X connect 17 0 14 0;
#X connect 17 0 15 0;
#X connect 17 0 16 0;
#X restore 202 223 pd 12-gdelay-stereo-units;
#X obj 202 110 route drywet;
#X obj 202 72 inlet;
#X connect 0 0 1 0;
#X connect 0 0 2 0;
#X connect 0 1 6 0;
#X connect 1 0 3 0;
#X connect 2 0 4 0;
#X connect 5 0 0 0;
#X connect 6 0 1 0;
#X connect 6 1 2 0;
#X connect 7 0 0 1;
#X connect 7 1 6 1;
#X connect 8 0 7 0;
