#N canvas 166 220 558 513 10;
#X obj 135 270 spigot;
#X obj 90 214 t f f;
#X obj 90 270 spigot;
#X obj 90 293 jl.scale 0 1 3.1415 6.283;
#X obj 90 316 cos;
#X obj 163 413 pow \$5;
#X obj 163 463 outlet;
#X obj 90 42 inlet;
#X obj 130 42 inlet;
#X obj 170 42 inlet;
#X obj 286 41 inlet;
#X obj 326 41 inlet;
#X obj 366 41 inlet;
#X obj 156 143 sel 0 1;
#X msg 156 189 0 1;
#X msg 185 189 1 0;
#X obj 156 213 unpack f f;
#X obj 406 41 inlet;
#X obj 425 77 f \$6;
#X obj 445 41 loadbang;
#X obj 156 168 t b;
#X obj 185 168 t b;
#X obj 90 79 jl.scale \$1 \$2 0 1;
#X obj 90 339 jl.scale -1 1 0 1;
#X obj 163 435 jl.scale 0 1 \$3 \$4;
#X connect 0 0 5 0;
#X connect 1 0 2 0;
#X connect 1 1 0 0;
#X connect 2 0 3 0;
#X connect 3 0 4 0;
#X connect 4 0 23 0;
#X connect 5 0 24 0;
#X connect 7 0 22 0;
#X connect 8 0 22 1;
#X connect 9 0 22 2;
#X connect 10 0 24 3;
#X connect 11 0 24 4;
#X connect 12 0 5 1;
#X connect 13 0 20 0;
#X connect 13 1 21 0;
#X connect 14 0 16 0;
#X connect 15 0 16 0;
#X connect 16 0 2 1;
#X connect 16 1 0 1;
#X connect 17 0 18 0;
#X connect 18 0 13 0;
#X connect 19 0 18 0;
#X connect 20 0 14 0;
#X connect 21 0 15 0;
#X connect 22 0 1 0;
#X connect 23 0 5 0;
#X connect 24 0 6 0;
