#N canvas 0 23 870 581 10;
#X obj 368 91 jl.ahr~ 10 30 100 0 0.5 0.1;
#X obj 317 91 osc~ 60;
#X obj 333 128 *~;
#X obj 358 179 *~;
#X obj 373 153 line~;
#X msg 373 132 \$1 5;
#X obj 227 176 *~;
#X obj 242 150 line~;
#X msg 242 129 \$1 5;
#X obj 368 69 metro 200;
#X obj 350 321 *~;
#X obj 365 295 line~;
#X msg 365 274 \$1 5;
#X obj 310 473 dac~ 1 2;
#X obj 407 275 hsl 128 15 0 1 0 0 empty empty empty -2 -8 0 10 -262144
-1 -1 1700 0;
#X obj 414 132 hsl 128 15 0 2 0 0 empty empty empty -2 -8 0 10 -262144
-1 -1 6200 0;
#X obj 242 12 hsl 128 15 0 1 0 0 empty empty empty -2 -8 0 10 -262144
-1 -1 200 0;
#X obj 368 49 tgl 15 0 empty empty empty 17 7 0 10 -262144 -1 -1 1
1;
#X msg 494 203 gain \$1;
#X obj 497 185 hsl 128 15 0 2 0 0 empty empty empty -2 -8 0 10 -262144
-1 -1 10300 0;
#X obj 318 226 jl.compressor~;
#X msg 585 253 ratio \$1;
#X floatatom 586 234 5 0 0 0 - - -, f 5;
#X floatatom 586 277 5 0 0 0 - - -, f 5;
#X msg 585 296 threshold \$1;
#X floatatom 588 325 5 0 0 0 - - -, f 5;
#X msg 588 344 response \$1;
#X obj 216 93 phasor~ 50;
#X obj 407 414 send~ compressed;
#X obj 130 155 *~;
#X obj 145 129 line~;
#X msg 145 108 \$1 5;
#X obj 106 12 hsl 128 15 0 1 0 0 empty empty empty -2 -8 0 10 -262144
-1 -1 200 0;
#X obj 75 109 phasor~ 51;
#X floatatom 53 22 5 0 0 0 - - -, f 5;
#X floatatom 438 33 5 0 0 0 - - -, f 5;
#X obj 53 52 + 1;
#X floatatom 316 58 5 0 0 0 - - -, f 5;
#X connect 0 0 2 1;
#X connect 1 0 2 0;
#X connect 2 0 3 0;
#X connect 3 0 20 0;
#X connect 4 0 3 1;
#X connect 5 0 4 0;
#X connect 6 0 20 0;
#X connect 7 0 6 1;
#X connect 8 0 7 0;
#X connect 9 0 0 0;
#X connect 10 0 28 0;
#X connect 10 0 13 0;
#X connect 10 0 13 1;
#X connect 11 0 10 1;
#X connect 12 0 11 0;
#X connect 14 0 12 0;
#X connect 15 0 5 0;
#X connect 16 0 8 0;
#X connect 17 0 9 0;
#X connect 18 0 20 1;
#X connect 19 0 18 0;
#X connect 20 0 10 0;
#X connect 21 0 20 1;
#X connect 22 0 21 0;
#X connect 23 0 24 0;
#X connect 24 0 20 1;
#X connect 25 0 26 0;
#X connect 26 0 20 1;
#X connect 27 0 6 0;
#X connect 29 0 20 0;
#X connect 30 0 29 1;
#X connect 31 0 30 0;
#X connect 32 0 31 0;
#X connect 33 0 29 0;
#X connect 34 0 27 0;
#X connect 34 0 36 0;
#X connect 35 0 9 1;
#X connect 36 0 33 0;
#X connect 37 0 1 0;
