#N canvas 498 122 662 547 10;
#X floatatom 172 182 5 0 0 0 - - -, f 5;
#X obj 173 325 *~;
#X obj 117 171 line~;
#X msg 117 149 \$1 10;
#X obj 120 129 hsl 128 15 0 1 0 0 empty empty empty -2 -8 0 10 -262144
-1 -1 10500 0;
#X obj 230 260 adc~ 1;
#X obj 204 463 dac~ 1 2;
#X obj 299 295 t f b;
#X obj 326 336 + 1;
#X obj 415 298 t f b;
#X obj 442 339 + 1;
#X obj 295 190 tgl 15 0 empty empty empty 17 7 0 10 -262144 -1 -1 0
1;
#X obj 300 224 jl.rmetro 120 0;
#X obj 442 318 random 12;
#X obj 326 316 random 12;
#X floatatom 332 191 5 0 0 0 - - -, f 5;
#X obj 180 254 *~;
#X obj 292 113 jl.ahr~ 5 10 10 0 1 0.2;
#X floatatom 531 264 5 0 0 0 - - -, f 5;
#X floatatom 339 71 5 0 0 0 - - -, f 5;
#X floatatom 286 63 5 0 0 0 - - -, f 5;
#X obj 173 416 jl.drillunit~;
#X obj 172 204 osc~;
#X floatatom 369 189 5 0 0 0 - - -, f 5;
#X obj 418 224 jl.rmetro 120 0;
#X floatatom 450 191 5 0 0 0 - - -, f 5;
#X floatatom 487 189 5 0 0 0 - - -, f 5;
#X obj 444 151 bng 15 250 50 0 empty empty empty 17 7 0 10 -262144
-1 -1;
#X obj 351 415 jl.drillunit~;
#X connect 0 0 22 0;
#X connect 1 0 21 0;
#X connect 1 0 28 0;
#X connect 2 0 1 0;
#X connect 3 0 2 0;
#X connect 4 0 3 0;
#X connect 7 0 21 1;
#X connect 7 1 14 0;
#X connect 8 0 21 2;
#X connect 9 0 28 1;
#X connect 9 1 13 0;
#X connect 10 0 28 2;
#X connect 11 0 12 0;
#X connect 11 0 24 0;
#X connect 12 1 7 0;
#X connect 12 1 27 0;
#X connect 13 0 10 0;
#X connect 14 0 8 0;
#X connect 15 0 12 1;
#X connect 15 0 24 1;
#X connect 16 0 1 1;
#X connect 17 0 16 1;
#X connect 18 0 13 1;
#X connect 18 0 14 1;
#X connect 19 0 17 2;
#X connect 20 0 17 1;
#X connect 21 0 6 0;
#X connect 22 0 16 0;
#X connect 23 0 12 2;
#X connect 23 0 24 2;
#X connect 24 1 9 0;
#X connect 25 0 24 1;
#X connect 26 0 24 2;
#X connect 27 0 17 0;
#X connect 28 0 6 1;
