#N canvas 249 129 663 613 10;
#X obj 473 90 soundfiler;
#X obj 473 46 openpanel;
#X obj 473 26 bng 15 250 50 0 empty empty load_a_soundfile 17 7 0 10
-262144 -1 -1;
#X obj 297 530 *~;
#X obj 369 453 line~;
#X msg 369 430 \$1 10;
#X obj 372 410 hsl 128 15 0 1 0 0 empty empty volume -2 -8 0 10 -262144
-1 -1 0 0;
#X obj 278 567 dac~ 1 2;
#X floatatom 114 264 5 0 0 2 noise_width - -, f 5;
#X floatatom 61 264 5 0 0 0 - - -, f 5;
#X floatatom 264 264 5 0 0 2 grain_size - -, f 5;
#X floatatom 189 264 5 0 0 2 noise_speed - -, f 5;
#X msg 478 508 \; pd dsp \$1;
#X obj 478 485 tgl 15 0 empty empty empty 17 7 0 10 -262144 -1 -1 1
1;
#X floatatom 332 264 5 0 0 2 pitch - -, f 5;
#X obj 64 221 hsl 128 15 0 1 0 0 empty empty position -2 -8 0 10 -262144
-1 -1 2193 0;
#X floatatom 61 159 5 0 0 2 speed_ratio - -, f 5;
#N canvas 0 22 522 532 signal_looper 0;
#X obj 336 64 tgl 15 0 empty empty empty 17 7 0 10 -262144 -1 -1 0
1;
#X obj 187 325 phasor~ 1;
#X floatatom 92 240 10 0 0 0 - - -, f 10;
#X floatatom 187 307 10 0 0 0 - - -, f 10;
#X obj 237 391 snapshot~;
#X obj 385 198 metro 10;
#X obj 385 179 tgl 15 0 empty empty empty 17 7 0 10 -262144 -1 -1 1
1;
#X obj 336 139 t f f;
#X msg 336 111 0;
#X obj 336 83 sel 0;
#X obj 92 183 *;
#X obj 92 205 / 44.1;
#X floatatom 52 105 5 0 0 0 - - -, f 5;
#X obj 52 124 jl.!div 1;
#X msg 214 213 0;
#X obj 92 262 jl.!div 1000;
#X obj 52 36 inlet speed;
#X obj 147 36 inlet samplelen;
#X obj 426 40 loadbang;
#X msg 426 62 1;
#X obj 237 419 outlet;
#X obj 147 59 t b f;
#X connect 0 0 9 0;
#X connect 1 0 4 0;
#X connect 2 0 15 0;
#X connect 3 0 1 0;
#X connect 4 0 20 0;
#X connect 5 0 4 0;
#X connect 6 0 5 0;
#X connect 7 0 1 1;
#X connect 7 1 6 0;
#X connect 8 0 7 0;
#X connect 9 0 8 0;
#X connect 9 1 6 0;
#X connect 10 0 11 0;
#X connect 11 0 2 0;
#X connect 12 0 13 0;
#X connect 13 0 10 0;
#X connect 13 1 14 0;
#X connect 14 0 3 0;
#X connect 15 0 3 0;
#X connect 16 0 12 0;
#X connect 17 0 21 0;
#X connect 18 0 19 0;
#X connect 19 0 6 0;
#X connect 21 0 12 0;
#X connect 21 1 10 1;
#X restore 61 180 pd signal_looper;
#X obj 61 93 loadbang;
#X msg 61 114 1, f 2;
#X obj 231 401 jl.gflow4~ gflow4;
#X obj 494 127 table gflow4;
#X msg 473 68 read -resize \$1 gflow4;
#X connect 0 0 17 1;
#X connect 0 0 20 6;
#X connect 1 0 22 0;
#X connect 2 0 1 0;
#X connect 3 0 7 0;
#X connect 3 0 7 1;
#X connect 4 0 3 1;
#X connect 5 0 4 0;
#X connect 6 0 5 0;
#X connect 8 0 20 1;
#X connect 9 0 20 0;
#X connect 10 0 20 3;
#X connect 11 0 20 2;
#X connect 13 0 12 0;
#X connect 14 0 20 4;
#X connect 15 0 9 0;
#X connect 16 0 17 0;
#X connect 17 0 15 0;
#X connect 18 0 19 0;
#X connect 19 0 16 0;
#X connect 20 0 3 0;
#X connect 20 1 3 0;
#X connect 20 2 3 0;
#X connect 20 3 3 0;
#X connect 22 0 0 0;
