#N canvas 500 282 501 532 10;
#X obj 222 268 jl.drillunit~;
#X obj 297 217 random 4;
#X obj 297 239 + 1;
#X obj 259 227 f;
#X obj 239 181 t b b;
#X obj 239 159 metro 100;
#X obj 239 138 tgl 15 0 empty empty empty 17 7 0 10 -262144 -1 -1 1
1;
#X obj 222 418 *~;
#X obj 278 368 line~;
#X msg 278 345 \$1 10;
#X obj 281 325 hsl 128 15 0 1 0 0 empty empty volume -2 -8 0 10 -262144
-1 -1 0 0;
#X obj 201 455 dac~ 1 2;
#X obj 135 154 *~, f 4;
#X obj 184 118 line~;
#X msg 184 95 \$1 10;
#X obj 187 75 hsl 128 15 0 1 0 0 empty empty gain -2 -8 0 10 -262144
-1 -1 12700 0;
#X obj 104 116 adc~ 1;
#X obj 290 137 t f f;
#X floatatom 290 119 5 0 0 0 - - -, f 5;
#X connect 0 0 7 0;
#X connect 1 0 2 0;
#X connect 2 0 0 2;
#X connect 3 0 0 1;
#X connect 4 0 3 0;
#X connect 4 1 1 0;
#X connect 5 0 4 0;
#X connect 6 0 5 0;
#X connect 7 0 11 0;
#X connect 7 0 11 1;
#X connect 8 0 7 1;
#X connect 9 0 8 0;
#X connect 10 0 9 0;
#X connect 12 0 0 0;
#X connect 13 0 12 1;
#X connect 14 0 13 0;
#X connect 15 0 14 0;
#X connect 16 0 12 0;
#X connect 17 0 5 1;
#X connect 17 1 3 1;
#X connect 18 0 17 0;
