#N canvas 293 195 919 492 10;
#X obj 167 59 bng 15 250 50 0 empty empty empty 17 7 0 10 -262144 -1
-1;
#X obj 118 234 *~;
#X obj 89 204 *~ 0.5;
#X obj 219 387 *~;
#X obj 291 310 line~;
#X msg 291 287 \$1 10;
#X obj 294 267 hsl 128 15 0 1 0 0 empty empty volume -2 -8 0 10 -262144
-1 -1 8200 0;
#X obj 200 424 dac~ 1 2;
#X msg 795 398 \; pd dsp \$1;
#X obj 795 375 tgl 15 0 empty empty empty 17 7 0 10 -262144 -1 -1 0
1;
#X floatatom 63 69 5 0 0 0 - - -, f 5;
#X obj 252 165 vsl 15 128 0 1 0 0 empty empty empty 0 -9 0 10 -262144
-1 -1 0 0;
#X obj 191 117 jl.ahr~ 10 200 1000 0 1 0.3;
#X obj 89 172 vcf~ 3;
#X obj 149 97 jl.ahr~ 50 150 1000 50 5000 100;
#X obj 63 87 phasor~ 66;
#X obj 499 231 *~;
#X obj 600 384 *~;
#X obj 672 307 line~;
#X msg 672 284 \$1 10;
#X obj 675 264 hsl 128 15 0 1 0 0 empty empty volume -2 -8 0 10 -262144
-1 -1 8200 0;
#X obj 581 421 dac~ 1 2;
#X obj 633 162 vsl 15 128 0 1 0 0 empty empty empty 0 -9 0 10 -262144
-1 -1 0 0;
#X obj 470 169 vcf~ 3;
#X obj 444 84 noise~;
#X obj 470 192 *~ 0.3;
#X obj 585 54 tgl 15 0 empty empty empty 17 7 0 10 -262144 -1 -1 0
1;
#X obj 252 137 jl.ahr 10 200 1000 0 1 0.3;
#X obj 530 94 jl.adsr~ 10 100 1000 50 1000 500;
#X obj 633 134 jl.adsr 10 100 100 0 1 0.7;
#X obj 572 114 jl.adsr~ 10 100 100 0 1 0.7;
#X msg 568 26 1;
#X msg 597 26 0;
#X connect 0 0 12 0;
#X connect 0 0 14 0;
#X connect 0 0 27 0;
#X connect 1 0 3 0;
#X connect 2 0 1 0;
#X connect 3 0 7 0;
#X connect 3 0 7 1;
#X connect 4 0 3 1;
#X connect 5 0 4 0;
#X connect 6 0 5 0;
#X connect 9 0 8 0;
#X connect 10 0 15 0;
#X connect 12 0 1 1;
#X connect 13 0 2 0;
#X connect 14 0 13 1;
#X connect 15 0 13 0;
#X connect 16 0 17 0;
#X connect 17 0 21 0;
#X connect 17 0 21 1;
#X connect 18 0 17 1;
#X connect 19 0 18 0;
#X connect 20 0 19 0;
#X connect 23 0 25 0;
#X connect 24 0 23 0;
#X connect 25 0 16 0;
#X connect 26 0 28 0;
#X connect 26 0 29 0;
#X connect 26 0 30 0;
#X connect 27 0 11 0;
#X connect 28 0 23 1;
#X connect 29 0 22 0;
#X connect 30 0 16 1;
#X connect 31 0 26 0;
#X connect 32 0 26 0;
