#N canvas 344 270 584 466 10;
#X floatatom 128 99 5 0 0 0 - - -, f 5;
#X obj 71 116 mtof;
#X floatatom 71 98 5 0 0 0 - - -, f 5;
#X floatatom 163 99 5 0 0 0 - - -, f 5;
#X floatatom 221 84 5 0 0 1 mod_index - -, f 5;
#X obj 184 374 *~;
#X obj 243 304 line~;
#X msg 243 281 \$1 10;
#X obj 246 261 hsl 128 15 0 1 0 0 empty empty volume -2 -8 0 10 -262144
-1 -1 0 0;
#X obj 165 411 dac~ 1 2;
#X msg 318 361 \; pd dsp \$1;
#X obj 318 338 tgl 15 0 empty empty empty 17 7 0 10 -262144 -1 -1 1
1;
#X floatatom 315 149 5 0 0 1 feedback - -, f 5;
#X floatatom 249 120 5 0 0 0 - - -, f 5;
#X floatatom 284 120 5 0 0 0 - - -, f 5;
#X obj 132 224 jl.feedfm [----];
#X obj 279 26 jl.feedfm~;
#X text 348 26 < similar with signal inputs;
#X msg 128 75 1;
#X msg 163 75 2.01;
#X msg 71 76 40;
#X obj 105 42 loadbang;
#X connect 0 0 15 1;
#X connect 1 0 15 0;
#X connect 2 0 1 0;
#X connect 3 0 15 2;
#X connect 4 0 15 3;
#X connect 5 0 9 0;
#X connect 5 0 9 1;
#X connect 6 0 5 1;
#X connect 7 0 6 0;
#X connect 8 0 7 0;
#X connect 11 0 10 0;
#X connect 12 0 15 6;
#X connect 13 0 15 4;
#X connect 14 0 15 5;
#X connect 15 0 5 0;
#X connect 18 0 0 0;
#X connect 19 0 3 0;
#X connect 20 0 2 0;
#X connect 21 0 20 0;
#X connect 21 0 18 0;
#X connect 21 0 19 0;
