#N canvas 570 319 811 451 10;
#X msg 173 106 size \$1;
#X floatatom 173 87 5 0 0 0 - - -, f 5;
#X floatatom 232 87 5 0 0 0 - - -, f 5;
#X msg 232 106 rsize \$1;
#X floatatom 293 87 5 0 0 0 - - -, f 5;
#X floatatom 372 87 5 0 0 0 - - -, f 5;
#X msg 293 106 mindelay \$1;
#X msg 372 106 maxdelay \$1;
#X floatatom 450 87 5 0 0 0 - - -, f 5;
#X msg 450 106 speed \$1;
#X floatatom 511 87 5 0 0 0 - - -, f 5;
#X floatatom 570 87 5 0 0 0 - - -, f 5;
#X msg 511 106 pan \$1;
#X msg 570 106 width \$1;
#X floatatom 632 87 5 0 0 0 - - -, f 5;
#X msg 632 106 feedback \$1;
#X obj 21 118 adc~ 1;
#X obj 186 361 *~;
#X obj 211 361 *~;
#X obj 180 404 dac~ 1 2;
#X obj 233 318 line~;
#X msg 233 297 \$1 10;
#X obj 236 277 hsl 128 15 0 1 0 0 empty empty empty -2 -8 0 10 -262144
-1 -1 0 0;
#X obj 372 38 bng 15 250 50 0 empty empty empty 17 7 0 10 -262144 -1
-1;
#X msg 42 68 drywet \$1;
#X obj 45 50 hsl 128 15 0 1 0 0 empty empty empty -2 -8 0 10 -262144
-1 -1 0 0;
#X obj 116 242 jl.gdelay~;
#X obj 578 160 receive~ compressed;
#X obj 578 256 *~;
#X obj 593 231 line~;
#X msg 593 210 \$1 10;
#X obj 596 190 hsl 128 15 0 1 0 0 empty empty empty -2 -8 0 10 -262144
-1 -1 12700 0;
#X obj 69 211 *~;
#X obj 84 186 line~;
#X msg 84 165 \$1 10;
#X obj 87 145 hsl 128 15 0 1 0 0 empty empty empty -2 -8 0 10 -262144
-1 -1 12700 0;
#X connect 0 0 26 1;
#X connect 1 0 0 0;
#X connect 2 0 3 0;
#X connect 3 0 26 1;
#X connect 4 0 6 0;
#X connect 5 0 7 0;
#X connect 6 0 26 1;
#X connect 7 0 26 1;
#X connect 8 0 9 0;
#X connect 9 0 26 1;
#X connect 10 0 12 0;
#X connect 11 0 13 0;
#X connect 12 0 26 1;
#X connect 13 0 26 1;
#X connect 14 0 15 0;
#X connect 15 0 26 1;
#X connect 16 0 32 0;
#X connect 17 0 19 0;
#X connect 18 0 19 1;
#X connect 20 0 17 1;
#X connect 20 0 18 1;
#X connect 21 0 20 0;
#X connect 22 0 21 0;
#X connect 23 0 1 0;
#X connect 23 0 2 0;
#X connect 23 0 4 0;
#X connect 23 0 5 0;
#X connect 23 0 8 0;
#X connect 23 0 10 0;
#X connect 23 0 11 0;
#X connect 23 0 14 0;
#X connect 24 0 26 1;
#X connect 25 0 24 0;
#X connect 26 0 17 0;
#X connect 26 1 18 0;
#X connect 27 0 28 0;
#X connect 28 0 26 0;
#X connect 29 0 28 1;
#X connect 30 0 29 0;
#X connect 31 0 30 0;
#X connect 32 0 26 0;
#X connect 33 0 32 1;
#X connect 34 0 33 0;
#X connect 35 0 34 0;
