#N canvas 604 23 811 724 10;
#X obj 473 90 soundfiler;
#X obj 473 46 openpanel;
#X obj 473 26 bng 15 250 50 0 empty empty load_a_soundfile 17 7 0 10
-262144 -1 -1;
#X obj 250 549 *~;
#X obj 369 500 line~;
#X msg 369 481 \$1 10;
#X obj 372 410 hsl 128 15 0 1 0 0 empty empty volume -2 -8 0 10 -262144
-1 -1 0 0;
#X obj 245 668 dac~ 1 2;
#X floatatom 114 264 5 0 0 2 noise_width - -, f 5;
#X floatatom 61 264 5 0 0 0 - - -, f 5;
#X floatatom 264 264 5 0 0 2 grain_size - -, f 5;
#X floatatom 189 264 5 0 0 2 noise_speed - -, f 5;
#X msg 478 508 \; pd dsp \$1;
#X obj 478 485 tgl 15 0 empty empty empty 17 7 0 10 -262144 -1 -1 0
1;
#X floatatom 332 264 5 0 0 2 pitch - -, f 5;
#X obj 64 221 hsl 128 15 0 1 0 0 empty empty position -2 -8 0 10 -262144
-1 -1 0 0;
#X floatatom 61 159 10 0 0 2 speed_ratio - -, f 10;
#N canvas 67 39 522 532 signal_looper 0;
#X obj 309 61 tgl 15 0 empty empty empty 17 7 0 10 -262144 -1 -1 0
1;
#X obj 187 325 phasor~ 1;
#X floatatom 92 240 10 0 0 0 - - -, f 10;
#X floatatom 187 307 10 0 0 0 - - -, f 10;
#X obj 237 391 snapshot~;
#X obj 385 198 metro 10;
#X obj 385 179 tgl 15 0 empty empty empty 17 7 0 10 -262144 -1 -1 1
1;
#X msg 336 111 0;
#X obj 336 83 sel 0;
#X obj 92 183 *;
#X obj 92 205 / 44.1;
#X floatatom 52 105 5 0 0 0 - - -, f 5;
#X obj 52 124 jl.!div 1;
#X msg 214 213 0;
#X obj 92 262 jl.!div 1000;
#X obj 52 36 inlet speed;
#X obj 147 36 inlet samplelen;
#X obj 435 38 loadbang;
#X msg 435 64 1;
#X obj 237 419 outlet;
#X obj 147 59 t b f;
#X obj 336 38 inlet onoff;
#X obj 336 139 t f f;
#X msg 381 123 0;
#X obj 384 87 bng 15 250 50 0 empty empty empty 17 7 0 10 -262144 -1
-1;
#X connect 0 0 8 0;
#X connect 1 0 4 0;
#X connect 2 0 14 0;
#X connect 3 0 1 0;
#X connect 4 0 19 0;
#X connect 5 0 4 0;
#X connect 6 0 5 0;
#X connect 7 0 22 0;
#X connect 8 0 7 0;
#X connect 8 1 6 0;
#X connect 8 1 24 0;
#X connect 9 0 10 0;
#X connect 10 0 2 0;
#X connect 11 0 12 0;
#X connect 12 0 9 0;
#X connect 12 1 13 0;
#X connect 13 0 3 0;
#X connect 14 0 3 0;
#X connect 15 0 11 0;
#X connect 16 0 20 0;
#X connect 17 0 18 0;
#X connect 18 0 6 0;
#X connect 20 0 11 0;
#X connect 20 1 9 1;
#X connect 21 0 8 0;
#X connect 22 1 6 0;
#X connect 23 0 1 1;
#X connect 24 0 23 0;
#X restore 61 180 pd signal_looper;
#X obj 61 93 loadbang;
#X msg 61 114 1, f 2;
#X obj 231 401 jl.gflow4~ gflow4;
#X obj 494 127 table gflow4;
#X msg 473 68 read -resize \$1 gflow4;
#X obj 154 94 tgl 15 0 empty empty empty 17 7 0 10 -262144 -1 -1 0
1;
#X obj 659 374 * 12;
#X obj 659 394 + 0;
#X floatatom 702 333 5 0 0 0 - - -, f 5;
#X floatatom 702 351 5 0 0 0 - - -, f 5;
#X obj 265 570 *~ 1;
#X obj 276 549 *~;
#X floatatom 384 435 5 0 0 0 - - -, f 5;
#X obj 369 460 * 5;
#X obj 351 460 bng 15 250 50 0 empty empty empty 17 7 0 10 -262144
-1 -1;
#X obj 265 635 *~ 1;
#X obj 61 481 bng 15 250 50 0 empty empty load_a_soundfile 17 7 0 10
-262144 -1 -1;
#X msg 61 523 open \$1;
#X obj 61 501 savepanel;
#X obj 61 603 writesf~;
#X msg 78 552 start;
#X msg 78 572 stop;
#X obj 265 612 hip~ 1200;
#X obj 265 591 lop~ 9000;
#X obj 622 164 loadbang;
#X obj 659 238 t b f;
#X obj 653 264 random 1000;
#X obj 659 310 pack f f;
#X obj 659 333 line 0;
#X obj 653 285 / 999;
#X obj 622 205 jl.rmetro 100;
#X obj 622 185 tgl 15 0 empty empty empty 17 7 0 10 -262144 -1 -1 1
1;
#X floatatom 353 552 5 0 0 0 - - -, f 5;
#X floatatom 353 570 5 0 0 0 - - -, f 5;
#X floatatom 703 171 5 0 0 0 - - -, f 5;
#X msg 15 426 symbol /Users/larralde/Projects/git-repositories/josephlarralde
;
#X obj 741 539 f;
#X obj 720 509 f;
#X floatatom 735 484 5 0 0 0 - - -, f 5;
#X obj 760 510 f;
#X floatatom 775 485 5 0 0 0 - - -, f 5;
#X obj 726 447 random 2;
#X obj 726 466 sel 0 1;
#X msg 188 116 1, f 2;
#X connect 0 0 17 1;
#X connect 0 0 20 6;
#X connect 1 0 22 0;
#X connect 2 0 1 0;
#X connect 3 0 28 0;
#X connect 4 0 3 1;
#X connect 4 0 29 1;
#X connect 5 0 4 0;
#X connect 6 0 31 0;
#X connect 8 0 20 1;
#X connect 9 0 20 0;
#X connect 10 0 20 3;
#X connect 11 0 20 2;
#X connect 13 0 12 0;
#X connect 14 0 20 4;
#X connect 15 0 9 0;
#X connect 16 0 17 0;
#X connect 17 0 15 0;
#X connect 18 0 19 0;
#X connect 19 0 16 0;
#X connect 20 0 3 0;
#X connect 20 1 29 0;
#X connect 20 2 3 0;
#X connect 20 3 29 0;
#X connect 22 0 0 0;
#X connect 23 0 17 2;
#X connect 24 0 25 0;
#X connect 25 0 14 0;
#X connect 26 0 24 1;
#X connect 27 0 25 1;
#X connect 28 0 41 0;
#X connect 29 0 28 0;
#X connect 30 0 31 1;
#X connect 30 0 32 0;
#X connect 31 0 5 0;
#X connect 32 0 31 0;
#X connect 33 0 7 0;
#X connect 33 0 7 1;
#X connect 34 0 36 0;
#X connect 35 0 37 0;
#X connect 36 0 35 0;
#X connect 38 0 37 0;
#X connect 39 0 37 0;
#X connect 40 0 33 0;
#X connect 40 0 37 0;
#X connect 41 0 40 0;
#X connect 42 0 49 0;
#X connect 43 0 44 0;
#X connect 43 1 45 1;
#X connect 44 0 47 0;
#X connect 45 0 46 0;
#X connect 46 0 24 0;
#X connect 47 0 45 0;
#X connect 48 1 43 0;
#X connect 49 0 48 0;
#X connect 50 0 41 1;
#X connect 51 0 40 1;
#X connect 52 0 48 1;
#X connect 53 0 36 0;
#X connect 54 0 14 0;
#X connect 55 0 54 0;
#X connect 56 0 55 1;
#X connect 57 0 54 0;
#X connect 58 0 57 1;
#X connect 59 0 60 0;
#X connect 60 0 55 0;
#X connect 60 1 57 0;
#X connect 61 0 17 2;
