#N canvas 436 268 619 456 10;
#X obj 323 237 hsl 128 15 0 1 0 0 empty empty empty -2 -8 0 10 -262144
-1 -1 0 0;
#X obj 158 154 osc~;
#X obj 210 154 osc~;
#X obj 210 110 line~;
#X msg 210 91 \$1 5;
#X floatatom 210 72 5 0 0 0 - - -, f 5;
#X obj 254 344 *~;
#X obj 158 225 jl.equalgainmerge~;
#X obj 210 186 hip~;
#X obj 158 248 *~ 0.2;
#X obj 321 275 line~;
#X msg 321 256 \$1 5;
#X obj 235 377 dac~ 1 2;
#X floatatom 257 154 5 0 0 0 - - -, f 5;
#X obj 295 154 hsl 128 15 0 1 0 0 empty empty empty -2 -8 0 10 -262144
-1 -1 12700 0;
#X connect 0 0 11 0;
#X connect 1 0 7 0;
#X connect 2 0 8 0;
#X connect 3 0 1 0;
#X connect 3 0 2 0;
#X connect 4 0 3 0;
#X connect 5 0 4 0;
#X connect 6 0 12 0;
#X connect 6 0 12 1;
#X connect 7 0 9 0;
#X connect 8 0 7 1;
#X connect 9 0 6 0;
#X connect 10 0 6 1;
#X connect 11 0 10 0;
#X connect 13 0 8 1;
#X connect 14 0 7 2;
