#N canvas 462 113 871 511 12;
#X obj 350 285 osc~;
#X obj 359 86 receive~ f0;
#X obj 455 86 receive~ \$0-ratio;
#X obj 603 86 receive~ \$0-index;
#X obj 350 236 +~;
#X obj 397 132 *~;
#X obj 465 189 *~;
#X obj 397 159 jl/split~;
#X obj 561 150 loadbang;
#X obj 561 174 f \$1;
#X obj 561 200 > 0;
#X obj 203 86 receive~ \$0-op-in;
#X obj 350 351 send~ \$0-op-out;
#X obj 217 42 inlet~;
#X obj 364 43 inlet~;
#X obj 479 44 inlet~;
#X obj 597 52 inlet~;
#X text 603 177 arg > 0 ? modulator : carrier;
#X obj 333 378 outlet~;
#X connect 0 0 12 0;
#X connect 0 0 18 0;
#X connect 1 0 5 0;
#X connect 2 0 5 1;
#X connect 3 0 6 1;
#X connect 4 0 0 0;
#X connect 5 0 7 0;
#X connect 6 0 4 1;
#X connect 7 0 4 1;
#X connect 7 1 6 0;
#X connect 8 0 9 0;
#X connect 9 0 10 0;
#X connect 10 0 7 1;
#X connect 11 0 4 0;
#X connect 13 0 4 0;
#X connect 14 0 5 0;
#X connect 15 0 5 1;
#X connect 16 0 6 1;
