#N canvas 531 349 505 412 12;
#X obj 93 255 *;
#X obj 155 132 t f f;
#X obj 202 252 *;
#X obj 155 157 expr 1 - $f1;
#X obj 93 132 t f b;
#X obj 135 298 +;
#X obj 177 224 f;
#X obj 135 324 t f f;
#X obj 93 58 inlet;
#X obj 155 58 inlet;
#X obj 135 354 outlet;
#X obj 207 58 f \$1;
#X obj 207 34 loadbang;
#X obj 155 107 clip 0 1;
#X text 204 321 y(n) = a * x(n) + (1 - a) * y(n - 1);
#X text 204 302 this is a onepole filter :;
#X connect 0 0 5 0;
#X connect 1 0 3 0;
#X connect 1 1 2 1;
#X connect 2 0 5 1;
#X connect 3 0 0 1;
#X connect 4 0 0 0;
#X connect 4 1 6 0;
#X connect 5 0 7 0;
#X connect 6 0 2 0;
#X connect 7 0 10 0;
#X connect 7 1 6 1;
#X connect 8 0 4 0;
#X connect 9 0 13 0;
#X connect 11 0 13 0;
#X connect 12 0 11 0;
#X connect 13 0 1 0;
