#N canvas 510 285 501 386 10;
#X obj 109 71 inlet;
#X obj 148 294 outlet;
#X msg 148 125 symbol \$1;
#X obj 256 71 inlet;
#X msg 256 125 symbol \$1;
#X obj 256 200 list fromsymbol;
#X obj 148 200 list fromsymbol;
#X obj 148 240 list prepend;
#X obj 109 98 route b;
#X obj 148 260 list tosymbol;
#X obj 329 105 loadbang;
#X obj 329 125 symbol \$1;
#X connect 0 0 8 0;
#X connect 2 0 6 0;
#X connect 3 0 4 0;
#X connect 4 0 5 0;
#X connect 5 0 7 1;
#X connect 6 0 7 0;
#X connect 7 0 9 0;
#X connect 8 0 7 0;
#X connect 8 1 2 0;
#X connect 9 0 1 0;
#X connect 10 0 11 0;
#X connect 11 0 5 0;
