#N canvas 707 35 492 300 10;
#X obj 141 47 r~ \$2-\$1-tap-out;
#X obj 257 49 r \$2-pan;
#X obj 291 71 r \$2-width;
#X obj 141 234 outlet~;
#X obj 192 234 outlet~;
#X obj 67 203 loadbang;
#X obj 67 233 outlet;
#X obj 141 199 jl/split~;
#N canvas 625 157 755 642 repanning 1;
#X obj 112 71 inlet;
#X obj 198 71 inlet;
#X obj 329 572 outlet~;
#X obj 319 71 inlet;
#X obj 507 137 % 2;
#X text 482 50 voice #;
#X obj 480 71 loadbang;
#X obj 480 93 f \$1;
#X obj 329 551 line~;
#X msg 329 530 \$1 5;
#X obj 112 93 clip 0 1;
#X obj 198 93 clip 0 1;
#X obj 319 93 clip 0 1;
#X text 117 50 pan;
#X text 198 50 width;
#X text 319 50 curve;
#X obj 435 71 inlet;
#X text 427 50 # voices;
#X obj 536 409 spigot;
#X obj 480 137 + 1;
#X obj 447 174 /;
#X obj 435 137 t b f;
#X obj 580 409 spigot;
#X obj 586 349 t f f;
#X obj 578 377 == 0;
#X obj 541 377 t f f;
#X obj 480 115 t f f;
#X text 626 409 even;
#X text 507 409 odd;
#X obj 365 282 *;
#X obj 371 232 jl/map 0 1 0 1;
#N canvas 150 175 394 320 bounds 0;
#X obj 98 73 moses 0.5;
#X obj 71 119 * 2;
#X obj 71 140 t f b;
#X msg 106 163 1;
#X obj 98 41 inlet;
#X obj 108 250 outlet;
#X obj 155 250 outlet;
#X msg 174 150 1;
#X obj 194 127 t b f;
#X obj 194 104 expr 1 - ($f1 - 0.5) * 2;
#X connect 0 0 1 0;
#X connect 0 1 9 0;
#X connect 1 0 2 0;
#X connect 2 0 5 0;
#X connect 2 1 3 0;
#X connect 3 0 6 0;
#X connect 4 0 0 0;
#X connect 7 0 5 0;
#X connect 8 0 7 0;
#X connect 8 1 6 0;
#X connect 9 0 8 0;
#X restore 319 115 pd bounds;
#X obj 371 255 t b f;
#X obj 426 538 s \$2-pan-pos;
#X obj 365 356 jl/map 0 1 0.5 0;
#X obj 289 303 t b f;
#X obj 427 456 t b f;
#X obj 427 480 f \$1;
#X obj 424 508 pack f f;
#X connect 0 0 10 0;
#X connect 1 0 11 0;
#X connect 3 0 12 0;
#X connect 4 0 34 4;
#X connect 6 0 7 0;
#X connect 7 0 26 0;
#X connect 8 0 2 0;
#X connect 9 0 8 0;
#X connect 10 0 35 0;
#X connect 11 0 29 0;
#X connect 12 0 31 0;
#X connect 16 0 21 0;
#X connect 19 0 20 0;
#X connect 20 0 30 0;
#X connect 21 0 20 0;
#X connect 21 1 20 1;
#X connect 23 0 24 0;
#X connect 23 1 22 1;
#X connect 24 0 18 1;
#X connect 25 0 18 0;
#X connect 25 1 22 0;
#X connect 26 0 19 0;
#X connect 26 1 4 0;
#X connect 29 0 34 0;
#X connect 30 0 32 0;
#X connect 31 0 30 3;
#X connect 31 1 30 4;
#X connect 32 0 29 0;
#X connect 32 1 29 1;
#X connect 34 0 9 0;
#X connect 34 0 36 0;
#X connect 35 0 34 0;
#X connect 35 1 34 3;
#X connect 36 0 37 0;
#X connect 36 1 38 1;
#X connect 37 0 38 0;
#X connect 38 0 33 0;
#X restore 227 166 pd repanning;
#X obj 327 92 r \$2-pan-curve;
#X obj 359 116 r \$2-voices;
#X connect 0 0 7 0;
#X connect 1 0 8 0;
#X connect 2 0 8 1;
#X connect 5 0 6 0;
#X connect 7 0 3 0;
#X connect 7 1 4 0;
#X connect 8 0 7 1;
#X connect 9 0 8 2;
#X connect 10 0 8 3;
