#N canvas 138 326 351 433 10;
#N canvas 206 83 568 570 repanning 0;
#X obj 355 358 % 2;
#X obj 437 69 clip 0 1;
#X obj 365 69 clip 0 1;
#X obj 294 69 clip 0 1;
#X obj 149 268 /;
#X obj 149 185 t f f;
#X obj 208 414 *;
#X obj 149 335 jl/map 0 1 0 1;
#N canvas 150 175 394 320 bounds 0;
#X obj 98 73 moses 0.5;
#X obj 71 119 * 2;
#X obj 71 140 t f b;
#X msg 106 163 1;
#X obj 98 41 inlet;
#X obj 108 250 outlet;
#X obj 155 250 outlet;
#X msg 174 150 1;
#X obj 194 127 t b f;
#X obj 194 104 expr 1 - ($f1 - 0.5) * 2;
#X connect 0 0 1 0;
#X connect 0 1 9 0;
#X connect 1 0 2 0;
#X connect 2 0 5 0;
#X connect 2 1 3 0;
#X connect 3 0 6 0;
#X connect 4 0 0 0;
#X connect 7 0 5 0;
#X connect 8 0 7 0;
#X connect 8 1 6 0;
#X connect 9 0 8 0;
#X restore 198 304 pd bounds;
#X obj 208 437 jl/map 0 1 0.5 0;
#X obj 102 149 t f f;
#X obj 102 481 pack f f;
#X obj 102 507 outlet;
#X obj 365 47 r \$0-width;
#X obj 220 91 t f f;
#N canvas 423 380 194 269 uzi 0;
#X obj 78 137 until;
#X obj 78 170 f;
#X obj 106 170 + 1;
#X msg 119 137 0;
#X obj 78 90 t f b;
#X obj 78 58 inlet;
#X obj 78 206 outlet;
#X connect 0 0 1 0;
#X connect 1 0 2 0;
#X connect 1 0 6 0;
#X connect 2 0 1 1;
#X connect 3 0 1 1;
#X connect 4 0 0 0;
#X connect 4 1 3 0;
#X connect 5 0 4 0;
#X restore 102 124 pd uzi;
#X obj 355 336 +;
#X text 381 337 add 1 to invert peaks;
#X obj 220 47 r \$0-points;
#X obj 294 47 r \$0-env;
#X obj 437 47 r \$0-center;
#X text 141 149 point index (starting from 0);
#X obj 149 207 + 0;
#X obj 180 233 - 1;
#X obj 220 69 max 2;
#X connect 0 0 9 4;
#X connect 1 0 9 3;
#X connect 2 0 6 1;
#X connect 3 0 8 0;
#X connect 4 0 7 0;
#X connect 5 0 22 0;
#X connect 5 1 16 0;
#X connect 6 0 9 0;
#X connect 7 0 6 0;
#X connect 8 0 7 3;
#X connect 8 1 7 4;
#X connect 9 0 11 1;
#X connect 10 0 11 0;
#X connect 10 1 5 0;
#X connect 11 0 12 0;
#X connect 13 0 2 0;
#X connect 14 0 15 0;
#X connect 14 1 23 0;
#X connect 15 0 10 0;
#X connect 16 0 0 0;
#X connect 18 0 24 0;
#X connect 19 0 3 0;
#X connect 20 0 1 0;
#X connect 22 0 4 0;
#X connect 23 0 4 1;
#X connect 24 0 14 0;
#X restore 94 258 pd repanning;
#X obj 206 175 s \$0-width;
#X obj 94 194 f;
#X obj 136 137 t b f;
#X obj 179 137 t b f;
#X obj 222 137 t b f;
#X obj 94 355 outlet;
#X obj 94 46 inlet;
#X obj 94 112 route points center width env;
#X obj 94 213 s \$0-points;
#X obj 163 194 s \$0-center;
#X obj 249 156 s \$0-env;
#X connect 0 0 6 0;
#X connect 2 0 9 0;
#X connect 3 0 2 0;
#X connect 3 1 10 0;
#X connect 4 0 2 0;
#X connect 4 1 1 0;
#X connect 5 0 2 0;
#X connect 5 1 11 0;
#X connect 7 0 8 0;
#X connect 8 0 2 0;
#X connect 8 1 3 0;
#X connect 8 2 4 0;
#X connect 8 3 5 0;
