#N canvas 84 408 730 425 10;
#X obj 106 285 unpack f f;
#X msg 106 262 \$2 \$1;
#X msg 106 107 points \$1;
#X floatatom 106 66 5 0 0 0 - - - 0;
#X msg 171 107 center \$1;
#X msg 236 107 width \$1;
#X msg 295 107 env \$1;
#X msg 230 231 resize \$1;
#X obj 106 86 t f f;
#X obj 230 252 array define -yrange 0 1 \$0-zig 15;
#X obj 106 308 array set \$0-zig;
#X obj 174 43 hsl 128 15 0 1 0 0 empty empty empty -2 -8 0 10 #fcfcfc
#000000 #000000 0 0;
#X obj 239 63 hsl 128 15 0 1 0 0 empty empty empty -2 -8 0 10 #fcfcfc
#000000 #000000 0 0;
#X obj 298 83 hsl 128 15 0 1 0 0 empty empty empty -2 -8 0 10 #fcfcfc
#000000 #000000 0 0;
#X msg 171 23 0.5;
#X obj 230 210 max 2;
#X obj 106 219 jl/zigzag;
#X connect 0 0 10 0;
#X connect 0 1 10 1;
#X connect 1 0 0 0;
#X connect 2 0 16 0;
#X connect 3 0 8 0;
#X connect 4 0 16 0;
#X connect 5 0 16 0;
#X connect 6 0 16 0;
#X connect 7 0 9 0;
#X connect 8 0 2 0;
#X connect 8 1 15 0;
#X connect 11 0 4 0;
#X connect 12 0 5 0;
#X connect 13 0 6 0;
#X connect 14 0 11 0;
#X connect 15 0 7 0;
#X connect 16 0 1 0;
