#N canvas 0 23 837 616 10;
#X obj 396 25 bng 15 250 50 0 empty empty empty 17 7 0 10 -262144 -1
-1;
#X obj 396 556 bng 15 250 50 0 empty empty empty 17 7 0 10 -262144
-1 -1;
#X obj 436 293 cnv 15 80 25 empty empty REFERENCE 5 12 0 12 -233017
-66577 0;
#X obj 118 283 *~;
#X obj 118 251 line~;
#X obj 68 203 noise~;
#X obj 68 251 *~ 0.2;
#X obj 87 309 *~;
#X obj 138 209 bng 15 250 50 0 empty empty empty 17 7 0 10 -262144
-1 -1;
#X obj 106 539 dac~ 1 2;
#X obj 120 513 *~;
#X obj 135 484 line~;
#X msg 135 465 \$1 10;
#X obj 138 447 hsl 128 15 0 1 0 0 empty empty empty -2 -8 0 10 -262144
-1 -1 0 0;
#X floatatom 213 387 5 0 3.98 0 - - -;
#X obj 182 303 random 1000;
#X floatatom 256 303 5 0 0 0 - - -;
#X floatatom 220 322 5 0 0 0 - - -;
#X obj 91 115 metro 120;
#X obj 91 81 tgl 30 0 empty empty empty 17 7 0 10 -262144 -1 -1 0 1
;
#X floatatom 177 147 5 0 0 0 - - -;
#X text 443 346 - attack time <float (ms)>;
#X text 443 361 - decay time <float (ms)>;
#X text 443 375 - release time <float (ms)>;
#X text 443 434 - envelope mode : trigged (default) / adsr <float (0
/ 1)>;
#X text 443 390 - rest value(release ramp end) <float>;
#X text 443 405 - first peak value (attack ramp end) <float>;
#X text 443 419 - sustain value (decay ramp end) <float>;
#X text 435 330 arguments :;
#X text 435 483 outlet : message to control [line] and [line~] objects
;
#X text 435 455 inlets (from left to right) : control value \, attack
\, decay \, release \, rest \, first peak \, sustain \, envelope mode
;
#X msg 65 378 oversample 3;
#X obj 65 358 loadbang;
#X obj 120 421 bob~ 100;
#X floatatom 245 147 5 0 0 0 - - -;
#X floatatom 320 147 5 0 0 0 - - -;
#X obj 182 322 + 100;
#X floatatom 211 147 5 0 0 0 - - -;
#X msg 213 368 3.8;
#X obj 213 349 loadbang;
#X obj 320 77 vsl 15 64 0 1 0 0 empty empty empty 0 -9 0 10 -262144
-1 -1 0 0;
#X obj 157 210 jl/envgen 2 4 1000 0 1 0;
#X obj 211 81 loadbang;
#X msg 177 114 2;
#X msg 211 114 4;
#X msg 245 114 1000;
#X obj 91 135 random 3;
#X obj 91 155 sel 0;
#X text 434 141 When [envgen] is in trigged mode (default) \, the envelope
is trigged on any control value (leftmost inlet) \, and the release
ramp starts immediately after the decay ramp ends;
#X text 433 90 The message always makes the line objects ramp linearly
from rest to first peak value in <attack> ms \, then from first peak
to sustain value in <decay> ms \, then from sustain to rest value in
<release> ms.;
#X text 435 184 When [envgen] is in adsr mode \, the envelope is started
on any strictly positive control value \, and stopped on any zero or
negative controle value (leftmost inlet). When the envelope is started
\, the attack ramp and the decay ramp are played sequentially and the
sustain value is held \, then the release ramp starts when the envelope
is stopped;
#X obj 203 250 line;
#X obj 206 269 hsl 128 15 0 1 0 0 empty empty empty -2 -8 0 10 -262144
-1 -1 0 0;
#N canvas 143 47 571 440 adsr-example 0;
#X obj 277 144 jl/envgen 5 100 1000 0 1 0.5 1;
#X obj 230 217 *~;
#X obj 176 144 phasor~ 440;
#X obj 176 166 *~ 0.2;
#X obj 277 178 line~;
#X obj 315 178 line;
#X obj 318 197 hsl 128 15 0 1 0 0 empty empty empty -2 -8 0 10 -262144
-1 -1 0 0;
#X obj 277 45 jl/keynote 97 1;
#X obj 216 352 dac~ 1 2;
#X obj 230 326 *~;
#X obj 245 299 line~;
#X msg 245 280 \$1 10;
#X obj 248 262 hsl 128 15 0 1 0 0 empty empty empty -2 -8 0 10 -262144
-1 -1 0 0;
#X msg 277 66 \$2;
#X text 63 44 play a A with your "a" key :;
#X floatatom 302 104 5 0 1e+09 2 attack - -;
#X floatatom 348 104 5 0 1e+09 2 decay - -;
#X floatatom 393 104 5 0 1e+09 2 release - -;
#X obj 277 104 tgl 15 0 empty empty empty 17 7 0 10 -262144 -1 -1 0
1;
#X connect 0 0 4 0;
#X connect 0 0 5 0;
#X connect 1 0 9 0;
#X connect 2 0 3 0;
#X connect 3 0 1 0;
#X connect 4 0 1 1;
#X connect 5 0 6 0;
#X connect 7 0 13 0;
#X connect 9 0 8 0;
#X connect 9 0 8 1;
#X connect 10 0 9 1;
#X connect 11 0 10 0;
#X connect 12 0 11 0;
#X connect 13 0 18 0;
#X connect 15 0 0 1;
#X connect 16 0 0 2;
#X connect 17 0 0 3;
#X connect 18 0 0 0;
#X restore 664 533 pd adsr-example;
#X text 42 42 envgen - joseph larralde \, 2019;
#X text 433 50 [envgen] is a message generator for [line] and [line~]
objects to control trigged envelopes or adsr behaviour with sustain
on note on and release on note off;
#X connect 0 0 1 0;
#X connect 3 0 7 1;
#X connect 4 0 3 0;
#X connect 4 0 3 1;
#X connect 5 0 6 0;
#X connect 6 0 7 0;
#X connect 7 0 33 0;
#X connect 8 0 15 0;
#X connect 8 0 41 0;
#X connect 10 0 9 0;
#X connect 10 0 9 1;
#X connect 11 0 10 1;
#X connect 12 0 11 0;
#X connect 13 0 12 0;
#X connect 14 0 33 2;
#X connect 15 0 36 0;
#X connect 16 0 15 1;
#X connect 17 0 36 1;
#X connect 18 0 46 0;
#X connect 19 0 18 0;
#X connect 20 0 41 1;
#X connect 31 0 33 0;
#X connect 32 0 31 0;
#X connect 33 0 10 0;
#X connect 34 0 41 3;
#X connect 35 0 41 6;
#X connect 36 0 33 1;
#X connect 37 0 41 2;
#X connect 38 0 14 0;
#X connect 39 0 38 0;
#X connect 40 0 35 0;
#X connect 41 0 4 0;
#X connect 41 0 51 0;
#X connect 42 0 43 0;
#X connect 42 0 44 0;
#X connect 42 0 45 0;
#X connect 43 0 20 0;
#X connect 44 0 37 0;
#X connect 45 0 34 0;
#X connect 46 0 47 0;
#X connect 47 1 8 0;
#X connect 51 0 52 0;
