#N canvas 0 23 1081 662 10;
#X obj 105 334 jl/gdelay~ 6 2000;
#X obj 82 264 *~;
#X obj 112 237 line~;
#X msg 112 217 \$1 3;
#X msg 340 97 drywet \$1;
#X obj 204 311 r to-gdelay;
#X obj 340 207 s to-gdelay;
#X obj 343 77 hsl 128 15 0 1 0 0 empty empty empty -2 -8 0 10 -262144
-1 -1 0 0;
#X obj 372 121 hsl 128 15 0 1 0 0 empty empty empty -2 -8 0 10 -262144
-1 -1 6350 0;
#X obj 372 161 hsl 128 15 0 1 0 0 empty empty empty -2 -8 0 10 -262144
-1 -1 12700 0;
#X msg 369 141 pan \$1;
#X msg 369 181 width \$1;
#X msg 506 121 0.5;
#X obj 115 198 hsl 128 15 0 1 0 0 empty empty empty -2 -8 0 10 -262144
-1 -1 0 0;
#X obj 92 553 *~;
#X obj 164 519 line~;
#X msg 164 499 \$1 3;
#X obj 167 478 hsl 128 15 0 1 0 0 empty empty empty -2 -8 0 10 -262144
-1 -1 0 0;
#X obj 119 553 *~;
#X obj 88 597 dac~ 1 2;
#X obj 340 390 s to-gdelay;
#X msg 340 292 size \$1;
#X floatatom 340 272 5 0 0 0 - - -;
#X floatatom 393 272 5 0 0 0 - - -;
#X msg 393 292 rsize \$1;
#X floatatom 402 334 5 0 0 0 - - -;
#X msg 402 354 mindelay \$1;
#X floatatom 480 334 5 0 0 0 - - -;
#X msg 480 354 maxdelay \$1;
#X obj 373 471 hsl 128 15 0 1 0 0 empty empty empty -2 -8 0 10 -262144
-1 -1 1270 0;
#X obj 373 512 hsl 128 15 0 1 0 0 empty empty empty -2 -8 0 10 -262144
-1 -1 2540 0;
#X obj 343 431 hsl 128 15 0 1 0 0 empty empty empty -2 -8 0 10 -262144
-1 -1 10795 0;
#X msg 340 451 feedback \$1;
#X msg 370 491 shorten \$1;
#X msg 370 532 drive \$1;
#X msg 506 160 1;
#X obj 550 89 loadbang;
#X msg 340 252 250;
#X msg 393 252 500;
#X msg 402 314 25;
#X msg 480 314 600, f 4;
#X obj 553 209 loadbang;
#X msg 507 471 0.1;
#X msg 507 512 0.2;
#X obj 555 402 loadbang;
#N canvas 0 23 450 390 tone-generator 0;
#X obj 241 224 line~;
#X obj 241 142 t b b;
#X msg 279 193 0 300;
#X msg 241 193 1 10;
#X obj 279 173 del 10;
#X obj 159 77 t b b;
#X obj 159 238 osc~;
#X obj 159 213 mtof;
#X obj 159 142 random 12;
#X obj 159 313 *~;
#X obj 159 162 * 2;
#X obj 241 246 *~;
#X obj 241 268 *~;
#X obj 159 334 outlet~;
#X obj 159 30 inlet;
#X obj 159 258 *~ 0.1;
#X obj 159 182 + 60;
#X connect 0 0 11 0;
#X connect 0 0 11 1;
#X connect 1 0 3 0;
#X connect 1 1 4 0;
#X connect 2 0 0 0;
#X connect 3 0 0 0;
#X connect 4 0 2 0;
#X connect 5 0 8 0;
#X connect 5 1 1 0;
#X connect 6 0 15 0;
#X connect 7 0 6 0;
#X connect 8 0 10 0;
#X connect 9 0 13 0;
#X connect 10 0 16 0;
#X connect 11 0 12 0;
#X connect 11 0 12 1;
#X connect 12 0 9 1;
#X connect 14 0 5 0;
#X connect 15 0 9 0;
#X connect 16 0 7 0;
#X restore 63 168 pd tone-generator;
#X obj 90 136 metro 120;
#X obj 90 116 tgl 15 0 empty empty empty 17 7 0 10 -262144 -1 -1 0
1;
#X obj 340 557 s to-gdelay;
#X msg 477 431 0.85;
#X obj 50 116 bng 36 250 50 0 empty empty empty 17 7 0 10 -262144 -1
-1;
#X text 44 43 gdelay~ - joseph larralde \, 2018;
#X obj 630 616 bng 15 250 50 0 empty empty empty 17 7 0 10 -262144
-1 -1;
#X obj 630 29 bng 15 250 50 0 empty empty empty 17 7 0 10 -262144 -1
-1;
#X obj 663 266 cnv 15 80 25 empty empty REFERENCE 5 12 0 12 -233017
-66577 0;
#X text 661 305 arguments (mandatory) : <#voices> <delay_line_duration
(ms)>;
#X text 661 326 input signal (left inlet) : audio input to be granularized
;
#X text 661 348 input messages (right inlet) :;
#X text 667 410 - size <min_grain_size (ms)>;
#X text 667 423 - rsize <max_randomly_added_grain_size (ms)>;
#X text 667 437 - mindelay <delay (ms)> : minimum delay to read grain
from;
#X text 667 451 - maxdelay <delay (ms)> : maximum delay to read grain
from;
#X text 661 510 output signal (stereo) : the granularized audio input
;
#N canvas 0 23 894 557 envelope-parameters 0;
#X obj 169 290 clip~ 0 1;
#X obj 169 350 cos~;
#X obj 169 370 *~ 0.5;
#X obj 169 390 +~ 0.5;
#X obj 169 330 wrap~;
#X obj 169 310 +~ 0.5;
#X obj 169 497 tabwrite~ gdelay-env-params;
#X obj 169 270 *~;
#X msg 361 303 \$1 3;
#X obj 361 323 line~;
#N canvas 0 23 450 300 pow 0;
#X obj 130 200 -~;
#X obj 91 95 sig~ 1;
#X obj 183 79 -~;
#X obj 183 36 sig~ 1;
#X obj 228 36 inlet~;
#X obj 272 36 inlet~;
#X obj 130 222 outlet~;
#X obj 183 100 pow~ 1;
#X connect 0 0 6 0;
#X connect 1 0 0 0;
#X connect 2 0 7 0;
#X connect 3 0 2 0;
#X connect 4 0 2 1;
#X connect 5 0 7 1;
#X connect 7 0 0 1;
#X restore 169 430 pd pow;
#X obj 184 250 samphold~;
#X obj 361 191 line~;
#X msg 361 171 \$1 10;
#X obj 392 127 t b f;
#X obj 361 151 jl/map 0 1 1 1 2;
#X obj 364 60 hsl 128 15 0 1 0 0 empty empty shorten -2 -8 0 10 -262144
-1 -1 0 0;
#X obj 364 264 hsl 128 15 0 1 0 0 empty empty drive -2 -8 0 10 -262144
-1 -1 0 0;
#X obj 361 283 jl/map 0 1 1 100 1.5;
#N canvas 0 22 450 278 (subpatch) 0;
#X array gdelay-env-params 128 float 3;
#A 0 0 0.000602365 0.00240791 0.0054121 0.00960785 0.014985 0.0215306
0.0292289 0.0380613 0.0480065 0.0590407 0.0711372 0.0842669 0.0983981
0.113497 0.129527 0.146449 0.164223 0.182806 0.202153 0.222218 0.242952
0.264305 0.286226 0.308662 0.331559 0.354861 0.378514 0.402459 0.426639
0.450996 0.47547 0.500004 0.524538 0.549013 0.57337 0.59755 0.621495
0.645147 0.668449 0.691346 0.713782 0.735703 0.757056 0.777789 0.797854
0.817201 0.835783 0.853557 0.870479 0.886509 0.901607 0.915738 0.928867
0.940963 0.951997 0.961942 0.970774 0.978472 0.985017 0.990394 0.994589
0.997593 0.999398 1 0.999398 0.997592 0.994588 0.990393 0.985016 0.97847
0.970772 0.96194 0.951995 0.940961 0.928864 0.915735 0.901604 0.886506
0.870476 0.853554 0.83578 0.817197 0.79785 0.777786 0.757052 0.735699
0.713778 0.691342 0.668445 0.645143 0.62149 0.597546 0.573365 0.549009
0.524534 0.5 0.475466 0.450991 0.426635 0.402455 0.37851 0.354857 0.331555
0.308658 0.286222 0.264301 0.242948 0.222214 0.20215 0.182803 0.16422
0.146446 0.129524 0.113494 0.0983955 0.0842644 0.0711349 0.0590386
0.0480047 0.0380596 0.0292274 0.0215293 0.0149839 0.00960696 0.00541145
0.00240743 0.000602126;
#X coords 0 1 128 -1 200 140 1 0 0;
#X restore 528 102 graph;
#X obj 262 134 tgl 15 0 empty empty empty 17 7 0 10 -262144 -1 -1 1
1;
#X floatatom 169 49 5 0 0 0 - - -;
#X obj 392 107 / 10;
#X floatatom 97 91 5 0 0 0 - - -;
#X msg 208 152 0;
#X obj 97 50 loadbang;
#X obj 262 114 loadbang;
#X obj 262 153 metro 33;
#X obj 262 173 t b b;
#X obj 97 110 swap 44100;
#X obj 113 149 /;
#X msg 97 70 128;
#X obj 169 173 phasor~;
#X text 411 414 move the shorten and drive sliders to see how these
parameters affect the envelope of a grain;
#X connect 0 0 5 0;
#X connect 1 0 2 0;
#X connect 2 0 3 0;
#X connect 3 0 10 0;
#X connect 4 0 1 0;
#X connect 5 0 4 0;
#X connect 7 0 0 0;
#X connect 8 0 9 0;
#X connect 9 0 10 1;
#X connect 10 0 6 0;
#X connect 11 0 7 1;
#X connect 12 0 11 0;
#X connect 13 0 12 0;
#X connect 14 0 15 0;
#X connect 14 1 15 4;
#X connect 15 0 13 0;
#X connect 16 0 15 0;
#X connect 17 0 18 0;
#X connect 18 0 8 0;
#X connect 20 0 27 0;
#X connect 21 0 22 0;
#X connect 21 0 32 0;
#X connect 22 0 14 0;
#X connect 23 0 29 0;
#X connect 24 0 32 1;
#X connect 25 0 31 0;
#X connect 26 0 20 0;
#X connect 26 0 17 0;
#X connect 26 0 16 0;
#X connect 27 0 28 0;
#X connect 28 0 24 0;
#X connect 28 1 6 0;
#X connect 29 0 30 0;
#X connect 29 1 30 1;
#X connect 30 0 21 0;
#X connect 31 0 23 0;
#X connect 32 0 7 0;
#X connect 32 0 11 1;
#X restore 662 185 pd envelope-parameters;
#X text 667 368 - drywet <value [0 \, 1]> : 0 is dry \, 1 is wet;
#X text 667 382 - pan <value [0 \, 1]> : 0 is left \, 1 is right;
#X text 667 396 - width <value [0 \, 1]> : 0 is merged \, 1 is widespread
;
#X text 667 464 - feedback <value [0 \, 1]> : feedback value for each
voice;
#X text 667 477 - shorten <value [0 \, 1]> : grain envelope shortening
factor;
#X text 667 490 - drive <value [0 \, 1]> : grain envelope overdrive
factor;
#X text 661 123 This is a synchronous granular system. Each voice is
played using two grains with a half phase overlap. The envelopes are
hann windows that can be modified via the shorten and drive parameters
:;
#X text 660 55 [gdelay~] is short for granular delay. It is based on
a polyphony of granular delay lines (the [gdelay-unit~] abstraction
used in a [clone] object) \, and on a polyphony of grain panners (the
[gpan-unit~] abstraction also used in a [clone] object).;
#X connect 0 0 14 0;
#X connect 0 1 18 0;
#X connect 1 0 0 0;
#X connect 2 0 1 1;
#X connect 3 0 2 0;
#X connect 4 0 6 0;
#X connect 5 0 0 1;
#X connect 7 0 4 0;
#X connect 8 0 10 0;
#X connect 9 0 11 0;
#X connect 10 0 6 0;
#X connect 11 0 6 0;
#X connect 12 0 8 0;
#X connect 13 0 3 0;
#X connect 14 0 19 0;
#X connect 15 0 14 1;
#X connect 15 0 18 1;
#X connect 16 0 15 0;
#X connect 17 0 16 0;
#X connect 18 0 19 1;
#X connect 21 0 20 0;
#X connect 22 0 21 0;
#X connect 23 0 24 0;
#X connect 24 0 20 0;
#X connect 25 0 26 0;
#X connect 26 0 20 0;
#X connect 27 0 28 0;
#X connect 28 0 20 0;
#X connect 29 0 33 0;
#X connect 30 0 34 0;
#X connect 31 0 32 0;
#X connect 32 0 48 0;
#X connect 33 0 48 0;
#X connect 34 0 48 0;
#X connect 35 0 9 0;
#X connect 36 0 12 0;
#X connect 36 0 35 0;
#X connect 37 0 22 0;
#X connect 38 0 23 0;
#X connect 39 0 25 0;
#X connect 40 0 27 0;
#X connect 41 0 37 0;
#X connect 41 0 38 0;
#X connect 41 0 39 0;
#X connect 41 0 40 0;
#X connect 42 0 29 0;
#X connect 43 0 30 0;
#X connect 44 0 42 0;
#X connect 44 0 43 0;
#X connect 44 0 49 0;
#X connect 45 0 1 0;
#X connect 46 0 45 0;
#X connect 47 0 46 0;
#X connect 49 0 31 0;
#X connect 50 0 45 0;
#X connect 53 0 52 0;
