#N canvas 0 23 1081 630 10;
#X obj 44 538 *~;
#X obj 125 507 line~;
#X msg 125 487 \$1 3;
#X obj 128 466 hsl 128 15 0 1 0 0 empty empty empty -2 -8 0 10 -262144
-1 -1 0 0;
#X obj 89 538 *~;
#X obj 44 563 dac~ 1 2;
#X msg 351 97 size \$1;
#X floatatom 351 79 5 0 0 0 - - -, f 5;
#X floatatom 351 125 5 0 0 0 - - -, f 5;
#X floatatom 351 171 5 0 0 0 - - -, f 5;
#X obj 364 353 hsl 128 15 0 1 0 0 empty empty empty -2 -8 0 10 -262144
-1 -1 1270 0;
#X obj 364 392 hsl 128 15 0 1 0 0 empty empty empty -2 -8 0 10 -262144
-1 -1 2540 0;
#X msg 361 371 shorten \$1;
#X msg 361 410 drive \$1;
#X msg 498 392 0.2;
#X obj 608 548 bng 15 250 50 0 empty empty empty 17 7 0 10 -262144
-1 -1;
#X obj 608 29 bng 15 250 50 0 empty empty empty 17 7 0 10 -262144 -1
-1;
#X obj 663 259 cnv 15 80 25 empty empty REFERENCE 5 12 0 12 -233017
-66577 0;
#X text 667 403 - size <min_grain_size (ms)>;
#X text 661 524 output signal (stereo) : the granularized audio input
;
#N canvas 0 23 894 557 envelope-parameters 0;
#X obj 169 290 clip~ 0 1;
#X obj 169 350 cos~;
#X obj 169 370 *~ 0.5;
#X obj 169 390 +~ 0.5;
#X obj 169 330 wrap~;
#X obj 169 310 +~ 0.5;
#X obj 169 270 *~;
#X msg 361 303 \$1 3;
#X obj 361 323 line~;
#N canvas 0 23 450 300 pow 0;
#X obj 130 200 -~;
#X obj 91 95 sig~ 1;
#X obj 183 79 -~;
#X obj 183 36 sig~ 1;
#X obj 228 36 inlet~;
#X obj 272 36 inlet~;
#X obj 130 222 outlet~;
#X obj 183 100 pow~ 1;
#X connect 0 0 6 0;
#X connect 1 0 0 0;
#X connect 2 0 7 0;
#X connect 3 0 2 0;
#X connect 4 0 2 1;
#X connect 5 0 7 1;
#X connect 7 0 0 1;
#X restore 169 430 pd pow;
#X obj 184 250 samphold~;
#X obj 361 191 line~;
#X msg 361 171 \$1 10;
#X obj 392 127 t b f;
#X obj 361 151 jl/map 0 1 1 1 2;
#X obj 364 60 hsl 128 15 0 1 0 0 empty empty shorten -2 -8 0 10 -262144
-1 -1 0 0;
#X obj 364 264 hsl 128 15 0 1 0 0 empty empty drive -2 -8 0 10 -262144
-1 -1 0 0;
#X obj 361 283 jl/map 0 1 1 100 1.5;
#N canvas 0 22 450 278 (subpatch) 0;
#X array gflow-env-params 128 float 3;
#A 0 0 0.000602365 0.00240791 0.0054121 0.00960785 0.014985 0.0215306
0.0292289 0.0380613 0.0480065 0.0590407 0.0711372 0.0842669 0.0983981
0.113497 0.129527 0.146449 0.164223 0.182806 0.202153 0.222218 0.242952
0.264305 0.286226 0.308662 0.331559 0.354861 0.378514 0.402459 0.426639
0.450996 0.47547 0.500004 0.524538 0.549013 0.57337 0.59755 0.621495
0.645147 0.668449 0.691346 0.713782 0.735703 0.757056 0.777789 0.797854
0.817201 0.835783 0.853557 0.870479 0.886509 0.901607 0.915738 0.928867
0.940963 0.951997 0.961942 0.970774 0.978472 0.985017 0.990394 0.994589
0.997593 0.999398 1 0.999398 0.997592 0.994588 0.990393 0.985016 0.97847
0.970772 0.96194 0.951995 0.940961 0.928864 0.915735 0.901604 0.886506
0.870476 0.853554 0.83578 0.817197 0.79785 0.777786 0.757052 0.735699
0.713778 0.691342 0.668445 0.645143 0.62149 0.597546 0.573365 0.549009
0.524534 0.5 0.475466 0.450991 0.426635 0.402455 0.37851 0.354857 0.331555
0.308658 0.286222 0.264301 0.242948 0.222214 0.20215 0.182803 0.16422
0.146446 0.129524 0.113494 0.0983955 0.0842644 0.0711349 0.0590386
0.0480047 0.0380596 0.0292274 0.0215293 0.0149839 0.00960696 0.00541145
0.00240743 0.000602126;
#X coords 0 1 128 -1 200 140 1 0 0;
#X restore 528 102 graph;
#X obj 262 134 tgl 15 0 empty empty empty 17 7 0 10 -262144 -1 -1 1
1;
#X floatatom 169 49 5 0 0 0 - - -, f 5;
#X obj 392 107 / 10;
#X floatatom 97 91 5 0 0 0 - - -, f 5;
#X msg 208 152 0;
#X obj 97 50 loadbang;
#X obj 262 114 loadbang;
#X obj 262 153 metro 33;
#X obj 262 173 t b b;
#X obj 97 110 swap 44100;
#X obj 113 149 /;
#X msg 97 70 128;
#X obj 169 173 phasor~;
#X text 411 414 move the shorten and drive sliders to see how these
parameters affect the envelope of a grain;
#X obj 169 497 tabwrite~ gflow-env-params;
#X connect 0 0 5 0;
#X connect 1 0 2 0;
#X connect 2 0 3 0;
#X connect 3 0 9 0;
#X connect 4 0 1 0;
#X connect 5 0 4 0;
#X connect 6 0 0 0;
#X connect 7 0 8 0;
#X connect 8 0 9 1;
#X connect 9 0 33 0;
#X connect 10 0 6 1;
#X connect 11 0 10 0;
#X connect 12 0 11 0;
#X connect 13 0 14 0;
#X connect 13 1 14 4;
#X connect 14 0 12 0;
#X connect 15 0 14 0;
#X connect 16 0 17 0;
#X connect 17 0 7 0;
#X connect 19 0 26 0;
#X connect 20 0 21 0;
#X connect 20 0 31 0;
#X connect 21 0 13 0;
#X connect 22 0 28 0;
#X connect 23 0 31 1;
#X connect 24 0 30 0;
#X connect 25 0 19 0;
#X connect 26 0 27 0;
#X connect 27 0 23 0;
#X connect 27 1 33 0;
#X connect 28 0 29 0;
#X connect 28 1 29 1;
#X connect 29 0 20 0;
#X connect 30 0 22 0;
#X connect 31 0 6 0;
#X connect 31 0 10 1;
#X restore 662 175 pd envelope-parameters;
#X text 660 123 This is a synchronous granular system. The envelopes
are hann windows that can be modified via the shorten and drive parameters
:;
#X obj 44 371 r to-gflow;
#X text 40 40 gflow~ - joseph larralde \, 2018;
#X msg 351 143 pitch \$1;
#X msg 351 189 speed \$1;
#X obj 364 265 hsl 128 15 0 1 0 0 empty empty empty -2 -8 0 10 -262144
-1 -1 0 0;
#X obj 364 304 hsl 128 15 0 1 0 0 empty empty empty -2 -8 0 10 -262144
-1 -1 254 0;
#X msg 361 283 beg \$1;
#X msg 361 322 len \$1;
#X text 659 55 gflow~ is short for granular flow. It is based on a
polyphony of granular synthesis units (the gflow-unit~.pd abstraction
used in a clone object) \, and on a polyphony of grain panners (the
gpan-unit~.pd abstraction also used in a clone object).;
#X obj 319 218 s to-gflow;
#X obj 311 526 s to-gflow;
#X obj 43 207 soundfiler;
#X obj 43 166 openpanel;
#X obj 43 144 bng 15 250 50 0 empty empty load_sample_in_table_gflow-table
0 -8 0 10 -262144 -1 -1;
#X obj 42 90 cnv 15 130 25 empty empty 1_-_load_a_sample 5 12 0 12
-233017 -66577 0;
#X msg 43 186 read -resize \$1 gflow-table;
#X obj 129 220 table gflow-table;
#X obj 44 396 jl/gflow~ 4 gflow-table;
#X obj 43 326 cnv 15 130 25 empty empty 2_-_play_da_granular 5 12 0
12 -233017 -66577 0;
#X msg 386 124 0;
#X msg 386 78 120;
#X msg 386 170 5;
#X msg 43 247 set gflow-table;
#X obj 43 228 bng 15 250 50 0 empty empty empty 17 7 0 10 -262144 -1
-1;
#X obj 43 267 s to-gflow;
#X msg 498 304 0.02;
#X msg 498 353 0.1;
#X msg 498 265 0;
#X obj 364 440 hsl 128 15 0 1 0 0 empty empty empty -2 -8 0 10 -262144
-1 -1 6350 0;
#X obj 364 480 hsl 128 15 0 1 0 0 empty empty empty -2 -8 0 10 -262144
-1 -1 12700 0;
#X msg 361 458 pan \$1;
#X msg 361 498 width \$1;
#X msg 498 440 0.5;
#X msg 498 479 1;
#X obj 544 363 t b;
#X obj 425 139 t b;
#X obj 531 79 bng 15 250 50 0 empty empty empty 17 7 0 10 -262144 -1
-1;
#X text 667 416 - pitch <detune (semitones)>;
#X text 667 457 - shorten <value [0 \, 1]> : grain envelope shortening
factor;
#X text 667 470 - drive <value [0 \, 1]> : grain envelope overdrive
factor;
#X text 667 484 - pan <value [0 \, 1]> : 0 is left \, 1 is right;
#X text 667 498 - width <value [0 \, 1]> : 0 is merged \, 1 is widespread
;
#X text 799 348 playing grain from;
#X obj 531 59 loadbang;
#X obj 531 98 t b b;
#X text 661 315 input messages :;
#X text 661 202 All voices have their phase offset by a value of <voice_index>
* (1 / <nb_voices>) \, which means the higher the number of voices
\, the louder the audio output.;
#X text 661 292 arguments : <nb_voices> <default_table_name (optional)>
;
#X text 799 376 added to position to start playing grain;
#X text 799 389 from;
#X text 667 335 - beg <value [0 \, 1]> : minimum normalized position
to start;
#X text 667 362 - len <value [0 \, 1]> : maximum normalized offset
randomly;
#X text 667 430 - speed <interval (ms)> : interval between ramps to
new;
#X text 823 443 values between beg and (beg + len);
#X obj 128 435 hsl 128 15 0 1 0 0 empty empty real-time_grain_position
-2 -8 0 10 -262144 -1 -1 213 0;
#X text 188 265 scroll through the sample >;
#X connect 0 0 5 0;
#X connect 1 0 0 1;
#X connect 1 0 4 1;
#X connect 2 0 1 0;
#X connect 3 0 2 0;
#X connect 4 0 5 1;
#X connect 6 0 31 0;
#X connect 7 0 6 0;
#X connect 8 0 24 0;
#X connect 9 0 25 0;
#X connect 10 0 12 0;
#X connect 11 0 13 0;
#X connect 12 0 32 0;
#X connect 13 0 32 0;
#X connect 14 0 11 0;
#X connect 16 0 15 0;
#X connect 22 0 39 0;
#X connect 24 0 31 0;
#X connect 25 0 31 0;
#X connect 26 0 28 0;
#X connect 27 0 29 0;
#X connect 28 0 32 0;
#X connect 29 0 32 0;
#X connect 33 0 45 0;
#X connect 34 0 37 0;
#X connect 35 0 34 0;
#X connect 37 0 33 0;
#X connect 39 0 0 0;
#X connect 39 1 4 0;
#X connect 39 2 76 0;
#X connect 41 0 8 0;
#X connect 42 0 7 0;
#X connect 43 0 9 0;
#X connect 44 0 46 0;
#X connect 45 0 44 0;
#X connect 47 0 27 0;
#X connect 48 0 10 0;
#X connect 49 0 26 0;
#X connect 50 0 52 0;
#X connect 51 0 53 0;
#X connect 52 0 32 0;
#X connect 53 0 32 0;
#X connect 54 0 50 0;
#X connect 55 0 51 0;
#X connect 56 0 49 0;
#X connect 56 0 47 0;
#X connect 56 0 48 0;
#X connect 56 0 14 0;
#X connect 56 0 54 0;
#X connect 56 0 55 0;
#X connect 57 0 42 0;
#X connect 57 0 41 0;
#X connect 57 0 43 0;
#X connect 58 0 66 0;
#X connect 65 0 58 0;
#X connect 66 0 57 0;
#X connect 66 1 56 0;
