#N canvas 0 23 486 688 10;
#X floatatom 97 174 5 0 0 0 - - -;
#X obj 125 216 osc~;
#X obj 121 457 *~;
#X obj 172 457 *~;
#X obj 228 422 line~;
#X msg 228 402 \$1 10;
#X obj 231 383 hsl 128 15 0 1 0 0 empty empty empty -2 -8 0 10 -262144
-1 -1 0 0;
#X obj 121 486 dac~ 1 2;
#X obj 164 285 line~;
#X obj 121 333 *~;
#X msg 164 265 \$1 10;
#X obj 167 246 hsl 128 15 0 1 0 0 empty empty empty -2 -8 0 10 -262144
-1 -1 0 0;
#X obj 302 285 line~;
#X obj 172 333 *~;
#X msg 302 265 \$1 10;
#X obj 305 246 hsl 128 15 0 1 0 0 empty empty empty -2 -8 0 10 -262144
-1 -1 0 0;
#X obj 259 136 snapshot~;
#X obj 279 109 metro 10;
#X obj 279 90 tgl 15 0 empty empty empty 17 7 0 10 -262144 -1 -1 0
1;
#X obj 259 156 + 1;
#X obj 302 206 swap 1;
#X obj 302 226 -;
#X obj 259 176 * 0.5;
#X obj 214 109 osc~ 0.23;
#X obj 121 383 *~ 0.2;
#X obj 172 383 *~ 0.2;
#X text 62 333 mid gain;
#X text 197 333 side gain;
#X obj 125 196 + 3;
#X obj 74 246 jl/lr2ms~;
#X obj 121 363 jl/ms2lr~;
#X obj 74 217 osc~;
#X obj 97 134 loadbang;
#X msg 97 154 90;
#X text 47 43 lr2ms~ - joseph larralde \, 2018;
#X text 58 576 This help patch decomposes a binaural beats signal \,
allows to mix its mid and side components \, and encodes them back
to stereo. Its goal is to make modifications of the mid-side representation
of a signal as obvious as possible. When both gains equal 1 \, the
output is exactly the same as the input.;
#X text 58 542 [lr2ms~] and [ms2lr~] respectively encode and decode
a stereo signal to / from its mid-side representation.;
#X connect 0 0 28 0;
#X connect 0 0 31 0;
#X connect 1 0 29 1;
#X connect 2 0 7 0;
#X connect 3 0 7 1;
#X connect 4 0 3 1;
#X connect 4 0 2 1;
#X connect 5 0 4 0;
#X connect 6 0 5 0;
#X connect 8 0 9 1;
#X connect 9 0 30 0;
#X connect 10 0 8 0;
#X connect 11 0 10 0;
#X connect 12 0 13 1;
#X connect 13 0 30 1;
#X connect 14 0 12 0;
#X connect 15 0 14 0;
#X connect 16 0 19 0;
#X connect 17 0 16 0;
#X connect 18 0 17 0;
#X connect 19 0 22 0;
#X connect 20 0 21 0;
#X connect 20 1 21 1;
#X connect 21 0 15 0;
#X connect 22 0 20 0;
#X connect 22 0 11 0;
#X connect 23 0 16 0;
#X connect 24 0 2 0;
#X connect 25 0 3 0;
#X connect 28 0 1 0;
#X connect 29 0 9 0;
#X connect 29 1 13 0;
#X connect 30 0 24 0;
#X connect 30 1 25 0;
#X connect 31 0 29 0;
#X connect 32 0 33 0;
#X connect 33 0 0 0;
