#N canvas 177 230 640 401 10;
#X obj 198 92 osc~ 440;
#X obj 142 92 osc~ 220;
#X obj 254 92 osc~ 660;
#X obj 310 92 osc~ 1100;
#X obj 159 337 dac~ 1 2;
#X obj 181 309 *~;
#X obj 307 262 line~;
#X msg 307 241 \$1 5;
#X obj 310 221 hsl 128 15 0 1 0 0 empty empty empty -2 -8 0 10 #fcfcfc
#000000 #000000 0 0;
#X obj 111 230 *~ 0.1;
#X obj 154 230 *~ 0.1;
#X obj 199 230 *~ 0.1;
#X obj 244 230 *~ 0.1;
#X obj 131 158 jl/router~ 4 4;
#X obj 477 145 until;
#X msg 481 60 4;
#X obj 482 181 f;
#X obj 509 182 + 1;
#X msg 530 132 0;
#X obj 482 101 t f b;
#X obj 494 209 pack f f;
#X obj 535 26 t b f;
#X obj 513 17 tgl 15 0 empty empty empty 17 7 0 10 #fcfcfc #000000
#000000 0 1;
#X msg 483 232 \$1 2 \$2;
#X msg 53 59 fadi 100 \, fado 10;
#X msg 85 79 fade 20;
#X msg 61 38 fadi 10 \, fado 100;
#X connect 0 0 13 2;
#X connect 1 0 13 1;
#X connect 2 0 13 3;
#X connect 3 0 13 4;
#X connect 5 0 4 0;
#X connect 5 0 4 1;
#X connect 6 0 5 1;
#X connect 7 0 6 0;
#X connect 8 0 7 0;
#X connect 9 0 5 0;
#X connect 10 0 5 0;
#X connect 11 0 5 0;
#X connect 12 0 5 0;
#X connect 13 0 9 0;
#X connect 13 1 10 0;
#X connect 13 2 11 0;
#X connect 13 3 12 0;
#X connect 14 0 16 0;
#X connect 15 0 19 0;
#X connect 16 0 17 0;
#X connect 16 0 20 0;
#X connect 17 0 16 1;
#X connect 18 0 16 1;
#X connect 19 0 14 0;
#X connect 19 1 18 0;
#X connect 20 0 23 0;
#X connect 21 0 15 0;
#X connect 21 1 20 1;
#X connect 22 0 21 0;
#X connect 23 0 13 0;
#X connect 24 0 13 0;
#X connect 25 0 13 0;
#X connect 26 0 13 0;
