#N canvas 0 23 1059 568 10;
#X msg 345 190 attack \$1;
#X floatatom 345 170 5 0 0 0 - - -;
#X floatatom 411 170 5 0 0 0 - - -;
#X msg 411 190 release \$1;
#X floatatom 197 170 5 0 0 0 - - -;
#X floatatom 282 170 5 0 0 0 - - -;
#X msg 197 190 threshold \$1;
#X msg 282 190 ratio \$1;
#X floatatom 414 243 5 0 0 0 - - -;
#X msg 414 263 knee \$1;
#X floatatom 346 243 5 0 0 0 - - -;
#X msg 346 263 makeup \$1;
#X obj 282 105 loadbang;
#X msg 282 140 2;
#X obj 197 336 jl/sidechain~;
#X obj 78 102 tgl 32 0 empty empty empty 17 7 0 10 -262144 -1 -1 0
1;
#X obj 98 394 *~;
#X obj 78 470 *~;
#X obj 60 495 dac~ 1 2;
#X obj 135 394 hsl 128 15 0 1 0 0 empty empty empty -2 -8 0 10 -262144
-1 -1 0 0;
#X msg 132 412 \$1 10;
#X obj 132 431 line~;
#X msg 345 140 1;
#X obj 298 431 hsl 128 15 0 1 0 0 empty empty empty -2 -8 0 10 -262144
-1 -1 12700 0;
#X floatatom 295 413 5 0 0 0 - - -;
#X obj 98 337 osc~ 120;
#X msg 197 140 -32;
#X msg 411 140 200;
#X obj 532 26 bng 15 250 50 0 empty empty empty 17 7 0 10 -262144 -1
-1;
#X obj 532 521 bng 15 250 50 0 empty empty empty 17 7 0 10 -262144
-1 -1;
#X text 54 44 sidechain~ - joseph larralde \, 2018;
#X obj 708 200 jl/sidechain~;
#X obj 693 223 *~;
#X obj 693 172 *~ 1;
#N canvas 0 23 450 300 beatbox 0;
#N canvas 305 172 450 300 kick 0;
#X obj 185 220 *~;
#X obj 217 182 line~;
#X obj 271 115 delay 10;
#X obj 327 115 delay 20;
#X obj 217 16 inlet;
#X obj 217 37 t b b;
#X msg 327 84 stop;
#X obj 185 255 outlet~;
#X obj 112 116 *~ 0.75;
#X msg 217 115 1 10;
#X msg 271 139 0.25 10;
#X obj 112 92 osc~ 90;
#X msg 327 138 0 400;
#X connect 0 0 7 0;
#X connect 1 0 0 1;
#X connect 2 0 10 0;
#X connect 3 0 12 0;
#X connect 4 0 5 0;
#X connect 5 0 3 0;
#X connect 5 0 2 0;
#X connect 5 0 9 0;
#X connect 5 1 6 0;
#X connect 6 0 3 0;
#X connect 6 0 2 0;
#X connect 8 0 0 0;
#X connect 9 0 1 0;
#X connect 10 0 1 0;
#X connect 11 0 8 0;
#X connect 12 0 1 0;
#X restore 121 170 pd kick;
#N canvas 305 172 450 300 snare 0;
#X obj 185 220 *~;
#X obj 217 182 line~;
#X obj 217 16 inlet;
#X obj 217 37 t b b;
#X msg 310 84 stop;
#X obj 185 255 outlet~;
#X obj 83 81 noise~;
#X msg 254 139 0.2 10;
#X msg 311 138 0 150;
#X obj 83 104 bp~ 1200 3;
#X msg 217 115 1 5;
#X obj 254 115 delay 5;
#X obj 310 115 delay 15;
#X obj 83 126 *~ 0.75;
#X connect 0 0 5 0;
#X connect 1 0 0 1;
#X connect 2 0 3 0;
#X connect 3 0 10 0;
#X connect 3 0 11 0;
#X connect 3 0 12 0;
#X connect 3 1 4 0;
#X connect 4 0 11 0;
#X connect 4 0 12 0;
#X connect 6 0 9 0;
#X connect 7 0 1 0;
#X connect 8 0 1 0;
#X connect 9 0 13 0;
#X connect 10 0 1 0;
#X connect 11 0 7 0;
#X connect 12 0 8 0;
#X connect 13 0 0 0;
#X restore 171 170 pd snare;
#X obj 121 118 sel 0 1;
#X obj 121 99 tgl 15 0 empty empty empty 17 7 0 10 -262144 -1 -1 0
1;
#X obj 121 79 metro 500;
#X obj 121 237 outlet~;
#X obj 121 55 inlet;
#X connect 0 0 5 0;
#X connect 1 0 5 0;
#X connect 2 0 0 0;
#X connect 2 1 1 0;
#X connect 3 0 2 0;
#X connect 4 0 3 0;
#X connect 6 0 4 0;
#X restore 78 140 pd beatbox;
#X text 90 317 a "bassline";
#X obj 578 269 cnv 15 80 25 empty empty REFERENCE 5 12 0 12 -233017
-66577 0;
#X text 576 310 input signal :;
#X text 767 350 the threshold above which to compress;
#X text 582 364 - ratio <ratio [1 \, +infinity[> : the compression
ratio;
#X text 582 378 - attack <duration (ms)> : the attack time;
#X text 582 392 - release <duration (ms)> : the release time;
#X text 667 310 signal used to compute the output amplitude factor
;
#X text 582 350 - threshold <threshold (dB)> :;
#X text 582 420 - knee <knee width (dB)> : compression smoothing;
#X text 582 406 - makeup <gain (dB)> : the output gain offset;
#X text 576 441 output signal :;
#X text 677 441 the amplitude factor to apply to the source to compress
;
#N canvas 309 47 450 300 about 0;
#X text 49 29 The algorithm used in [sidechain~] is based on the article
: "Digital Dynamic Range Compressor Design - A Tutorial and Analysis"
\, by DIMITRIOS GIANNOULIS \, MICHAEL MASSBERG \, AND JOSHUA D. REISS
\, Queen Mary University of London;
#X text 51 83 In this article \, several sidechain designs are suggested
\, among which the "log domain decoupled smoothed peak detector" has
been retained for the implementation of the [sidechain~] external.
;
#X restore 578 491 pd about;
#N canvas 0 23 450 300 snapshot 0;
#X obj 111 136 snapshot~;
#X obj 181 100 metro 10;
#X obj 181 81 tgl 15 0 empty empty empty 17 7 0 10 -262144 -1 -1 1
1;
#X obj 181 43 loadbang;
#X msg 181 62 1;
#X obj 111 70 inlet~;
#X obj 111 164 outlet;
#X connect 0 0 6 0;
#X connect 1 0 0 0;
#X connect 2 0 1 0;
#X connect 3 0 4 0;
#X connect 4 0 2 0;
#X connect 5 0 0 0;
#X restore 295 394 pd snapshot;
#X text 576 330 input messages (the same as in any compression plugin)
:;
#X text 576 64 [sidechain~] is a side chain component that helps for
the design of a variety of dynamic audio compressors. In the patch
on the left \, it implements a ducking effect \, making a (very rough)
bassline "pump" according to the beatbox's amplitude.;
#X text 576 129 To implement a classical feedforward compressor \,
simply connect the [sidechain~] object like this :;
#X connect 0 0 14 0;
#X connect 1 0 0 0;
#X connect 2 0 3 0;
#X connect 3 0 14 0;
#X connect 4 0 6 0;
#X connect 5 0 7 0;
#X connect 6 0 14 0;
#X connect 7 0 14 0;
#X connect 8 0 9 0;
#X connect 9 0 14 0;
#X connect 10 0 11 0;
#X connect 11 0 14 0;
#X connect 12 0 26 0;
#X connect 12 0 13 0;
#X connect 12 0 22 0;
#X connect 12 0 27 0;
#X connect 13 0 5 0;
#X connect 14 0 16 1;
#X connect 14 0 49 0;
#X connect 15 0 34 0;
#X connect 16 0 17 0;
#X connect 17 0 18 0;
#X connect 17 0 18 1;
#X connect 19 0 20 0;
#X connect 20 0 21 0;
#X connect 21 0 17 1;
#X connect 22 0 1 0;
#X connect 24 0 23 0;
#X connect 25 0 16 0;
#X connect 26 0 4 0;
#X connect 27 0 2 0;
#X connect 28 0 29 0;
#X connect 31 0 32 1;
#X connect 33 0 31 0;
#X connect 33 0 32 0;
#X connect 34 0 14 0;
#X connect 34 0 17 0;
#X connect 49 0 24 0;
