#N canvas 72 109 555 300 10;
#X obj 91 53 adc~ 1;
#X obj 91 208 *~;
#X obj 70 243 dac~ 1 2;
#X obj 106 188 line~;
#X msg 106 168 \$1 10;
#X obj 315 55 vradio 15 1 0 5 empty empty window\ size 0 -8 0 10 #fcfcfc
#000000 #000000 0;
#X text 332 55 512;
#X text 332 70 1024;
#X text 332 85 2048;
#X text 332 100 4096;
#X text 332 114 8192;
#X msg 315 156 windowsize \$1;
#X obj 237 65 tgl 15 0 empty empty empty 17 7 0 10 #fcfcfc #000000
#000000 0 1;
#X msg 237 84 lock \$1;
#N canvas 159 196 450 300 make-power-of-2 0;
#X obj 92 156 pow;
#X msg 80 128 2;
#X obj 80 96 t b f;
#X obj 80 75 + 9;
#X obj 80 42 inlet;
#X obj 92 200 outlet;
#X connect 0 0 5 0;
#X connect 1 0 0 0;
#X connect 2 0 1 0;
#X connect 2 1 0 1;
#X connect 3 0 2 0;
#X connect 4 0 3 0;
#X restore 315 135 pd make-power-of-2;
#X obj 91 116 jl/spitchshift~;
#X floatatom 178 20 5 0 0 0 - - - 0;
#X obj 109 149 hsl 128 15 0 1 0 0 empty empty empty -2 -8 0 10 #fcfcfc
#000000 #000000 0 0;
#X msg 178 39 transpose \$1;
#X connect 0 0 15 0;
#X connect 1 0 2 0;
#X connect 1 0 2 1;
#X connect 3 0 1 1;
#X connect 4 0 3 0;
#X connect 5 0 14 0;
#X connect 11 0 15 1;
#X connect 12 0 13 0;
#X connect 13 0 15 1;
#X connect 14 0 11 0;
#X connect 15 0 1 0;
#X connect 16 0 18 0;
#X connect 17 0 4 0;
#X connect 18 0 15 1;
