#N canvas 0 23 1106 645 10;
#X obj 158 402 jl/magnetize;
#X obj 158 157 jl/tonnetz;
#X obj 436 116 list prepend mode;
#X obj 436 135 list trim;
#X msg 401 68 duad;
#X msg 436 68 triad;
#X msg 477 68 quad;
#X msg 512 68 penta;
#X msg 406 186 P;
#X msg 436 186 R;
#X msg 465 186 L;
#X obj 436 232 list trim;
#X obj 436 213 list prepend transition;
#X obj 158 476 *~;
#X obj 268 421 line~;
#X msg 268 401 \$1 3;
#X obj 271 382 hsl 128 15 0 1 0 0 empty empty empty -2 -8 0 10 -262144
-1 -1 0 0;
#N canvas 0 23 450 390 tone-generator 0;
#X obj 241 224 line~;
#X obj 241 142 t b b;
#X msg 241 193 1 10;
#X obj 279 173 del 10;
#X obj 159 238 osc~;
#X obj 159 213 mtof;
#X obj 159 313 *~;
#X obj 241 246 *~;
#X obj 241 268 *~;
#X obj 159 334 outlet~;
#X obj 159 30 inlet;
#X obj 159 258 *~ 0.1;
#X obj 159 77 t f b;
#X msg 279 193 0 300;
#X connect 0 0 7 0;
#X connect 0 0 7 1;
#X connect 1 0 2 0;
#X connect 1 1 3 0;
#X connect 2 0 0 0;
#X connect 3 0 13 0;
#X connect 4 0 11 0;
#X connect 5 0 4 0;
#X connect 6 0 9 0;
#X connect 7 0 8 0;
#X connect 7 0 8 1;
#X connect 8 0 6 1;
#X connect 10 0 12 0;
#X connect 11 0 6 0;
#X connect 12 0 5 0;
#X connect 12 1 1 0;
#X connect 13 0 0 0;
#X restore 158 421 pd tone-generator;
#X obj 137 509 dac~ 1 2;
#X obj 61 280 + 48;
#X obj 85 204 metro 120;
#X obj 85 184 tgl 15 0 empty empty empty 17 7 0 10 -262144 -1 -1 0
1;
#X obj 45 184 bng 36 250 50 0 empty empty empty 17 7 0 10 -262144 -1
-1;
#X msg 553 68 scale;
#X msg 175 369 magnetism \$1;
#X obj 178 351 hsl 128 15 0 1 0 0 empty empty empty -2 -8 0 10 -262144
-1 -1 12700 0;
#X obj 61 240 random 48;
#X obj 175 313 loadbang;
#X msg 175 332 1;
#X obj 158 113 loadbang;
#X obj 436 328 list trim;
#X obj 436 309 list prepend direction;
#X msg 401 282 left;
#X msg 436 282 right;
#X msg 477 282 backwards;
#X obj 237 218 list prepend set;
#X obj 237 238 list trim;
#X msg 237 258 4 3 5;
#X floatatom 185 259 5 0 0 0 - - -;
#X obj 185 198 route root pattern;
#X obj 158 176 t a a;
#X obj 168 135 r to-tonnetz;
#X obj 436 154 s to-tonnetz;
#X obj 436 251 s to-tonnetz;
#X obj 436 347 s to-tonnetz;
#X msg 437 400 root \$1;
#X floatatom 437 380 5 0 0 0 - - -;
#X msg 491 400 major \$1;
#X obj 491 380 tgl 15 0 empty empty empty 17 7 0 10 -262144 -1 -1 0
1;
#X floatatom 491 426 5 0 0 0 - - -;
#X msg 491 446 interval \$1;
#X floatatom 491 467 5 0 0 0 - - -;
#X msg 491 487 transpose \$1;
#X obj 437 517 s to-tonnetz;
#X text 35 30 tonnetz - joseph larralde \, 2018;
#X msg 594 68 interval;
#X obj 672 596 bng 15 250 50 0 empty empty empty 17 7 0 10 -262144
-1 -1;
#X obj 672 28 bng 15 250 50 0 empty empty empty 17 7 0 10 -262144 -1
-1;
#X obj 705 363 cnv 15 80 25 empty empty REFERENCE 5 12 0 12 -233017
-66577 0;
#X text 703 399 messages :;
#X text 701 116 The state can evolve when it receives P \, R \, and
L transition messages (respectively for Parallel \, Relative and Leading
tone exchange) \, or left \, right and backwards direction messages
(which will be translated to P \, R and L transition messages internally
according to previously received messages \, but provide a more "geometrical"
approach to tonnetz navigation);
#X text 701 49 [tonnetz] is designed to control [magnetize] \, providing
it with pattern and root messages corresponding to its current state.
This state is a basic harmonic representation \, modeled by a root
note and a flag telling if the current context is major or minor.;
#X text 709 416 - mode <"duad"/"triad"/"quad"/"penta"/"scale"/"interval">
;
#X text 709 430 - transition <"P"/"R"/"L">;
#X text 709 444 - direction <"left"/"right"/"backwards">;
#X text 709 518 - transpose <integer_semitones_interval_to_add_to_root>
;
#X text 710 559 - root : the actual root note;
#X text 710 573 - pattern : a pattern of integer semitone intervals
;
#X text 701 206 The common tonnetz representation only defines triad
chords \, but the "harmonic complexity" of the context can be changed
using the "mode" message \, and intervals will be arbitrarily added
to / removed from the pattern \, following the natural scale. This
is far from being an extensive and coherent representation of harmony
so this behaviour might change in the future \, but it is interesting
enough to be used as-is for now. The default mode is "duad" (root note
+ fifth).;
#X text 709 473 - major <0/1> : set context to be major or minor;
#X text 703 541 output (to be sent to a [magnetize] object) :;
#X text 702 311 To learn more about tonnetz \, see :;
#X text 702 325 https://en.wikipedia.org/wiki/Tonnetz;
#X text 709 459 - root <integer_root_note> : change only context root
;
#X text 709 488 - interval <integer_semitones_interval> : set the interval
;
#X text 722 503 to be used in "interval" mode;
#X connect 0 0 17 0;
#X connect 1 0 40 0;
#X connect 2 0 3 0;
#X connect 3 0 42 0;
#X connect 4 0 2 0;
#X connect 5 0 2 0;
#X connect 6 0 2 0;
#X connect 7 0 2 0;
#X connect 8 0 12 0;
#X connect 9 0 12 0;
#X connect 10 0 12 0;
#X connect 11 0 43 0;
#X connect 12 0 11 0;
#X connect 13 0 18 0;
#X connect 13 0 18 1;
#X connect 14 0 13 1;
#X connect 15 0 14 0;
#X connect 16 0 15 0;
#X connect 17 0 13 0;
#X connect 19 0 0 0;
#X connect 20 0 26 0;
#X connect 21 0 20 0;
#X connect 22 0 26 0;
#X connect 23 0 2 0;
#X connect 24 0 0 0;
#X connect 25 0 24 0;
#X connect 26 0 19 0;
#X connect 27 0 28 0;
#X connect 28 0 25 0;
#X connect 29 0 1 0;
#X connect 30 0 44 0;
#X connect 31 0 30 0;
#X connect 32 0 31 0;
#X connect 33 0 31 0;
#X connect 34 0 31 0;
#X connect 35 0 36 0;
#X connect 36 0 37 0;
#X connect 39 0 38 0;
#X connect 39 1 35 0;
#X connect 40 0 0 0;
#X connect 40 1 39 0;
#X connect 41 0 1 0;
#X connect 45 0 53 0;
#X connect 46 0 45 0;
#X connect 47 0 53 0;
#X connect 48 0 47 0;
#X connect 49 0 50 0;
#X connect 50 0 53 0;
#X connect 51 0 52 0;
#X connect 52 0 53 0;
#X connect 55 0 2 0;
#X connect 57 0 56 0;
