#N canvas 367 129 635 619 10;
#X obj 143 561 outlet~;
#X obj 248 562 outlet~;
#X obj 179 33 inlet;
#N canvas 670 112 686 656 process 0;
#X obj 150 600 outlet~;
#X obj 176 36 inlet;
#X obj 213 36 inlet;
#X obj 250 36 inlet;
#X obj 520 291 phasor~;
#X obj 544 322 +~ 0.5;
#X obj 544 346 wrap~;
#X obj 109 398 hip~ 5;
#X obj 109 371 *~;
#X obj 173 268 -~ 0.5;
#X obj 173 288 *~ 0.5;
#X obj 173 308 cos~;
#X obj 173 248 clip~ 0 1;
#X obj 43 266 samphold~;
#X obj 173 328 abs~;
#X obj 520 394 send~ \$0-phase1;
#X obj 544 370 send~ \$0-phase2;
#X obj 43 181 r~ \$0-position;
#X obj 138 180 r~ \$0-phase1;
#X obj 211 462 *~ 1;
#X obj 300 525 *~;
#X obj 300 549 clip~ -1 1;
#X obj 349 379 hip~ 5;
#X obj 349 352 *~;
#X obj 413 249 -~ 0.5;
#X obj 413 269 *~ 0.5;
#X obj 413 289 cos~;
#X obj 413 229 clip~ 0 1;
#X obj 283 247 samphold~;
#X obj 413 309 abs~;
#X obj 283 162 r~ \$0-position;
#X obj 378 161 r~ \$0-phase2;
#X obj 334 452 r \$0-feedback;
#X obj 334 492 line~ 0;
#X msg 334 472 \$1 10;
#X obj 250 77 s \$0-feedback;
#X obj 520 159 r \$0-gsize;
#X obj 520 271 line~ 0;
#X msg 520 251 \$1 10;
#X obj 213 77 sig~;
#X obj 176 125 s \$0-gsize;
#X obj 213 102 s~ \$0-position;
#X obj 43 329 delread4~ \$0-gdelay;
#X obj 283 311 delread4~ \$0-gdelay;
#X obj 300 573 send~ \$0-gdelay-in;
#X obj 547 199 swap 1000;
#X obj 547 222 /;
#X obj 520 179 sel 0;
#X connect 1 0 40 0;
#X connect 2 0 39 0;
#X connect 3 0 35 0;
#X connect 4 0 5 0;
#X connect 4 0 15 0;
#X connect 5 0 6 0;
#X connect 6 0 16 0;
#X connect 7 0 19 0;
#X connect 8 0 7 0;
#X connect 9 0 10 0;
#X connect 10 0 11 0;
#X connect 11 0 14 0;
#X connect 12 0 9 0;
#X connect 13 0 42 0;
#X connect 14 0 8 1;
#X connect 17 0 13 0;
#X connect 18 0 12 0;
#X connect 18 0 13 1;
#X connect 19 0 0 0;
#X connect 19 0 20 0;
#X connect 20 0 21 0;
#X connect 21 0 44 0;
#X connect 22 0 19 0;
#X connect 23 0 22 0;
#X connect 24 0 25 0;
#X connect 25 0 26 0;
#X connect 26 0 29 0;
#X connect 27 0 24 0;
#X connect 28 0 43 0;
#X connect 29 0 23 1;
#X connect 30 0 28 0;
#X connect 31 0 27 0;
#X connect 31 0 28 1;
#X connect 32 0 34 0;
#X connect 33 0 20 1;
#X connect 34 0 33 0;
#X connect 36 0 47 0;
#X connect 37 0 4 0;
#X connect 38 0 37 0;
#X connect 39 0 41 0;
#X connect 42 0 8 0;
#X connect 43 0 23 0;
#X connect 45 0 46 0;
#X connect 45 1 46 1;
#X connect 46 0 38 0;
#X connect 47 1 45 0;
#X restore 143 489 pd process;
#N canvas 0 23 647 574 repanning 0;
#X obj 104 69 inlet;
#X obj 229 65 inlet;
#X obj 270 531 outlet;
#X obj 104 91 clip 0 1;
#X obj 229 87 clip 0 1;
#X obj 104 122 t f f;
#X obj 104 233 t f f;
#X obj 229 324 * 1;
#X obj 229 273 bng 15 250 50 0 empty empty empty 17 7 0 10 -262144
-1 -1;
#X obj 103 383 t f b;
#X obj 241 474 * 1;
#X obj 241 376 + 0;
#X obj 140 384 bng 15 250 50 0 empty empty empty 17 7 0 10 -262144
-1 -1;
#X obj 255 324 f;
#X obj 255 273 bng 15 250 50 0 empty empty empty 17 7 0 10 -262144
-1 -1;
#X obj 265 351 * 0;
#X obj 229 230 t b b f f;
#X obj 515 234 / 1;
#X obj 492 205 % 2;
#X obj 582 199 - 1;
#X obj 555 174 t f f;
#X obj 555 130 loadbang;
#X msg 555 152 2;
#X obj 492 66 inlet;
#X text 484 45 voice #;
#X text 105 45 pan;
#X text 231 44 width;
#X obj 241 398 t b f;
#N canvas 235 95 170 307 triangulize 0;
#X obj 37 37 inlet;
#X obj 37 243 outlet;
#X obj 37 58 moses 0.5;
#X obj 37 109 * 2;
#X obj 88 108 - 0.5;
#X obj 88 130 * 2;
#X obj 88 159 swap 1;
#X obj 95 184 -;
#X connect 0 0 2 0;
#X connect 2 0 3 0;
#X connect 2 1 4 0;
#X connect 3 0 1 0;
#X connect 4 0 5 0;
#X connect 5 0 6 0;
#X connect 6 0 7 0;
#X connect 6 1 7 1;
#X connect 7 0 1 0;
#X restore 374 207 pd triangulize;
#X obj 374 376 t f f;
#X obj 270 509 + 0;
#X obj 241 418 bng 15 250 50 0 empty empty empty 17 7 0 10 -262144
-1 -1;
#X obj 327 473 * 0;
#X obj 329 376 swap 1;
#X obj 336 401 -;
#X obj 291 261 swap 1;
#X obj 298 286 -;
#X connect 0 0 3 0;
#X connect 1 0 4 0;
#X connect 3 0 5 0;
#X connect 4 0 16 0;
#X connect 5 0 6 0;
#X connect 5 1 28 0;
#X connect 6 0 9 0;
#X connect 6 1 7 0;
#X connect 7 0 11 0;
#X connect 8 0 7 0;
#X connect 9 0 10 0;
#X connect 9 1 12 0;
#X connect 10 0 30 0;
#X connect 11 0 27 0;
#X connect 12 0 32 0;
#X connect 13 0 15 0;
#X connect 14 0 13 0;
#X connect 15 0 11 1;
#X connect 16 0 8 0;
#X connect 16 1 14 0;
#X connect 16 2 35 0;
#X connect 16 3 15 1;
#X connect 17 0 13 0;
#X connect 18 0 17 0;
#X connect 19 0 17 1;
#X connect 20 0 18 1;
#X connect 20 1 19 0;
#X connect 21 0 22 0;
#X connect 22 0 20 0;
#X connect 23 0 18 0;
#X connect 27 0 31 0;
#X connect 27 1 32 0;
#X connect 28 0 29 0;
#X connect 29 0 33 0;
#X connect 29 1 32 1;
#X connect 30 0 2 0;
#X connect 31 0 10 0;
#X connect 32 0 30 1;
#X connect 33 0 34 0;
#X connect 33 1 34 1;
#X connect 34 0 10 1;
#X connect 35 0 36 0;
#X connect 35 1 36 1;
#X connect 36 0 7 1;
#X restore 466 360 pd repanning;
#X obj 143 163 + 0;
#N canvas 0 23 450 300 random 0;
#X obj 30 20 inlet;
#X obj 34 250 outlet;
#X obj 268 132 random 10000;
#X obj 268 154 / 9999;
#X obj 285 85 t b f;
#X obj 267 112 bng 15 250 50 0 empty empty empty 17 7 0 10 -262144
-1 -1;
#X obj 294 188 * 1;
#X connect 0 0 4 0;
#X connect 2 0 3 0;
#X connect 3 0 6 0;
#X connect 4 0 5 0;
#X connect 4 1 6 1;
#X connect 5 0 2 0;
#X connect 6 0 1 0;
#X restore 198 102 pd random;
#X obj 198 123 t b f;
#X obj 179 125 bng 15 250 50 0 empty empty empty 17 7 0 10 -262144
-1 -1;
#X obj 216 177 loadbang;
#X obj 216 198 bng 15 250 50 0 empty empty empty 17 7 0 10 -262144
-1 -1;
#X msg 216 217 1;
#X obj 216 238 metro 10;
#X obj 216 259 random 10000;
#X obj 281 176 t f f;
#X obj 251 305 pack f f;
#X obj 179 57 route size rsize speed mindelay maxdelay pan width voice
feedback;
#X obj 412 360 t f;
#X obj 560 250 loadbang;
#X obj 560 289 bng 15 250 50 0 empty empty empty 17 7 0 10 -262144
-1 -1;
#X text 530 269 arg : voice #;
#X obj 251 327 line 0;
#X obj 560 308 f \$2;
#X obj 40 32 inlet~;
#X obj 64 307 receive~ \$0-gdelay-in;
#X obj 40 336 delwrite~ \$0-gdelay \$3;
#X obj 221 429 -;
#X obj 143 362 t f b f;
#X obj 221 407 swap;
#X obj 171 451 clip 0 1;
#X obj 426 445 loadbang;
#X obj 426 484 bng 15 250 50 0 empty empty empty 17 7 0 10 -262144
-1 -1;
#X obj 426 503 f \$3;
#X obj 251 283 jl/map 0 9999 1 2000;
#X obj 143 510 jl/split~;
#X connect 2 0 16 0;
#X connect 3 0 34 0;
#X connect 4 0 34 1;
#X connect 5 0 27 0;
#X connect 6 0 7 0;
#X connect 7 0 8 0;
#X connect 7 1 5 1;
#X connect 8 0 5 0;
#X connect 9 0 10 0;
#X connect 10 0 11 0;
#X connect 11 0 12 0;
#X connect 12 0 13 0;
#X connect 13 0 33 0;
#X connect 14 0 12 1;
#X connect 14 1 15 1;
#X connect 15 0 21 0;
#X connect 16 0 5 0;
#X connect 16 1 6 0;
#X connect 16 2 14 0;
#X connect 16 3 33 3;
#X connect 16 4 33 4;
#X connect 16 5 4 0;
#X connect 16 6 4 1;
#X connect 16 7 4 2;
#X connect 16 8 17 0;
#X connect 17 0 3 2;
#X connect 18 0 19 0;
#X connect 19 0 22 0;
#X connect 21 0 29 0;
#X connect 22 0 4 2;
#X connect 23 0 25 0;
#X connect 24 0 25 0;
#X connect 26 0 29 2;
#X connect 27 0 3 0;
#X connect 27 1 29 0;
#X connect 27 2 28 0;
#X connect 28 0 26 0;
#X connect 28 1 26 1;
#X connect 29 0 3 1;
#X connect 30 0 31 0;
#X connect 31 0 32 0;
#X connect 32 0 28 1;
#X connect 32 0 29 2;
#X connect 33 0 15 0;
#X connect 34 0 0 0;
#X connect 34 1 1 0;
