#N canvas 15 44 972 734 10;
#X obj 184 62 inlet;
#X obj 267 654 outlet~ truc;
#X obj 267 622 *~;
#N canvas 0 23 548 472 ramper 0;
#X obj 164 129 t b b;
#X obj 191 355 line~;
#X msg 164 172 0, f 2;
#X msg 191 264 1;
#X msg 336 264 0;
#X obj 191 172 t b b b;
#X obj 336 242 del 20;
#X obj 369 180 - 20;
#X obj 191 150 del 20;
#X obj 145 90 sel 0 1;
#X obj 145 68 inlet float;
#X obj 220 68 inlet bang;
#X obj 191 380 outlet~ ramps;
#X obj 369 68 inlet chunkms;
#X obj 289 68 inlet fadems;
#X obj 191 335 pack f f;
#X obj 289 90 t f f f;
#X obj 111 381 outlet trig;
#X connect 0 0 2 0;
#X connect 0 1 8 0;
#X connect 1 0 12 0;
#X connect 2 0 15 0;
#X connect 3 0 15 0;
#X connect 4 0 15 0;
#X connect 5 0 3 0;
#X connect 5 1 17 0;
#X connect 5 2 6 0;
#X connect 6 0 4 0;
#X connect 7 0 6 1;
#X connect 8 0 5 0;
#X connect 9 0 2 0;
#X connect 9 1 0 0;
#X connect 10 0 9 0;
#X connect 11 0 0 0;
#X connect 13 0 7 0;
#X connect 14 0 16 0;
#X connect 15 0 1 0;
#X connect 16 0 8 1;
#X connect 16 1 15 1;
#X connect 16 2 7 1;
#X restore 358 196 pd ramper;
#N canvas 471 56 560 486 durations 0;
#X obj 134 342 expr size("$s1");
#X obj 115 169 symbol \$2;
#X obj 115 148 unpack s f;
#X obj 270 220 moses 1;
#X obj 167 220 list fromsymbol;
#X msg 167 258 0;
#X obj 224 258 t b;
#X msg 224 277 1;
#X obj 134 315 spigot;
#X obj 167 239 route bang;
#X text 125 60 table name + samplerate;
#X obj 115 35 inlet set;
#X obj 134 388 outlet tablesamples;
#X obj 309 387 outlet tablerate;
#X obj 115 190 t a a a;
#X obj 46 388 outlet set;
#X obj 270 239 t b;
#X msg 270 258 44100, f 6;
#X connect 0 0 12 0;
#X connect 1 0 14 0;
#X connect 2 0 1 0;
#X connect 2 1 3 0;
#X connect 3 0 16 0;
#X connect 3 1 13 0;
#X connect 4 0 9 0;
#X connect 5 0 8 1;
#X connect 6 0 7 0;
#X connect 7 0 8 1;
#X connect 8 0 0 0;
#X connect 9 0 5 0;
#X connect 9 1 6 0;
#X connect 11 0 2 0;
#X connect 14 0 15 0;
#X connect 14 1 8 0;
#X connect 14 2 4 0;
#X connect 16 0 17 0;
#X connect 17 0 13 0;
#X restore 311 254 pd durations;
#X obj 184 125 route beg len pitch rvs set float bang fade;
#N canvas 571 171 487 499 bounds 0;
#X obj 111 54 inlet beg;
#X obj 174 54 inlet len;
#X obj 96 365 pack f f f;
#X obj 96 345 f;
#X obj 198 174 -;
#X obj 111 144 t f f;
#X obj 174 143 t f b f;
#X obj 198 195 abs;
#X obj 111 119 *;
#X obj 174 118 *;
#X obj 251 245 / 1;
#X obj 251 171 t b f;
#X obj 153 345 t f f;
#X obj 198 216 / 44.1;
#X obj 251 144 expr exp($f1*0.057762265);
#X obj 251 54 inlet pitch;
#X obj 205 420 outlet chunkms;
#X obj 41 54 inlet trig;
#X obj 96 420 outlet linemsg;
#X connect 0 0 8 0;
#X connect 1 0 9 0;
#X connect 2 0 18 0;
#X connect 3 0 2 0;
#X connect 4 0 7 0;
#X connect 5 0 3 1;
#X connect 5 1 4 0;
#X connect 6 0 2 1;
#X connect 6 1 4 0;
#X connect 6 2 4 1;
#X connect 7 0 13 0;
#X connect 8 0 5 0;
#X connect 9 0 6 0;
#X connect 10 0 12 0;
#X connect 11 0 10 0;
#X connect 11 1 10 1;
#X connect 12 0 2 2;
#X connect 12 1 16 0;
#X connect 13 0 10 0;
#X connect 14 0 11 0;
#X connect 15 0 14 0;
#X connect 17 0 3 0;
#X restore 124 310 pd bounds, f 11;
#X obj 232 176 t f f;
#X obj 504 146 samplerate~;
#X floatatom 521 173 10 0 0 0 - - -, f 10;
#X obj 504 125 r pd-dsp-started;
#X obj 504 194 s \$0-pd-samplerate;
#X obj 184 475 line~;
#X msg 184 450 \$1 \, \$2 \$3;
#X msg 229 429 \$2 \, \$1 \$3;
#X obj 184 531 tabread4~;
#X obj 184 405 spigot;
#X obj 229 405 spigot;
#X obj 226 355 t f f;
#X obj 226 377 == 0;
#X obj 184 377 t l l;
#X msg 311 275 set \$1;
#X obj 291 62 loadbang;
#X msg 291 82 beg 0 \, len 1 \, pitch 0 \, rvs 0;
#X connect 0 0 5 0;
#X connect 2 0 1 0;
#X connect 3 0 6 0;
#X connect 3 1 2 1;
#X connect 4 0 21 0;
#X connect 5 0 6 1;
#X connect 5 1 6 2;
#X connect 5 2 7 0;
#X connect 5 3 18 0;
#X connect 5 4 4 0;
#X connect 5 5 3 0;
#X connect 5 6 3 1;
#X connect 5 7 3 2;
#X connect 6 0 20 0;
#X connect 8 0 9 0;
#X connect 8 0 11 0;
#X connect 10 0 8 0;
#X connect 12 0 15 0;
#X connect 13 0 12 0;
#X connect 14 0 12 0;
#X connect 15 0 2 0;
#X connect 16 0 13 0;
#X connect 17 0 14 0;
#X connect 18 0 19 0;
#X connect 18 1 17 1;
#X connect 19 0 16 1;
#X connect 20 0 16 0;
#X connect 20 1 17 0;
#X connect 21 0 15 0;
#X connect 22 0 23 0;
#X connect 23 0 5 0;
